<svg id="Capa_1" enable-background="new 0 0 512 512" height="512" viewBox="0 0 512 512" width="512" xmlns="http://www.w3.org/2000/svg"><g><g><path d="m481.13 7.5v291.62c-4.14-2.16-8.84-3.38-13.83-3.38h-13.91c-4.99 0-9.69 1.22-13.83 3.38v-62.27h-32.33v-155.45c0-40.81 33.09-73.9 73.9-73.9z" fill="#eaf6ff"/><path d="m439.56 236.85h20v58.89h-6.17c-4.99 0-9.69 1.22-13.83 3.38z" fill="#d8ecfe"/><path d="m481.13 7.5v2.74c-31.1 8.72-53.9 37.28-53.9 71.16v155.45h-20v-155.45c0-40.81 33.09-73.9 73.9-73.9z" fill="#d8ecfe"/><path d="m460.347 504.5c-20.408 0-36.952-16.544-36.952-36.952v-141.81c0-16.569 13.431-30 30-30h13.905c16.569 0 30 13.431 30 30v141.81c0 20.408-16.544 36.952-36.953 36.952z" fill="#fe99a0"/><path d="m475.35 501.32c-4.58 2.05-9.66 3.18-15 3.18-20.41 0-36.96-16.54-36.96-36.95v-141.81c0-16.57 13.44-30 30-30h13.91c2.79 0 5.49.38 8.05 1.11-12.66 3.5-21.96 15.11-21.96 28.89v141.81c0 15.07 9.02 28.03 21.96 33.77z" fill="#fd8087"/><path d="m283.722 504.5c-20.408 0-36.952-16.544-36.952-36.952v-141.81c0-16.569 13.431-30 30-30h13.905c16.569 0 30 13.431 30 30v141.81c-.001 20.408-16.545 36.952-36.953 36.952z" fill="#57be92"/><path d="m298.72 501.32c-4.59 2.05-9.66 3.18-15 3.18-20.41 0-36.95-16.54-36.95-36.95v-141.81c0-16.57 13.43-30 30-30h13.9c2.79 0 5.49.38 8.05 1.1-12.66 3.51-21.95 15.12-21.95 28.9v141.81c0 15.07 9.02 28.03 21.95 33.77z" fill="#22b27f"/><path d="m357.59 108.14v.92c0 35.52-15.08 68.64-40.09 88.06l-.46.36c-.04.03-.08.06-.12.09-7.72 5.97-12.41 15.05-12.41 24.82v76.73c-4.14-2.16-8.85-3.38-13.84-3.38h-13.9c-4.99 0-9.69 1.22-13.83 3.38v-75.06c0-10.09-5-19.43-13.17-25.36-.55-.4-1.09-.81-1.63-1.22l-.46-.36c-12.51-9.71-22.53-22.84-29.42-37.99-6.9-15.15-10.67-32.31-10.67-50.07 0-35.77 15.29-69.09 40.59-88.45l.91-.69c21.03-16.09 48.07-15.87 68.91.55 24.73 19.48 39.59 52.4 39.59 87.67z" fill="#eaf6ff"/><path d="m227.59 109.06c0 17.76 3.77 34.92 10.67 50.07 6.89 15.15 16.91 28.28 29.42 37.99l.46.36c.54.41 1.08.82 1.63 1.22 8.17 5.93 13.17 15.27 13.17 25.36v71.68h-6.17c-4.99 0-9.69 1.22-13.83 3.38v-75.06c0-10.09-5-19.43-13.17-25.36-.55-.4-1.09-.81-1.63-1.22l-.46-.36c-12.51-9.71-22.53-22.84-29.42-37.99-6.9-15.15-10.67-32.31-10.67-50.07 0-35.77 15.29-69.09 40.59-88.45l.91-.69c13.32-10.19 29.05-13.84 44.09-10.97-8.42 1.61-16.63 5.26-24.09 10.97l-.91.69c-25.3 19.36-40.59 52.68-40.59 88.45z" fill="#d8ecfe"/><path d="m304.51 295.74v3.38c-3.28-1.71-6.93-2.84-10.79-3.22 1-.11 2.02-.16 3.05-.16z" fill="#d8ecfe"/><path d="m290.67 295.74c1.03 0 2.05.05 3.05.16-3.86.38-7.5 1.51-10.78 3.22v-3.38z" fill="#d8ecfe"/><path d="m89.701 504.482c-20.408 0-36.952-16.544-36.952-36.952v-141.81c0-16.569 13.431-30 30-30h13.905c16.569 0 30 13.431 30 30v141.81c-.001 20.408-16.545 36.952-36.953 36.952z" fill="#57be92"/><path d="m104.7 501.3c-4.59 2.05-9.66 3.18-15 3.18-20.41 0-36.95-16.54-36.95-36.95v-141.81c0-16.57 13.43-30 30-30h13.9c2.79 0 5.49.38 8.05 1.1-12.66 3.51-21.95 15.12-21.95 28.9v141.81c0 15.07 9.02 28.03 21.95 33.77z" fill="#22b27f"/><path d="m164.7 23v84.94c0 38.27-15.97 71.53-39.47 88.49-7.88 5.69-12.64 14.21-12.64 23.36v80.52c-4.61-2.91-10.08-4.59-15.94-4.59h-13.9c-5.86 0-11.33 1.68-15.94 4.59v-80.52c0-9.15-4.76-17.67-12.64-23.36-23.5-16.96-39.47-50.22-39.47-88.49v-84.94c0-8.28 6.72-15 15-15 4.14 0 7.89 1.68 10.6 4.4 2.72 2.71 4.4 6.46 4.4 10.6v91.39c0 8.28 6.72 15 15 15 4.14 0 7.89-1.68 10.6-4.39 2.72-2.72 4.4-6.47 4.4-10.61v-91.39c0-8.28 6.72-15 15-15 4.14 0 7.89 1.68 10.6 4.4 2.72 2.71 4.4 6.46 4.4 10.6v91.39c0 8.28 6.72 15 15 15 4.14 0 7.89-1.68 10.6-4.39 2.72-2.72 4.4-6.47 4.4-10.61v-91.39c0-8.28 6.72-15 15-15 4.14 0 7.89 1.68 10.6 4.4 2.72 2.71 4.4 6.46 4.4 10.6z" fill="#eaf6ff"/><g fill="#d8ecfe"><path d="m86.81 219.79v75.93h-4.06c-5.86 0-11.33 1.68-15.94 4.59v-80.52c0-9.15-4.76-17.67-12.64-23.36-23.5-16.96-39.47-50.22-39.47-88.49v-84.94c0-8.28 6.72-15 15-15 3.84 0 7.35 1.45 10 3.83-3.07 2.74-5 6.73-5 11.17v84.94c0 38.27 15.97 71.53 39.47 88.49 7.88 5.69 12.64 14.21 12.64 23.36z"/><path d="m99.7 11.83c-3.07 2.74-5 6.73-5 11.17v91.39c0 4.14-1.68 7.89-4.4 10.61-2.71 2.71-6.46 4.39-10.6 4.39-3.84 0-7.35-1.45-10-3.82.21-.19.41-.38.6-.57 2.72-2.72 4.4-6.47 4.4-10.61v-91.39c0-8.28 6.72-15 15-15 3.84 0 7.35 1.45 10 3.83z"/><path d="m102.75 295.72h9.84v4.59c-3.8-2.4-8.18-3.96-12.89-4.44 1-.1 2.02-.15 3.05-.15z"/><path d="m159.7 11.83c-3.07 2.74-5 6.73-5 11.17v91.39c0 4.14-1.68 7.89-4.4 10.61-2.71 2.71-6.46 4.39-10.6 4.39-3.84 0-7.35-1.45-10-3.82.21-.19.41-.38.6-.57 2.72-2.72 4.4-6.47 4.4-10.61v-91.39c0-8.28 6.72-15 15-15 3.84 0 7.35 1.45 10 3.83z"/><path d="m96.65 295.72c1.03 0 2.05.05 3.05.15-4.71.48-9.09 2.04-12.89 4.44v-4.59z"/></g></g><g><path d="m488.63 294.921v-156.401c0-4.142-3.358-7.5-7.5-7.5s-7.5 3.358-7.5 7.5v150.263c-8.17-1.396-18.4-1.396-26.57.001v-51.934c0-4.142-3.358-7.5-7.5-7.5h-24.83v-147.95c0-34.077 25.806-62.241 58.9-65.979v90.409c0 4.142 3.358 7.5 7.5 7.5s7.5-3.358 7.5-7.5v-98.33c0-4.142-3.358-7.5-7.5-7.5-44.884 0-81.4 36.516-81.4 81.4v155.45c0 4.142 3.358 7.5 7.5 7.5h24.83v50.573c-9.759 6.777-16.166 18.059-16.166 30.815v141.81c0 24.511 19.941 44.452 44.453 44.452s44.452-19.941 44.452-44.452v-141.81c.001-12.757-6.408-24.04-16.169-30.817zm1.17 172.627c0 16.24-13.212 29.452-29.452 29.452s-29.453-13.212-29.453-29.452v-141.81c0-12.407 10.093-22.5 22.5-22.5h13.905c12.407 0 22.5 10.093 22.5 22.5z"/><path d="m164.7 48.36c4.142 0 7.5-3.358 7.5-7.5v-17.86c-1.294-13.703-8.794-21.203-22.5-22.5-12.407 0-22.5 10.093-22.5 22.5v91.39c-.432 4.57-2.932 7.07-7.5 7.5-4.136 0-7.5-3.364-7.5-7.5v-91.39c-1.294-13.703-8.794-21.203-22.5-22.5-12.406 0-22.5 10.093-22.5 22.5v91.39c-.432 4.57-2.932 7.07-7.5 7.5-4.136 0-7.5-3.364-7.5-7.5v-91.39c-1.293-13.703-8.793-21.203-22.5-22.5-12.406 0-22.5 10.093-22.5 22.5v84.94c0 39.379 16.316 75.617 42.579 94.571 6.057 4.374 9.531 10.672 9.531 17.279v76.688c-8.565 6.879-14.062 17.428-14.062 29.242v141.81c0 24.511 19.941 44.452 44.453 44.452s44.452-19.941 44.452-44.452v-141.81c0-11.815-5.498-22.364-14.063-29.243v-76.687c0-6.607 3.474-12.906 9.529-17.278 26.265-18.956 42.581-55.193 42.581-94.572v-34.4c0-4.142-3.358-7.5-7.5-7.5s-7.5 3.358-7.5 7.5v34.4c0 34.646-13.932 66.223-36.361 82.41-10.009 7.228-15.75 17.958-15.75 29.44v69.399c-8.96-2.069-21.82-2.069-30.78 0v-69.399c0-11.482-5.74-22.213-15.751-29.441-22.425-16.186-36.358-47.763-36.358-82.409v-84.94c0-4.136 3.364-7.5 7.5-7.5 4.564.44 7.064 2.94 7.5 7.5v91.39c0 12.407 10.093 22.5 22.5 22.5 13.71-1.288 21.21-8.788 22.5-22.5v-91.39c0-4.136 3.364-7.5 7.5-7.5 4.564.44 7.064 2.94 7.5 7.5v91.39c0 12.407 10.093 22.5 22.5 22.5 13.71-1.288 21.21-8.788 22.5-22.5v-91.39c0-4.136 3.364-7.5 7.5-7.5 4.564.44 7.064 2.94 7.5 7.5v17.86c0 4.142 3.358 7.5 7.5 7.5zm-68.047 254.86c12.407 0 22.5 10.093 22.5 22.5v141.81c0 16.24-13.212 29.452-29.452 29.452s-29.453-13.212-29.453-29.452v-141.81c0-12.407 10.093-22.5 22.5-22.5z"/><path d="m322.642 14.579c-23.615-18.608-54.275-18.849-78.084-.635l-.935.709c-27.259 20.859-43.533 56.151-43.533 94.406 0 18.494 3.923 36.883 11.343 53.175 7.471 16.426 18.415 30.538 31.626 40.792 6.645 5.242 12.381 11.919 12.381 21.033v70.86c-9.762 6.777-16.171 18.061-16.171 30.819v141.81c0 24.511 19.941 44.452 44.453 44.452s44.452-19.941 44.452-44.452v-141.81c0-12.755-6.406-24.036-16.164-30.814v-31.274c0-4.142-3.358-7.5-7.5-7.5s-7.5 3.358-7.5 7.5v25.135c-8.17-1.397-18.4-1.396-26.57-.001v-64.724c0-13.518-8.046-24.877-18.161-32.865-11.321-8.787-20.724-20.949-27.193-35.174-6.539-14.358-9.996-30.597-9.996-46.961 0-33.616 14.074-64.455 37.623-82.475l.935-.709c18.214-13.935 41.652-13.745 59.712.485 23 18.117 36.731 48.688 36.731 81.778.268 31.046-12.422 64.343-37.758 83.497-9.737 7.53-15.322 18.739-15.322 30.753v8.57c0 4.142 3.358 7.5 7.5 7.5s7.5-3.358 7.5-7.5v-8.57c0-7.317 3.445-14.186 9.455-18.854 29.021-21.807 43.887-59.874 43.625-95.396-.001-37.647-15.87-72.623-42.449-93.56zm-31.968 288.659c12.153 0 22.5 10.125 22.5 22.5v141.81c0 16.24-13.212 29.452-29.452 29.452-16.24 0-29.452-13.212-29.452-29.452v-141.81c0-12.407 10.093-22.5 22.5-22.5z"/></g></g></svg>