<svg id="Capa_1" enable-background="new 0 0 512 512" height="512" viewBox="0 0 512 512" width="512" xmlns="http://www.w3.org/2000/svg"><g><path d="m321.64 487.721h-224.14c-49.71 0-90-40.29-90-90v-21.04c0-1.4.4-2.69 1.11-3.78 1.24-1.94 3.41-3.22 5.89-3.22h483c2.48 0 4.65 1.28 5.89 3.22.71 1.09 1.11 2.38 1.11 3.78v21.04c0 49.71-40.29 90-90 90h-60.17z" fill="#fece85"/><path d="m57.5 396.679v21.04c0 28.13 12.9 53.24 33.11 69.74-46.49-3.52-83.11-42.35-83.11-89.74v-21.04c0-3.87 3.13-7 7-7h483c3.87 0 7 3.13 7 7v13h-440c-3.87 0-7 3.131-7 7z" fill="#fec165"/><path d="m503.39 372.9c-8 10.21-20.44 16.78-34.39 16.78h-189.86l-96.62 49.83-96.62-49.83h-42.9c-13.95 0-26.39-6.57-34.39-16.78 1.24-1.94 3.41-3.22 5.89-3.22h483c2.48-.001 4.65 1.279 5.89 3.22z" fill="#fec165"/><path d="m471.65 263.77v38.68c0 11.04-8.95 20-20 20h-391.3c-11.05 0-20-8.96-20-20v-38.68c.05-11.01 8.98-19.91 20-19.91h391.3c11.02-.001 19.95 8.899 20 19.91z" fill="#dc8758"/><path d="m471.65 263.859h-361.3c-11.05 0-20 8.95-20 20v38.59h-30c-11.05 0-20-8.96-20-20v-38.59c0-11.05 8.95-20 20-20h391.3c11.05 0 20 8.951 20 20z" fill="#d77f4a"/><path d="m471.65 263.77c-.88.06-1.76.09-2.65.09h-56.8c-8.55 0-15.5 6.95-15.5 15.5v43.09h-92.66v-28.52c0-3.49-2.84-6.33-6.33-6.33s-6.33 2.84-6.33 6.33c0 10.76-3.72 20.68-9.94 28.52h-72.77c-6.22-7.84-9.94-17.76-9.94-28.52v-14.57c0-8.55-6.96-15.5-15.5-15.5h-140.23c-.89 0-1.77-.03-2.65-.09.05-11.01 8.98-19.91 20-19.91h391.3c11.02-.001 19.95 8.899 20 19.91z" fill="#d77f4a"/><path d="m376.7 322.35h92.3c6.54 0 12.45 2.65 16.74 6.93 4.28 4.29 6.93 10.2 6.93 16.74 0 13.07-10.6 23.66-23.67 23.66h-194.71l-91.77 47.32-91.77-47.32h-47.75c-13.07 0-23.67-10.59-23.67-23.66s10.6-23.67 23.67-23.67h281.04z" fill="#ffe177"/><path d="m49.33 346.02c0 13.07 10.6 23.66 23.67 23.66h-30c-13.07 0-23.67-10.59-23.67-23.66s10.6-23.67 23.67-23.67h30c-13.07-.001-23.67 10.599-23.67 23.67z" fill="#ffd15b"/><path d="m497.5 196.52h-483c-3.866 0-7-3.134-7-7 0-91.26 73.981-165.242 165.242-165.242h166.517c91.26 0 165.242 73.981 165.242 165.242-.001 3.866-3.135 7-7.001 7z" fill="#fece85"/><path d="m504.5 189.52c0 1.93-.78 3.69-2.05 4.95-1.27 1.27-3.01 2.05-4.95 2.05h-483c-3.87 0-7-3.13-7-7 0-45.63 18.5-86.94 48.4-116.84 21.91-21.91 49.94-37.7 81.31-44.57-11.42 6.92-21.93 15.18-31.31 24.57-29.9 29.9-48.4 71.21-48.4 116.84 0 3.87 3.13 7 7 7h439.5c.33 4.29.5 8.62.5 13z" fill="#fec165"/><path d="m376.7 331.62c0 14.541-11.788 26.329-26.329 26.329-14.541 0-26.329-11.788-26.329-26.329v-37.689c0-14.541-11.788-26.329-26.329-26.329-14.541 0-26.329 11.788-26.329 26.329 0 14.333-11.619 25.952-25.952 25.952h-.754c-14.333 0-25.952-11.619-25.952-25.952v-14.572c0-19.606-15.894-35.5-35.5-35.5h-140.226c-13.071 0-23.667-10.596-23.667-23.667 0-13.071 10.596-23.667 23.667-23.667h426c13.071 0 23.667 10.596 23.667 23.667 0 13.071-10.596 23.667-23.667 23.667h-56.8c-19.606 0-35.5 15.894-35.5 35.5z" fill="#fd8087"/><path d="m46.26 203.459c-4.28 4.28-6.93 10.2-6.93 16.73 0 13.07 10.6 23.67 23.67 23.67h-20c-13.07 0-23.67-10.6-23.67-23.67 0-6.53 2.65-12.45 6.93-16.73 4.29-4.28 10.2-6.93 16.74-6.93h20c-6.54 0-12.45 2.65-16.74 6.93z" fill="#fe646f"/><g><path d="m497.5 362.179c7.486-18.161-1.243-42.049-21.704-46.581 2.137-3.908 3.354-8.389 3.354-13.149v-38.59c0-4.799-1.239-9.313-3.408-13.244 20.407-4.52 30.911-28.514 19.892-46.595 9.933-.1 15.388-4.933 16.366-14.5 0-95.25-77.491-172.74-172.74-172.74h-110.455c-4.107 0-7.688 3.164-7.811 7.269-.128 4.247 3.278 7.731 7.497 7.731h110.77c84.339 0 153.431 66.526 157.546 149.862.198 4.009-2.983 7.378-6.996 7.378h-467.625c-4.023 0-7.19-3.382-6.993-7.4 1.919-39.163 18.085-75.712 46.01-103.637 29.795-29.794 69.406-46.203 111.537-46.203h22.755c4.107 0 7.688-3.164 7.811-7.269.128-4.247-3.278-7.731-7.497-7.731h-21.552c-46.192 0-90.824 17.831-123.522 50.458-32.715 32.645-50.735 76.08-50.735 122.283 0 9.328 8.445 14.083 16.366 14.5-11.018 18.081-.515 42.075 19.892 46.595-2.17 3.931-3.408 8.445-3.408 13.244v38.59c0 4.762 1.218 9.245 3.357 13.154-22.59 5.043-27.059 31.579-21.707 46.576-8.008 0-14.5 6.492-14.5 14.5v21.04c0 53.848 43.652 97.5 97.5 97.5h223.826c4.107 0 7.688-3.164 7.811-7.269.128-4.247-3.278-7.731-7.497-7.731h-224.14c-45.563 0-82.5-36.936-82.5-82.5v-13.54c0-3.866 3.134-7 7-7h66.931l90.152 46.486c2.292 1.112 4.583 1.112 6.875 0l90.153-46.486h213.889c3.866 0 7 3.134 7 7v13.54c0 45.564-36.937 82.5-82.5 82.5h-59.855c-4.107 0-7.688 3.164-7.811 7.269-.128 4.247 3.278 7.731 7.497 7.731h60.17c53.848 0 97.5-43.652 97.5-97.5v-21.04c-.001-8.009-6.493-14.501-14.501-14.501zm-113.3-47.33v-35.491c0-15.435 12.554-27.993 27.987-28 .004 0 .009.001.013.001h39.45c6.893 0 12.5 5.607 12.5 12.5v38.59c0 6.381-4.809 11.652-10.992 12.4zm-357.367-94.658c0-8.914 7.252-16.167 16.167-16.167h426c8.914 0 16.167 7.252 16.167 16.167s-7.252 16.167-16.167 16.167h-56.8c-23.71 0-43 19.29-43 43v52.261c0 10.382-8.447 18.829-18.83 18.829-10.382 0-18.829-8.447-18.829-18.829v-37.689c0-18.653-15.176-33.829-33.829-33.829s-33.829 15.176-33.829 33.829c0 10.174-8.278 18.452-18.452 18.452h-.754c-10.174 0-18.452-8.278-18.452-18.452v-14.572c0-23.71-19.29-43-43-43h-140.225c-8.914 0-16.167-7.252-16.167-16.167zm289.709 94.658h-45.033c4.609-5.733 7.375-13.007 7.375-20.919 0-10.382 8.447-18.829 18.829-18.829s18.829 8.447 18.829 18.829zm-42.252 47.33c-1.18 0-2.387.293-3.437.834l-88.333 45.547-88.333-45.548c-1.049-.541-2.257-.833-3.437-.833h-47.75c-8.916 0-16.17-7.25-16.17-16.16 0-8.916 7.254-16.17 16.17-16.17l67.31.1c4.142 0 7.5-3.358 7.5-7.5 0-.017-.002-.033-.003-.05 0-.017.003-.033.003-.05 0-4.142-3.358-7.5-7.5-7.5h-51.468c-6.183-.748-10.992-6.019-10.992-12.4v-38.59c0-6.893 5.607-12.5 12.5-12.5h122.88.011c15.432.009 27.984 12.565 27.984 28v14.572c0 7.912 2.767 15.186 7.375 20.919h-75.6c-4.142 0-7.5 3.358-7.5 7.5s3.358 7.5 7.5 7.5h173.542v1.77c0 13.469 7.915 25.122 19.336 30.561h-61.588zm90.574 0c11.421-5.438 19.336-17.091 19.336-30.561v-1.669l84.8-.1c4.316 0 8.38 1.683 11.437 4.733 3.052 3.052 4.733 7.114 4.733 11.437 0 8.911-7.254 16.16-16.17 16.16z"/><g><g><path d="m256 101.143c-4.142 0-7.5-3.358-7.5-7.5v-20c0-4.142 3.358-7.5 7.5-7.5s7.5 3.358 7.5 7.5v20c0 4.142-3.358 7.5-7.5 7.5z"/></g><g><path d="m152 101.143c-4.142 0-7.5-3.358-7.5-7.5v-20c0-4.142 3.358-7.5 7.5-7.5s7.5 3.358 7.5 7.5v20c0 4.142-3.358 7.5-7.5 7.5z"/></g><g><g><path d="m308 156.143c-4.142 0-7.5-3.358-7.5-7.5v-20c0-4.142 3.358-7.5 7.5-7.5s7.5 3.358 7.5 7.5v20c0 4.142-3.358 7.5-7.5 7.5z"/></g><g><path d="m204 156.143c-4.142 0-7.5-3.358-7.5-7.5v-20c0-4.142 3.358-7.5 7.5-7.5s7.5 3.358 7.5 7.5v20c0 4.142-3.358 7.5-7.5 7.5z"/></g></g><g><path d="m360 101.143c-4.142 0-7.5-3.358-7.5-7.5v-20c0-4.142 3.358-7.5 7.5-7.5s7.5 3.358 7.5 7.5v20c0 4.142-3.358 7.5-7.5 7.5z"/></g></g></g></g></svg>