<svg id="Capa_1" enable-background="new 0 0 512 512" height="512" viewBox="0 0 512 512" width="512" xmlns="http://www.w3.org/2000/svg"><g><path d="m384.989 406h-257.978c-49.706 0-90-40.294-90-90v-120c0-49.706 40.294-90 90-90h257.978c49.706 0 90 40.294 90 90v120c0 49.706-40.294 90-90 90z" fill="#fece85"/><path d="m474.99 196v120c0 8.41-1.15 16.56-3.31 24.28-12.35 6.01-26.21 9.39-40.85 9.39h-349.66c-14.64 0-28.5-3.38-40.85-9.39-2.16-7.72-3.31-15.87-3.31-24.28v-120c0-8.41 1.15-16.56 3.31-24.28 12.35-6.01 26.21-9.39 40.85-9.39h349.66c14.64 0 28.5 3.38 40.85 9.39 2.16 7.72 3.31 15.87 3.31 24.28z" fill="#e19974"/><path d="m471.68 171.72c-12.35-6.01-26.21-9.39-40.85-9.39h-310.873c-12.855 0-19.697-15.063-11.338-24.829 16.506-19.281 41.022-31.501 68.391-31.501h-50c-49.706 0-90 40.294-90 90v120c0 49.706 40.294 90 90 90h50c-27.369 0-51.885-12.22-68.391-31.501-8.36-9.765-1.517-24.829 11.338-24.829h310.873c14.64 0 28.5-3.38 40.85-9.39 2.16-7.72 3.31-15.87 3.31-24.28v-120c0-8.41-1.15-16.56-3.31-24.28z" fill="#fec165"/><path d="m430.827 329.673h-349.654c-40.688 0-73.673-32.984-73.673-73.673 0-40.689 32.985-73.673 73.673-73.673h349.653c40.689 0 73.673 32.985 73.673 73.673.001 40.689-32.984 73.673-73.672 73.673z" fill="#fd8087"/><path d="m131.17 329.67h-50c-40.69 0-73.67-32.98-73.67-73.67 0-20.34 8.24-38.76 21.58-52.09 13.33-13.33 31.74-21.58 52.09-21.58h50c-20.35 0-38.76 8.25-52.09 21.58-13.34 13.33-21.58 31.75-21.58 52.09 0 40.69 32.98 73.67 73.67 73.67z" fill="#fe646f"/><g><path d="m296.165 284.511c-11.288 0-22.575-3.517-31.997-10.553-.022-.017-.122-.091-.144-.108-4.677-3.492-11.296-3.497-16.044.034-.015.012-.029.022-.042.032-18.86 14.109-45.206 14.11-64.068.002-4.736-3.543-11.346-3.556-16.095-.04-.018.014-.037.027-.055.041-18.86 14.106-45.204 14.106-64.064 0l-8.04-6.014c-8.729 5.667-20.481 3.693-26.844-4.744-6.65-8.819-4.892-21.36 3.927-28.011l.089-.067c13.354-10.125 32.111-10.186 45.572-.118l9.254 6.922c4.735 3.542 11.345 3.554 16.095.039.018-.014.037-.027.055-.041 18.86-14.106 45.204-14.106 64.064 0 4.75 3.553 11.381 3.556 16.134.011.009-.007.019-.014.027-.021 18.844-14.097 45.175-14.11 64.033-.028.022.017.122.091.144.108 4.686 3.499 11.323 3.497 16.073-.056.025-.02.052-.039.078-.058 18.854-14.063 45.163-14.049 64.006.044 4.752 3.555 11.395 3.558 16.148.001l9.243-6.914c13.474-10.078 32.24-10.009 45.641.168 8.796 6.681 10.511 19.227 3.83 28.023-6.356 8.371-18.026 10.327-26.719 4.743l-8.036 6.011c-18.859 14.106-45.203 14.106-64.064 0-4.756-3.557-11.397-3.558-16.149-.002-.029.022-.06.044-.089.066-9.414 7.02-20.689 10.529-31.963 10.53z" fill="#ffe177"/></g><g><path d="m512 256c0-25.165-11.511-47.691-29.545-62.591-1.378-52.569-44.57-94.909-97.465-94.909h-8.48c-4.143 0-7.5 3.358-7.5 7.5s3.357 7.5 7.5 7.5h8.48c41.1 0 75.27 30.213 81.484 69.595-10.767-5.285-22.862-8.265-35.644-8.265h-349.66c-12.559 0-24.676 2.852-35.635 8.218 6.234-39.358 40.391-69.548 81.475-69.548h216.81c4.143 0 7.5-3.358 7.5-7.5s-3.357-7.5-7.5-7.5h-216.81c-52.88 0-96.061 42.316-97.463 94.864-18.579 15.369-29.547 38.469-29.547 62.636 0 25.165 11.511 47.691 29.545 62.591 1.379 52.569 44.57 94.909 97.465 94.909h257.98c52.88 0 96.061-42.316 97.463-94.864 18.58-15.368 29.547-38.47 29.547-62.636zm-127.01 142.5h-257.98c-41.101 0-75.27-30.214-81.484-69.595 10.767 5.285 22.862 8.265 35.644 8.265h27.93c4.142 0 7.5-3.358 7.5-7.5s-3.358-7.5-7.5-7.5h-27.93c-36.486 0-66.17-29.684-66.17-66.17 0-35.766 30.322-66.17 66.17-66.17h349.66c36.486 0 66.17 29.684 66.17 66.17 0 35.766-30.322 66.17-66.17 66.17h-289.05c-4.142 0-7.5 3.358-7.5 7.5s3.358 7.5 7.5 7.5h289.05c12.559 0 24.676-2.852 35.635-8.218-6.234 39.359-40.391 69.548-81.475 69.548z"/><path d="m172.213 279.925c-.016-.031.011-.052.082-.063 2.101-1.518 5.002-1.496 7.083.063 21.507 16.09 51.549 16.089 73.055 0 .063-.047.126-.096.188-.145 2.063-1.42 4.935-1.397 6.909.077 20.969 15.727 52.218 15.914 73.188.064 2.071-1.552 5.084-1.55 7.159.004 23.371 17.483 55.234 14.263 77.381-3.241 11.2 4.346 24.4.898 31.906-8.98 9.167-12.076 6.805-29.363-5.27-38.539-16.048-12.18-38.529-12.264-54.681-.199l-9.233 6.915c-2.075 1.551-5.093 1.548-7.166.003-21.431-16.04-51.369-16.094-72.858-.147-.085.06-.185.133-.296.22-2.072 1.487-4.998 1.492-6.998-.004-.048-.036-.097-.071-.145-.105-.001 0-.002-.001-.002-.001-4.517-3.382-9.5-6.107-14.812-8.1-3.882-1.455-8.202.511-9.656 4.389s.511 8.202 4.389 9.656c3.944 1.479 7.644 3.495 10.996 5.993.113.088.239.182.38.281 7.34 5.396 17.562 5.339 24.918-.159.017-.012.033-.024.049-.037.009-.006.017-.012.025-.019 16.208-12.089 38.834-12.072 55.032.051 7.402 5.52 17.732 5.519 25.129-.009l9.232-6.914c10.814-8.08 25.876-8.024 36.624.133 5.489 4.171 6.563 12.032 2.396 17.521-3.92 5.158-11.253 6.461-16.696 2.967-2.635-1.691-6.039-1.568-8.543.304-17.091 15.21-43.63 20.589-63.117 6.011-7.35-5.497-17.583-5.537-24.968-.124-17.013 11.709-38.566 11.832-55.523-.05-7.323-5.377-17.522-5.335-24.865.12-.095.071-.188.144-.279.218-16.202 11.968-38.721 11.914-54.862-.162-7.364-5.514-17.67-5.539-25.061-.063-19.639 14.56-45.819 9.309-63.194-5.951-2.515-1.879-5.935-1.994-8.57-.286-5.472 3.548-12.845 2.243-16.781-2.972-4.584-6.079-2.633-12.927 2.562-17.588 10.72-8.126 25.749-8.16 36.546-.082l9.255 6.924c7.358 5.496 17.657 5.521 25.045.063.06-.044.118-.089.176-.135 16.21-12.064 38.808-12.042 54.997.07 7.341 5.486 17.583 5.525 24.968.114.059-.042.117-.084.175-.127 4.729-3.538 10.04-6.09 15.786-7.587 4.009-1.043 6.412-5.139 5.368-9.147-1.043-4.008-5.138-6.413-9.147-5.368-7.59 1.976-14.614 5.343-20.877 10.006-.045.032-.09.065-.135.098-2.076 1.547-5.086 1.545-7.155-.001-21.506-16.09-51.548-16.091-73.056 0-.032.024-.063.048-.095.072-2.104 1.5-4.999 1.474-7.07-.072l-9.25-6.92c-16.124-12.063-38.574-12.006-54.666.193l-.051.04c-12.066 9.138-14.472 26.386-5.353 38.48 7.539 9.987 20.81 13.451 32.067 9.021 21.222 18.531 54.706 20.177 77.365 3.226z"/></g></g></svg>