<svg id="Capa_1" enable-background="new 0 0 512 512" height="512" viewBox="0 0 512 512" width="512" xmlns="http://www.w3.org/2000/svg"><g><g><path d="m339.414 117.722h55.609v225.118h-55.609z" fill="#fef0ae"/><path d="m339.418 117.722h30.06v225.123h-30.06z" fill="#ffe177"/><path d="m283.805 7.5h55.609v335.34h-55.609z" fill="#fef0ae"/><path d="m283.806 7.5h30.06v335.345h-30.06z" fill="#ffe177"/><path d="m228.195 47.581h55.609v295.259h-55.609z" fill="#fef0ae"/><path d="m228.194 47.581h30.06v295.264h-30.06z" fill="#ffe177"/><path d="m228.2 171.81v-164.31h-55.61v116.42 128.47 90.45h55.61v-138.34z" fill="#fef0ae"/><path d="m172.582 7.5h30.06v335.345h-30.06z" fill="#ffe177"/><path d="m116.977 87.661h55.609v255.178h-55.609z" fill="#fef0ae"/><path d="m116.98 87.661h30.06v255.183h-30.06z" fill="#ffe177"/><path d="m395.023 181.18v54.523c0 16.602-13.459 30.061-30.06 30.061h-217.925c-16.602 0-30.06-13.459-30.06-30.061v-54.523h-65.94l27.524 296.043c1.437 15.457 14.408 27.278 29.931 27.278h295.013c15.524 0 28.494-11.821 29.931-27.278l27.524-296.043z" fill="#eaf6ff"/><path d="m148.574 504.5h-40.081c-15.521 0-28.497-11.824-29.93-27.275l-27.525-296.045h40.081l27.525 296.046c1.432 15.45 14.409 27.274 29.93 27.274z" fill="#d8ecfe"/><path d="m114.245 429.92h-40.081l-9.178-98.699h40.08z" fill="#ffe177"/><path d="m437.836 429.92h-363.672l-9.178-98.699h382.028z" fill="#b3dafe"/><path d="m114.245 429.92h-40.081l-9.178-98.699h40.08z" fill="#8ac9fe"/></g><path d="m468.428 181.875c-.077-4.93-2.566-7.661-7.468-8.194h-58.44v-55.96c0-4.142-3.357-7.5-7.5-7.5h-48.11v-25.061c0-4.142-3.357-7.5-7.5-7.5s-7.5 3.358-7.5 7.5v173.1h-40.61v-243.26h40.61v37.48c0 4.142 3.357 7.5 7.5 7.5s7.5-3.358 7.5-7.5v-44.98c0-4.142-3.357-7.5-7.5-7.5h-55.61c-4.143 0-7.5 3.358-7.5 7.5v32.58h-40.6v-32.58c0-4.142-3.357-7.5-7.5-7.5h-55.61c-4.143 0-7.5 3.358-7.5 7.5v72.66h-48.11c-4.143 0-7.5 3.358-7.5 7.5v86.02h-58.44c-4.902.533-7.391 3.264-7.468 8.194l27.52 296.042c1.81 19.431 17.888 34.084 37.398 34.084h295.02c19.51 0 35.588-14.653 37.398-34.085zm-80.908-56.655v110.48c0 12.439-10.12 22.56-22.56 22.56h-18.05v-133.04zm-207.43-110.22h40.61v156.81c0 4.142 3.357 7.5 7.5 7.5s7.5-3.358 7.5-7.5v-116.73h40.6v203.18h-40.6v-53.76c0-4.142-3.357-7.5-7.5-7.5s-7.5 3.358-7.5 7.5v53.76h-40.61zm-55.61 80.16h40.609v163.1h-18.05c-12.439 0-22.56-10.12-22.56-22.56v-140.54zm-15 93.52v47.02c0 20.71 16.85 37.56 37.56 37.56h217.92c20.71 0 37.56-16.849 37.56-37.56v-47.02h50.211l-12.553 135.041h-368.355l-12.553-135.041zm294.03 308.32h-295.02c-11.719 0-21.375-8.803-22.463-20.474l-3.635-39.106h60.588c4.143 0 7.5-3.358 7.5-7.5s-3.357-7.5-7.5-7.5h-61.982l-7.781-83.699h365.566l-7.781 83.699h-255.342c-4.143 0-7.5 3.358-7.5 7.5s3.357 7.5 7.5 7.5h253.948l-3.635 39.104c-1.088 11.673-10.744 20.476-22.463 20.476z"/></g></svg>