<svg id="Capa_1" enable-background="new 0 0 512 512" height="512" viewBox="0 0 512 512" width="512" xmlns="http://www.w3.org/2000/svg"><g><path d="m437.418 441.15h-362.836c-22.726 0-43.502-12.84-53.666-33.167l-13.416-26.833h497l-13.416 26.833c-10.164 20.327-30.94 33.167-53.666 33.167z" fill="#cbc4cc"/><path d="m124.58 441.146h-50c-22.72 0-43.5-12.84-53.66-33.16l-13.42-26.84h50l13.42 26.84c10.16 20.32 30.94 33.16 53.66 33.16z" fill="#b5adb6"/><path d="m74.013 120.198-1.493 2.586c-3.566 6.176-2.539 13.977 2.504 19.019l38.417 38.417-22.282 22.282-38.417-38.417c-5.043-5.043-12.843-6.07-19.019-2.504l-2.586 1.493c-7.536 4.351-17.172 1.769-21.523-5.767-4.351-7.536-1.769-17.172 5.767-21.523l19.87-11.472 11.472-19.87c4.351-7.536 13.987-10.118 21.523-5.767 7.536 4.351 10.118 13.987 5.767 21.523z" fill="#fff9e2"/><path d="m348.541 213.352c-54.162-20.236-116.168-20.236-170.33 0-65.181 24.354-109.169 76.295-114.723 135.467-1.637 17.434 14.96 32.331 36.02 32.331h327.738c21.06 0 37.656-14.897 36.02-32.331-5.555-59.172-49.543-111.113-114.725-135.467z" fill="#fec165"/><path d="m461.32 361.146c-4.93 11.58-18.23 20-34.07 20h-327.74c-20.1 0-36.13-13.56-36.13-29.95 0-.79.03-1.58.11-2.38 2.77-29.58 15.16-57.36 35-80.79 19.84-23.42 47.13-42.49 79.72-54.67 7.03-2.63 14.2-4.92 21.47-6.86-20.16 11.19-37.46 25.32-51.19 41.53-19.84 23.43-32.23 51.21-35 80.79-.08.8-.11 1.59-.11 2.38 0 16.39 16.03 29.95 36.13 29.95z" fill="#fdb441"/><path d="m135.486 189.193-20.686-20.686c-9.763-9.763-25.592-9.763-35.355 0-9.763 9.763-9.763 25.592 0 35.355l20.69 20.69c13.005 13.005 20.565 30.44 21.335 48.817.652 15.554 7.289 30.901 19.922 42.295 22.878 20.635 58.177 20.533 80.943-.225 25.61-23.352 26.3-63.068 2.067-87.3-11.024-11.024-25.25-16.883-39.682-17.587-18.515-.905-36.127-8.252-49.234-21.359z" fill="#fece85"/><path d="m196.73 329.206c-19 4.82-39.97.32-55.34-13.54-12.63-11.4-19.27-26.74-19.92-42.3-.77-18.37-8.33-35.81-21.34-48.81l-20.69-20.69c-4.88-4.89-7.32-11.29-7.32-17.68 0-6.4 2.44-12.8 7.32-17.68 8.92-8.91 22.89-9.69 32.68-2.32-.93.69-1.83 1.47-2.68 2.32-4.88 4.88-7.32 11.28-7.32 17.68 0 6.39 2.44 12.79 7.32 17.68l20.69 20.69c13.01 13 20.57 30.44 21.34 48.81.65 15.56 7.29 30.9 19.92 42.3 7.42 6.69 16.15 11.2 25.34 13.54z" fill="#fec165"/><path d="m364.286 298.856c-27.614 0-50-22.386-50-50-58.5 18.5-36.5 100 20 100h58c13.807 0 25-11.193 25-25 0-13.807-11.193-25-25-25z" fill="#fece85"/><g><path d="m510.88 377.203c-1.366-2.211-3.78-3.557-6.38-3.557h-42.328c6.378-7.316 9.419-16.345 8.561-25.467-.366-4.292-3.561-8.832-8.565-8.203-4.862.616-6.73 5.396-6.374 9.543 1.442 15.329-16.206 24.127-28.543 24.127h-327.741c-12.931 0-30.125-8.621-28.552-24.131 2.573-27.485 14.073-53.988 33.257-76.644 2.696-3.184 5.557-6.293 8.548-9.312.652 3.313 1.07 6.691 1.214 10.119.766 18.327 8.717 35.215 22.391 47.558 12.404 11.184 28.506 17.336 45.362 17.336h.196c16.928-.048 33.072-6.297 45.457-17.594 13.864-12.64 21.737-29.902 22.169-48.607.587-25.466-13.458-49.49-35.989-61.466 43.83-9.246 90.821-6.044 132.352 9.476 30.782 11.504 57.277 29.656 76.622 52.491 11.513 13.595 20.261 28.538 26.001 44.413 2.579 4.295 5.78 5.796 9.603 4.503 3.896-1.408 5.912-5.708 4.503-9.604-6.348-17.558-15.99-34.046-28.66-49.007-21-24.79-49.638-44.447-82.816-56.848-52.33-19.556-112.804-20.729-166.172-3.282-3.454-.177-6.853-.59-10.101-1.231-4.062-.807-8.009 1.843-8.811 5.906-.802 4.064 1.843 8.008 5.906 8.81 3.989.787 8.146 1.293 12.363 1.503 28.217 1.388 50.857 25.657 50.204 53.988-.337 14.568-6.473 28.017-17.28 37.871-19.813 18.074-50.941 18.163-70.86.204-10.657-9.62-16.855-22.776-17.452-37.047-.854-20.384-9.211-39.491-23.529-53.799l-20.686-20.686c-6.836-8.252-6.837-16.505-.004-24.759 7.569-6.754 15.819-6.754 24.752 0 0 0 24.563 24.371 26.538 25.968 3.22 2.605 7.942 2.104 10.548-1.115 2.604-3.221 2.104-7.943-1.116-10.548-1.566-1.267-25.363-24.912-25.363-24.912-6.075-6.075-14.185-9.406-22.573-9.501l-17.201-17.192c-2.641-2.646-3.182-6.745-1.309-9.982 2.73-4.235 4.263-8.966 4.6-14.19 0-8.287-4.451-16.009-11.622-20.157-11.114-6.411-25.365-2.588-31.773 8.517l-10.467 18.131-18.129 10.464c-7.174 4.141-11.631 11.864-11.631 20.156 0 4.063 1.077 8.077 3.114 11.608 3.104 5.383 8.12 9.232 14.124 10.841 5.998 1.607 12.268.782 17.652-2.324 3.637-2.799 7.819-2.859 12.546-.182l17.193 17.194c.102 8.524 3.462 16.531 9.507 22.586l20.691 20.692c5.26 5.256 9.52 11.316 12.688 17.905-5.262 4.889-10.212 10.054-14.749 15.413-21.177 25.009-33.883 54.38-36.739 84.89-.886 8.824 2.884 19.065 8.584 25.577h-57.111c-6.27 1.125-8.506 4.743-6.708 10.854l13.42 26.84c11.506 23.011 34.638 37.306 60.368 37.306h149.17c4.143 0 7.5-3.358 7.5-7.5s-3.357-7.5-7.5-7.5h-149.17c-20.013 0-38.004-11.118-46.952-29.014l-7.993-15.986h472.73l-7.993 15.986c-8.948 17.896-26.939 29.014-46.952 29.014h-180.98c-4.143 0-7.5 3.358-7.5 7.5s3.357 7.5 7.5 7.5h180.98c25.73 0 48.862-14.295 60.368-37.306l13.42-26.84c1.163-2.325 1.038-5.086-.328-7.297zm-480.911-222.112c-5.519 3.932-10.139 3.421-13.862-1.533-2.163-4.174-1.155-7.933 3.023-11.277l19.87-11.47c1.14-.659 2.087-1.605 2.745-2.746l11.471-19.872c2.275-3.944 7.341-5.299 11.279-3.025 2.545 1.471 4.125 4.218 4.125 7.167-.289 2.47-1.154 4.701-2.593 6.694-5.257 9.087-3.742 20.631 3.69 28.081l11.023 11.017c-4.904 2.877-8.802 6.764-11.692 11.66l-11.005-11.005c-7.429-7.429-18.974-8.947-28.074-3.691z"/><path d="m392.286 291.356h-28c-23.435 0-42.5-19.065-42.5-42.5-.836-5.684-4.09-8.067-9.762-7.151-28.091 8.883-43.42 32.905-39.054 61.198 4.101 26.563 26.479 53.453 61.315 53.453h58c17.921 0 32.5-14.58 32.5-32.5s-14.578-32.5-32.499-32.5zm0 50h-58c-26.393 0-43.365-20.496-46.49-40.742-2.202-14.266 2.245-31.528 20.005-40.974 5.061 26.569 28.464 46.715 56.485 46.715h28c9.649 0 17.5 7.851 17.5 17.5s-7.85 17.501-17.5 17.501z"/><path d="m265.092 166.454c2.715 4.165 5.986 5.508 9.812 4.028 3.822-1.597 5.626-5.99 4.028-9.812-5.709-13.662-3.082-19.729.244-27.412 3.829-8.845 8.596-19.853-.319-39.761-1.693-3.781-6.129-5.474-9.91-3.78-3.78 1.693-5.473 6.13-3.779 9.91 6.215 13.88 3.71 19.665.243 27.672-3.782 8.735-8.489 19.605-.319 39.155z"/><path d="m187.789 140.748c2.715 4.165 5.986 5.508 9.812 4.028 3.822-1.597 5.626-5.99 4.028-9.812-5.709-13.662-3.082-19.729.244-27.412 3.829-8.845 8.596-19.853-.319-39.761-1.693-3.781-6.128-5.473-9.91-3.78-3.78 1.693-5.473 6.13-3.779 9.91 6.215 13.88 3.71 19.665.243 27.672-3.782 8.735-8.489 19.605-.319 39.155z"/><path d="m341.352 140.748c2.715 4.165 5.986 5.508 9.812 4.028 3.822-1.597 5.626-5.99 4.028-9.812-5.709-13.662-3.082-19.729.244-27.412 3.829-8.845 8.596-19.853-.319-39.761-1.692-3.781-6.129-5.473-9.91-3.78-3.78 1.693-5.473 6.13-3.779 9.91 6.215 13.88 3.71 19.665.243 27.672-3.782 8.735-8.489 19.605-.319 39.155z"/></g></g></svg>