<svg id="Capa_1" enable-background="new 0 0 512 512" height="512" viewBox="0 0 512 512" width="512" xmlns="http://www.w3.org/2000/svg"><g><g><path d="m481.36 314.121v190.379c-52.153 0-95.235-44.748-102.071-95.035l-147.397 79.377c-74.816 40.287-166.818-6.666-178.095-90.884l-22.943-238.89c-2.304-42.502 14.042-81.512 41.745-109.305 25.967-26.056 61.913-42.263 101.821-42.263 82.471 0 148.036 69.228 143.555 151.569l-15.12 184.759 118.807-65.394c26.996-14.51 59.698 5.05 59.698 35.687z" fill="#fece85"/><g fill="#fec165"><path d="m481.36 489.96v14.54c-52.153 0-95.235-44.748-102.071-95.035l35.459-19.092c4.063-2.187 9.109.086 10.117 4.589 7.378 32.947 31.152 79.319 56.495 94.998z"/><path d="m122.497 49.763c-27.703 27.793-44.05 66.803-41.744 109.306l22.943 238.89c7.235 54.069 47.752 92.78 95.634 102.899-66.704 14.21-135.852-30.618-145.532-102.899l-22.943-238.89c-2.305-42.503 14.041-81.513 41.744-109.306 25.967-26.056 61.913-42.263 101.821-42.263 8.513 0 16.855.738 24.949 2.155-29.849 5.21-56.444 19.61-76.872 40.108z"/><path d="m465.293 281.807-194.95 106.784c-10.592 5.802-23.384-2.514-22.379-14.55l173.698-95.607c14.97-8.044 31.696-5.619 43.631 3.373z"/></g></g><g><path d="m135.313 159.087c0-4.134-3.351-7.485-7.485-7.485s-7.485 3.351-7.485 7.485c0 4.118-3.35 7.468-7.468 7.468s-7.468-3.35-7.468-7.468c0-4.134-3.351-7.485-7.485-7.485s-7.485 3.351-7.485 7.485c0 12.372 10.065 22.438 22.438 22.438s22.438-10.066 22.438-22.438z"/><path d="m248.513 204.158c0 4.117-3.35 7.467-7.468 7.467-4.117 0-7.467-3.35-7.467-7.467 0-4.134-3.351-7.485-7.485-7.485s-7.485 3.351-7.485 7.485c0 12.372 10.065 22.437 22.437 22.437s22.438-10.065 22.438-22.437c0-4.134-3.351-7.485-7.485-7.485s-7.485 3.352-7.485 7.485z"/><path d="m195.104 99.017c0 4.118-3.35 7.468-7.468 7.468s-7.468-3.35-7.468-7.468c0-4.134-3.351-7.485-7.485-7.485s-7.485 3.351-7.485 7.485c0 12.372 10.065 22.438 22.438 22.438 12.372 0 22.438-10.065 22.438-22.438 0-4.134-3.351-7.485-7.485-7.485s-7.485 3.351-7.485 7.485z"/><path d="m138.878 284.997c12.372 0 22.438-10.065 22.438-22.438 0-4.134-3.351-7.485-7.485-7.485s-7.485 3.351-7.485 7.485c0 4.118-3.35 7.468-7.468 7.468-4.117 0-7.467-3.35-7.467-7.468 0-4.134-3.351-7.485-7.485-7.485s-7.485 3.351-7.485 7.485c0 12.373 10.066 22.438 22.437 22.438z"/><path d="m42.972 285.347c4.115-.396 7.13-4.052 6.735-8.167l-11.402-118.675c-2.043-38.472 12.379-76.179 39.583-103.471 25.747-25.835 60.026-40.064 96.525-40.064 37.814 0 72.958 15.12 98.959 42.574 32.362 34.17 40.888 78.632 35.219 123.929-.345 4.12 2.716 7.738 6.836 8.083 4.122.347 7.738-2.716 8.083-6.836 6.188-49.287-4.129-98.366-39.268-135.471-28.858-30.468-67.862-47.249-109.829-47.249-40.507 0-78.553 15.792-107.129 44.466-30.23 30.329-46.238 72.245-43.919 115.002.005.104.013.207.023.31l11.417 118.833c.372 3.872 3.631 6.77 7.442 6.77.239.001.482-.01.725-.034z"/><path d="m465.482 272.922c-14.634-8.748-32.337-9.151-47.356-1.079l-106.879 57.468 9.529-113.964c.344-4.12-2.716-7.738-6.836-8.083-4.122-.341-7.738 2.716-8.083 6.836l-10.349 123.768-52.408 29.668c-3.597 2.036-4.863 6.604-2.826 10.201 1.377 2.433 3.911 3.799 6.521 3.799 1.249 0 2.516-.313 3.681-.973l174.738-95.534c21.662-11.642 48.672 4.503 48.672 29.096v20.659c0 4.134 3.351 7.485 7.485 7.485s7.485-3.351 7.485-7.485v-20.659c0-17.051-8.738-32.453-23.374-41.203z"/><path d="m481.371 359.923c-4.134 0-7.485 3.351-7.485 7.485v129.284c-43.247-3.91-80.789-41.255-87.175-88.226-1.706-5.689-5.362-7.55-10.966-5.582l-147.406 79.382c-69.117 37.218-156.655-7.689-167.119-85.155l-8.39-87.306c-.396-4.114-4.048-7.129-8.167-6.735-4.115.396-7.13 4.052-6.735 8.167l8.403 87.446c8.846 88.458 112.914 137.791 189.105 96.763l138.354-74.507c5.227 22.67 17.195 43.781 34.354 60.306 20.595 19.833 46.6 30.755 73.225 30.755 4.134 0 7.485-3.351 7.485-7.485v-137.107c.002-4.134-3.349-7.485-7.483-7.485z"/></g></g></svg>