<svg id="Capa_1" enable-background="new 0 0 512 512" height="512" viewBox="0 0 512 512" width="512" xmlns="http://www.w3.org/2000/svg"><g><g><path d="m458.115 126.516h-404.23c-10.961 0-19.846-8.885-19.846-19.846 0-10.961 8.885-19.846 19.846-19.846h404.231c10.961 0 19.846 8.885 19.846 19.846-.001 10.961-8.886 19.846-19.847 19.846z" fill="#fd8087"/><path d="m477.966 106.669c0 5.487-2.223 10.449-5.815 14.031-3.592 3.592-8.554 5.815-14.031 5.815h-404.24c-10.955 0-19.846-8.881-19.846-19.846 0-3.612.972-7.006 2.669-9.923 3.423 5.934 9.834 9.923 17.177 9.923h404.24c5.477 0 10.439-2.223 14.031-5.815 1.22-1.221 2.282-2.6 3.146-4.108 1.696 2.917 2.669 6.311 2.669 9.923z" fill="#fe646f"/><path d="m131.095 236.034h-39.692v-169.055c0-10.961 8.885-19.846 19.846-19.846 10.961 0 19.846 8.885 19.846 19.846z" fill="#fef0ae"/><path d="m121.167 49.801c-5.934 3.423-9.923 9.834-9.923 17.177v169.057h-19.845v-169.058c0-10.955 8.891-19.846 19.846-19.846 3.611 0 7.005.973 9.922 2.67z" fill="#ffe177"/><path d="m170.786 236.034h-39.692v-169.055c0-10.961 8.885-19.846 19.846-19.846 10.961 0 19.846 8.885 19.846 19.846z" fill="#fef0ae"/><path d="m160.859 49.801c-5.934 3.423-9.923 9.834-9.923 17.177v169.057h-19.846v-169.058c0-10.955 8.891-19.846 19.846-19.846 3.612 0 7.006.973 9.923 2.67z" fill="#ffe177"/><path d="m210.478 236.034h-39.692v-169.055c0-10.961 8.885-19.846 19.846-19.846 10.961 0 19.846 8.885 19.846 19.846z" fill="#fef0ae"/><path d="m200.551 49.801c-5.934 3.423-9.923 9.834-9.923 17.177v169.057h-19.846v-169.058c0-10.955 8.891-19.846 19.846-19.846 3.612 0 7.005.973 9.923 2.67z" fill="#ffe177"/><path d="m458.115 47.133h-404.23c-10.961 0-19.846-8.885-19.846-19.846 0-10.961 8.885-19.846 19.846-19.846h404.231c10.961 0 19.846 8.885 19.846 19.846-.001 10.961-8.886 19.846-19.847 19.846z" fill="#fd8087"/><path d="m477.966 27.286c0 5.487-2.223 10.449-5.815 14.031-3.592 3.592-8.554 5.815-14.031 5.815h-404.24c-10.955 0-19.846-8.881-19.846-19.846 0-3.612.972-7.006 2.669-9.923 3.423 5.934 9.834 9.923 17.177 9.923h404.24c5.477 0 10.439-2.223 14.031-5.815 1.22-1.221 2.282-2.6 3.146-4.108 1.696 2.917 2.669 6.311 2.669 9.923z" fill="#fe646f"/><path d="m337.864 504.556h-163.728c-10.961 0-19.846-8.885-19.846-19.846 0-10.961 8.885-19.846 19.846-19.846h163.728c10.961 0 19.846 8.885 19.846 19.846 0 10.961-8.885 19.846-19.846 19.846z" fill="#c4e2ff"/><path d="m224.14 504.559h-50c-10.96 0-19.85-8.89-19.85-19.85 0-5.48 2.22-10.44 5.81-14.03 3.6-3.59 8.56-5.81 14.04-5.81h50c-5.48 0-10.44 2.22-14.04 5.81-3.59 3.59-5.81 8.55-5.81 14.03 0 10.96 8.89 19.85 19.85 19.85z" fill="#b3dafe"/><path d="m332.272 464.865h-152.544c-80.462 0-145.689-65.227-145.689-145.689v-53.142c0-16.569 13.431-30 30-30h383.922c16.569 0 30 13.431 30 30v53.142c0 80.461-65.227 145.689-145.689 145.689z" fill="#eaf6ff"/><path d="m410.966 442.311c-22.406 14.279-49.019 22.555-77.567 22.555h-154.798c-79.84 0-144.567-64.727-144.567-144.567v-54.497c0-16.442 13.336-29.769 29.769-29.769h21.553c-1.111 3.106-1.707 6.44-1.707 9.923v54.497c0 79.84 64.727 144.567 144.567 144.567h154.797c9.566 0 18.913-.932 27.953-2.709z" fill="#d8ecfe"/><path d="m108.506 381.524h-60.907c-8.702-18.586-13.565-39.334-13.565-61.224v-35.524h49.615v15.678c0 30.046 9.169 57.949 24.857 81.07z" fill="#fe646f"/><path d="m410.966 442.311c-22.406 14.279-49.019 22.555-77.567 22.555h-154.798c-57.95 0-107.941-34.105-130.992-83.343h-.01c-8.702-18.586-13.565-39.334-13.565-61.224v-35.524h49.615v15.678c0 30.047 9.169 57.95 24.857 81.07 25.998 38.322 69.917 63.497 119.71 63.497h154.797c9.566 0 18.913-.932 27.953-2.709z" fill="#d8ecfe"/><path d="m477.966 284.775v35.524c0 21.89-4.862 42.639-13.565 61.224h-416.802c-8.702-18.586-13.565-39.334-13.565-61.224v-35.524z" fill="#c4e2ff"/><path d="m108.506 381.524h-60.907c-8.702-18.586-13.565-39.334-13.565-61.224v-35.524h49.615v15.678c0 30.046 9.169 57.949 24.857 81.07z" fill="#b3dafe"/></g><path d="m448.192 228.593h-230.272v-94.635h149.266c4.11 0 7.442-3.332 7.442-7.442s-3.332-7.442-7.442-7.442h-149.266v-24.808h240.2c6.839 0 12.404 5.564 12.404 12.404-.712 7.557-4.846 11.692-12.404 12.404h-58.495c-4.11 0-7.442 3.332-7.442 7.442s3.332 7.442 7.442 7.442h58.495c16.627-1.562 25.723-10.658 27.288-27.288 0-15.047-12.241-27.288-27.288-27.288h-240.2v-12.402c0-4.465-1.085-8.679-2.994-12.404h243.189c15.047 0 27.288-12.241 27.288-27.288s-12.241-27.288-27.288-27.288h-404.23c-15.047 0-27.288 12.242-27.288 27.288s12.241 27.288 27.288 27.288h33.065c-1.909 3.724-2.994 7.938-2.994 12.402v12.404h-30.076c-16.628 1.564-25.724 10.66-27.288 27.288 0 15.047 12.241 27.288 27.288 27.288h30.076v26.296c0 4.11 3.332 7.442 7.442 7.442s7.442-3.332 7.442-7.442v-93.276c0-6.83 5.549-12.386 12.375-12.402h.059c3.299.008 6.401 1.296 8.739 3.634 2.344 2.345 3.635 5.459 3.635 8.768v161.615h-24.807v-35.901c0-4.11-3.332-7.442-7.442-7.442s-7.442 3.332-7.442 7.442v35.901h-20.149c-20.518 0-37.211 16.693-37.211 37.211v54.496c0 72.22 53.466 136.559 124.677 149.542-11.687 17.905 1.669 42.158 22.862 42.158h163.728c21.193 0 34.549-24.253 22.863-42.158 71.143-12.97 124.677-77.363 124.677-149.542v-54.496c-.001-20.519-16.693-37.211-37.212-37.211zm-364.235-109.52h-30.077c-6.839 0-12.404-5.564-12.404-12.404.712-7.557 4.847-11.691 12.404-12.404h30.076v24.808zm119.079 109.52h-24.807v-161.613c0-6.839 5.564-12.404 12.404-12.404s12.404 5.564 12.404 12.404v161.613zm-149.151-188.901c-6.839 0-12.404-5.564-12.404-12.404s5.564-12.404 12.404-12.404h404.231c6.839 0 12.404 5.565 12.404 12.404s-5.564 12.403-12.404 12.403h-404.231zm84.652 27.288c0-6.839 5.564-12.404 12.404-12.404s12.404 5.564 12.404 12.404v161.613h-24.807v-161.613zm199.327 430.136h-163.728c-16.033 0-16.034-24.807 0-24.807h163.728c16.034-.001 16.034 24.807 0 24.807zm132.655-176.816c0 19.08-3.922 37.26-10.994 53.783h-141.745c-4.11 0-7.442 3.332-7.442 7.442s3.332 7.442 7.442 7.442h134.269c-23.759 40.897-68.047 68.457-118.654 68.457h-154.79c-50.607 0-94.895-27.56-118.654-68.457h225.401c4.11 0 7.442-3.332 7.442-7.442s-3.332-7.442-7.442-7.442h-232.877c-7.072-16.523-10.994-34.703-10.994-53.783v-28.084h429.038zm0-42.968h-429.038v-11.528c0-12.311 10.015-22.327 22.327-22.327h384.385c12.311 0 22.327 10.015 22.327 22.327v11.528z"/></g></svg>