<svg id="Capa_1" enable-background="new 0 0 512 512" height="512" viewBox="0 0 512 512" width="512" xmlns="http://www.w3.org/2000/svg"><g><g><path d="m504.5 277.205c0 61.22-111.26 68.46-248.5 68.46s-248.5-7.24-248.5-68.46c0-38.25 43.41-71.97 109.45-91.91 12.25-3.69 25.27-6.91 38.94-9.59 22.96-4.52 47.75-7.53 73.73-8.75 8.67-.41 17.47-.62 26.38-.62 5.58 0 11.11.08 16.6.24 28.23.83 55.17 3.77 80.04 8.45v.01c16.25 3.06 31.61 6.87 45.88 11.33v.01c64.09 20.05 105.98 53.26 105.98 90.83z" fill="#fece85"/><path d="m281 345.565c-8.22.07-16.56.1-25 .1-137.24 0-248.5-7.24-248.5-68.46 0-38.25 43.41-71.97 109.45-91.91 12.25-3.69 25.27-6.91 38.94-9.59 22.96-4.52 47.75-7.53 73.73-8.75 8.67-.41 17.47-.62 26.38-.62 5.58 0 11.11.08 16.6.24 2.84.08 5.66.19 8.47.32-.49.02-.97.04-1.45.06-25.98 1.22-50.77 4.23-73.73 8.75-13.67 2.68-26.69 5.9-38.94 9.59-66.04 19.94-109.45 53.66-109.45 91.91 0 57.46 98 67.37 223.5 68.36z" fill="#fec165"/><g><path d="m268.86 264.485c-3.4 7.26-10.6 11.52-18.12 11.52-2.84 0-5.73-.61-8.47-1.89-10.01-4.69-14.32-16.59-9.63-26.6 11.46-24.46 11.46-48.24 0-72.7l-3.02-7.86c8.67-.41 17.47-.62 26.38-.62 5.58 0 11.11.08 16.6.24 12.72 32.54 11.47 65.43-3.74 97.91z" fill="#dc8758"/></g><g><g><path d="m148.96 264.485c-3.4 7.26-10.61 11.52-18.13 11.52-2.84 0-5.72-.61-8.47-1.89-10-4.69-14.31-16.59-9.62-26.6 9.81-20.95 11.21-41.41 4.21-62.22 12.25-3.69 25.27-6.91 38.94-9.59 9.17 29.56 6.86 59.34-6.93 88.78z" fill="#dc8758"/></g><g><path d="m388.76 264.485c-3.4 7.26-10.6 11.52-18.12 11.52-2.84 0-5.73-.61-8.47-1.89-10-4.69-14.31-16.59-9.63-26.6 11.43-24.39 11.46-48.09.1-72.48 16.25 3.06 31.61 6.87 45.88 11.33v.01c5.63 26.04 2.38 52.21-9.76 78.11z" fill="#dc8758"/></g></g></g><g><path d="m475.124 215.35c-3.296-2.51-8.002-1.873-10.511 1.422-2.51 3.295-1.873 8.001 1.423 10.511 14.125 10.759 30.964 28.163 30.964 49.984 0 15.362-6.928 37.244-66.829 49.848-46.411 9.766-111.138 11.112-174.171 11.112-33.953 0-60.577-.465-83.788-1.463-4.14-.178-7.637 3.033-7.815 7.171s3.033 7.637 7.171 7.815c23.431 1.008 50.26 1.477 84.432 1.477 63.844 0 129.506-1.385 177.26-11.433 52.984-11.149 78.74-32.256 78.74-64.527 0-22.133-12.751-43.543-36.876-61.917z"/><path d="m165.277 181.604c18.907-3.359 38.791-5.657 59.285-6.818 8.149 25.243 13.223 44.132 1.287 69.609-3.118 6.655-3.458 14.124-.958 21.03 2.5 6.905 7.542 12.425 14.204 15.546 12.88 6.019 30.478-.264 36.558-13.243 4.437-9.471 7.794-19.146 9.981-28.757.919-4.039-1.61-8.058-5.649-8.977-4.044-.921-8.059 1.61-8.978 5.649-1.949 8.567-4.956 17.222-8.938 25.723-4.71 6.745-10.248 8.752-16.616 6.02-6.602-3.878-8.609-9.42-6.021-16.626 12.081-25.786 12.451-50.878 1.1-76.642 8.931-.257 17.862-.289 26.793-.097 3.583 10.34 5.694 20.756 6.277 31.031 1.661 4.913 4.299 7.267 7.913 7.063 4.136-.234 7.298-3.777 7.063-7.913-.558-9.836-2.348-19.757-5.314-29.614 22.111 1.111 43.696 3.556 64.143 7.227 8.76 21.006 8.212 41.517-1.661 62.585-6.419 13.729-.479 30.132 13.249 36.571 12.878 6.017 30.479-.262 36.556-13.242 10.866-23.182 14.983-46.756 12.345-70.252 9.481 3.348 18.437 7.019 26.754 11.003 3.732 1.788 8.214.212 10.004-3.524 1.789-3.736.211-8.215-3.525-10.004-44.628-21.375-103.799-33.912-168.093-35.798-14.083-.821-28.434-.128-42.527.31-57.802 2.58-111.489 13.911-153.28 32.557-49.802 22.22-77.229 52.494-77.229 85.246 0 23.181 13.773 41.004 40.937 52.977 22.073 9.729 54.024 16.121 97.678 19.541 3.641.284 6.328-2.013 8.063-6.891.324-4.129-2.762-7.74-6.891-8.063-85.136-6.671-124.787-24.962-124.787-57.564 0-26.092 24.909-52.17 68.341-71.547 8.953-3.994 18.493-7.635 28.524-10.915 3.906 16.497 1.951 32.79-5.916 49.59-6.433 13.729-.5 30.135 13.246 36.581 12.884 5.998 30.474-.258 36.558-13.248 13.329-28.458 16.517-57.391 9.524-86.124zm216.691 79.763c-4.709 6.744-10.247 8.75-16.613 6.02-6.239-2.926-8.94-10.388-6.023-16.626 10.338-22.061 12.093-43.614 5.282-65.508 9.46 2.088 18.619 4.448 27.411 7.068 4.035 22.97.663 46.176-10.057 69.046zm-239.8-.001c-4.713 6.744-10.254 8.751-16.624 6.02-6.24-2.926-8.938-10.385-6.012-16.629 9.526-20.345 11.726-40.151 6.699-60.309 7.854-2.202 15.967-4.193 24.301-5.97 6.368 25.58 3.569 51.413-8.364 76.888z"/></g></g></svg>