<svg id="Capa_1" enable-background="new 0 0 512 512" height="512" viewBox="0 0 512 512" width="512" xmlns="http://www.w3.org/2000/svg"><g><g><path d="m480.86 94.861-22.43 44.87-17.91 35.82-69.76 139.51-44.71 89.42-41.05 82.1c-11.95 23.89-46.05 23.89-58 0l-22.68-45.36-44.35-88.69-88.49-176.98-17.91-35.82-22.43-44.87c-7.57-15.14-1.09-33.46 14.23-40.64 63.96-29.97 135.34-46.72 210.63-46.72s146.67 16.75 210.63 46.72c15.32 7.18 21.8 25.5 14.23 40.64z" fill="#fef0ae"/><path d="m277 486.581c1.14 2.28 2.49 4.35 4 6.2-14.27 17.47-43.19 15.4-54-6.2l-22.68-45.36-44.35-88.69-88.49-176.98-17.91-35.82-22.43-44.87c-7.57-15.14-1.09-33.46 14.23-40.64 63.96-29.97 135.34-46.72 210.63-46.72 8.38 0 16.72.21 25 .62-66.09 3.27-128.79 19.47-185.63 46.1-15.32 7.18-21.8 25.5-14.23 40.64l22.43 44.87 17.91 35.82 88.49 176.98 44.35 88.69z" fill="#ffe177"/><path d="m236.57 405.711v.01c-4 16.6-16.29 29.97-32.25 35.5l-44.35-88.69 47.74-4.51 2.26 4.51z" fill="#fe646f"/><path d="m458.43 139.731-17.91 35.82c-55.72-31.37-118.84-48.05-184.52-48.05s-128.8 16.68-184.52 48.05l-17.91-35.82c61.22-34.1 130.43-52.23 202.43-52.23s141.21 18.13 202.43 52.23z" fill="#fec165"/><path d="m111.7 155.991c-13.77 5.69-27.2 12.22-40.22 19.56l-17.91-35.82c13.05-7.27 26.47-13.82 40.2-19.61l9.8 19.61z" fill="#ffe177"/><path d="m111.7 155.991c-13.77 5.69-27.2 12.22-40.22 19.56l-17.91-35.82c13.05-7.27 26.47-13.82 40.2-19.61l9.8 19.61z" fill="#fdb441"/><path d="m480.86 94.861-22.43 44.87c-61.22-34.1-130.43-52.23-202.43-52.23s-141.21 18.13-202.43 52.23l-22.43-44.87c-7.57-15.14-1.09-33.46 14.23-40.64 63.96-29.97 135.34-46.72 210.63-46.72s146.67 16.75 210.63 46.72c15.32 7.18 21.8 25.5 14.23 40.64z" fill="#fece85"/><path d="m81.14 94.861 12.63 25.26c-13.73 5.79-27.15 12.34-40.2 19.61l-22.43-44.87c-7.57-15.14-1.09-33.46 14.23-40.64 63.96-29.97 135.34-46.72 210.63-46.72 8.37 0 16.7.21 24.97.62-66.08 3.27-128.77 19.47-185.6 46.1-15.32 7.18-21.8 25.5-14.23 40.64z" fill="#e19974"/><path d="m81.14 94.861 12.63 25.26c-13.73 5.79-27.15 12.34-40.2 19.61l-22.43-44.87c-7.57-15.14-1.09-33.46 14.23-40.64 63.96-29.97 135.34-46.72 210.63-46.72 8.37 0 16.7.21 24.97.62-66.08 3.27-128.77 19.47-185.6 46.1-15.32 7.18-21.8 25.5-14.23 40.64z" fill="#fec165"/><path d="m237.96 393.961c0 21.88-14.06 40.48-33.64 47.26l-44.35-88.69c7.99-5.41 17.62-8.57 27.99-8.57 27.62 0 50 22.38 50 50z" fill="#fd8087"/><path d="m236.57 405.711v.01c-4 16.6-16.29 29.97-32.25 35.5l-44.35-88.69c7.99-5.41 17.62-8.57 27.99-8.57 7.02 0 13.7 1.45 19.75 4.06l2.26 4.51z" fill="#fe646f"/><path d="m370.76 315.061-44.71 89.42c-17.07-7.95-28.9-25.26-28.9-45.34 0-27.61 22.38-50 50-50 8.54 0 16.58 2.14 23.61 5.92z" fill="#fd8087"/><path d="m357.227 239.813c-12.257-5.152-20-15.684-20-27.204v-5.591c0-11.52 7.743-22.052 20-27.204 12.257 5.152 20 15.684 20 27.204v5.591c0 11.52-7.743 22.052-20 27.204z" fill="#57be92"/><circle cx="252.363" cy="259.813" fill="#fd8087" r="50"/><path d="m267.37 307.521c-4.74 1.49-9.78 2.29-15.01 2.29-27.61 0-50-22.38-50-50 0-27.61 22.39-50 50-50 5.23 0 10.27.8 15.01 2.29-20.29 6.37-35.01 25.32-35.01 47.71s14.72 41.34 35.01 47.71z" fill="#fe646f"/><path d="m127.374 217.36c-2.991-12.955 1.023-25.396 10.367-32.134l4.535-3.27c9.344-6.738 22.415-6.618 33.764.31 2.991 12.955-1.023 25.396-10.367 32.134l-4.535 3.27c-9.345 6.739-22.416 6.619-33.764-.31z" fill="#57be92"/></g><g><path d="m309.411 260.108c0-31.742-25.823-57.566-57.566-57.566s-57.566 25.824-57.566 57.566 25.823 57.566 57.566 57.566 57.566-25.824 57.566-57.566zm-100.114 0c0-23.461 19.087-42.549 42.549-42.549s42.549 19.087 42.549 42.549-19.087 42.549-42.549 42.549-42.549-19.087-42.549-42.549z"/><path d="m359.738 247.008c14.989-6.212 24.622-19.694 24.622-34.157v-5.598c0-14.463-9.664-27.871-24.622-34.158-1.862-.782-3.958-.782-5.819 0-14.957 6.287-24.622 19.695-24.622 34.158v5.598c0 14.463 9.679 27.835 24.622 34.157 2.224.94 3.851.815 5.819 0zm-15.424-34.158v-5.598c0-7.624 4.72-14.651 12.514-18.914 7.794 4.263 12.514 11.29 12.514 18.914v5.598c0 7.624-4.72 14.651-12.514 18.913-7.793-4.262-12.514-11.289-12.514-18.913z"/><path d="m122.801 224.016c6.922 4.226 14.512 6.339 21.839 6.339 7.332 0 14.4-2.116 20.267-6.347l4.54-3.274c11.73-8.459 16.952-24.14 13.303-39.949-.454-1.967-1.681-3.668-3.403-4.72-13.85-8.455-30.378-8.452-42.107.008l-4.54 3.274c-11.731 8.459-16.954 24.141-13.303 39.95.454 1.966 1.681 3.667 3.404 4.719zm18.683-32.489 4.54-3.274c6.185-4.46 14.645-4.74 22.661-.912 1.101 8.815-1.837 16.753-8.021 21.213l-4.54 3.274c-6.185 4.46-14.645 4.741-22.661.912-1.101-8.815 1.838-16.754 8.021-21.213z"/><path d="m469.544 47.484c-14.982-6.066-29.828-13.099-45.157-18.539-3.904-1.386-8.2.657-9.587 4.565-1.386 3.908.657 8.201 4.566 9.588 14.87 5.277 29.608 11.327 43.805 17.984 12.175 7.182 15.747 17.359 10.717 30.529l-18.983 37.972c-72.844-38.78-157.195-55.33-239.314-47.647-4.129.386-7.162 4.047-6.776 8.175.387 4.128 4.027 7.17 8.176 6.776 79.304-7.42 160.885 8.609 231.197 46.129l-11.202 22.404c-112.008-59.99-250.988-59.99-362.996-.002l-11.2-22.4c38.173-20.393 79.194-34.481 122.052-41.884 4.087-.706 6.827-4.591 6.121-8.677-.706-4.087-4.594-6.828-8.677-6.121-44.309 7.653-86.728 22.197-126.216 43.243l-18.985-37.969c-5.03-13.17-1.457-23.347 10.717-30.529 65.231-30.566 135.106-46.064 207.684-46.064 44.705 0 88.998 6.021 131.648 17.895 3.996 1.113 8.135-1.224 9.248-5.219 1.112-3.995-1.225-8.135-5.22-9.247-43.96-12.24-89.609-18.446-135.675-18.446-74.798 0-146.817 15.976-214.057 47.483-18.907 8.861-27.134 32.127-17.776 50.843l76.237 152.476c2.896 3.978 6.254 5.097 10.074 3.357 3.709-1.855 5.212-6.366 3.357-10.074l-32.614-65.228c107.804-57.901 241.757-57.9 349.561.002l-63.39 126.776c-36.689-13.677-77.703 14.636-77.703 53.917 0 19.698 10.198 37.979 26.51 48.465l-37.882 75.761c-9.054 18.102-35.58 18.103-44.635.001l-19.165-38.331c18.79-9.808 30.931-29.383 30.931-51.037 0-41.624-45.162-69.809-82.417-51.934l-32.837-65.674c-1.853-3.709-6.363-5.212-10.074-3.358-3.708 1.854-5.212 6.365-3.357 10.074l103.488 206.978c14.277 28.541 57.089 28.805 71.498-.001l196.084-392.17c11.444-20.572 1.766-42.931-17.776-50.842zm-282.175 304.378c43.4 0 57.976 59.989 19.92 80.156l-38.052-76.104c5.636-2.663 11.801-4.052 18.132-4.052zm116.824 7.689c0-28.143 29.362-49.154 55.92-40.386l-37.65 75.297c-11.275-7.87-18.27-20.898-18.27-34.911z"/></g></g></svg>