<svg id="Capa_1" enable-background="new 0 0 512 512" height="512" viewBox="0 0 512 512" width="512" xmlns="http://www.w3.org/2000/svg"><g><path d="m24.017 313.259-13.845-43.982c-4.138-13.677-.303-28.521 9.943-38.482l24.038-23.369c4.949-4.812 8.504-10.874 10.286-17.543l8.503-31.821c3.523-13.185 13.807-23.492 26.984-27.044l35.832-9.659c6.284-1.694 12.032-4.964 16.698-9.501l26.156-25.428c9.351-9.091 22.691-12.788 35.387-9.807l37.497 8.804c6.159 1.446 12.58 1.341 18.689-.305l37.19-10.025c12.592-3.394 26.046-.136 35.689 8.645l26.973 24.559c4.812 4.382 10.664 7.462 17 8.95l36.129 8.483c13.286 3.119 23.901 13.085 27.853 26.147l9.538 31.526c1.999 6.607 5.749 12.55 10.853 17.197l30.395 22.571c10.566 9.621 14.884 24.331 11.196 38.136l-17.085 46.964z" fill="#57be92"/><g fill="#22b27f"><path d="m234.83 174.681c0 44.18-35.95 80.12-80.13 80.12s-80.13-35.94-80.13-80.12c0-15.69 4.54-30.35 12.37-42.72.98-.36 1.97-.67 2.98-.94l35.84-9.66c6.28-1.7 12.03-4.97 16.7-9.5l17.62-17.13c41.68 2.77 74.75 37.57 74.75 79.95z"/><path d="m422.53 168.521c0 44.18-35.95 80.12-80.13 80.12s-80.12-35.94-80.12-80.12c0-42.81 33.73-77.88 76-80.03l21.76 19.81c4.81 4.38 10.66 7.46 17 8.95l32.54 7.64c8.19 12.56 12.95 27.55 12.95 43.63z"/><path d="m234.83 174.681c0 44.18-35.95 80.12-80.13 80.12s-80.13-35.94-80.13-80.12c0-15.69 4.54-30.35 12.37-42.72.98-.36 1.97-.67 2.98-.94l35.84-9.66c6.28-1.7 12.03-4.97 16.7-9.5l17.62-17.13c41.68 2.77 74.75 37.57 74.75 79.95z"/><path d="m422.53 168.521c0 44.18-35.95 80.12-80.13 80.12s-80.12-35.94-80.12-80.12c0-42.81 33.73-77.88 76-80.03l21.76 19.81c4.81 4.38 10.66 7.46 17 8.95l32.54 7.64c8.19 12.56 12.95 27.55 12.95 43.63z"/><path d="m204 76.621 7.17 1.68c-4.61 1.83-8.89 4.56-12.56 8.13l-26.15 25.43c-4.67 4.53-10.42 7.8-16.7 9.5l-35.84 9.66c-13.17 3.55-23.46 13.86-26.98 27.04l-8.5 31.82c-1.78 6.67-5.34 12.73-10.29 17.55l-24.04 23.36c-10.24 9.97-14.08 24.81-9.94 38.49l13.75 43.66-29.9.32-13.85-43.98c-4.14-13.68-.3-28.52 9.94-38.49l24.04-23.36c4.95-4.82 8.51-10.88 10.29-17.55l8.5-31.82c3.52-13.18 13.81-23.49 26.98-27.04l35.84-9.66c6.28-1.7 12.03-4.97 16.7-9.5l26.15-25.43c9.35-9.09 22.69-12.79 35.39-9.81z"/></g><circle cx="154.702" cy="174.677" fill="#fd8087" r="60.127"/><path d="m169.7 232.921c-4.8 1.23-9.82 1.88-15 1.88-33.21 0-60.13-26.92-60.13-60.12 0-33.21 26.92-60.13 60.13-60.13 5.18 0 10.2.65 15 1.88-25.95 6.67-45.13 30.22-45.13 58.25 0 28.02 19.18 51.57 45.13 58.24z" fill="#fe646f"/><circle cx="342.403" cy="168.517" fill="#fd8087" r="60.127"/><path d="m357.4 226.761c-4.8 1.23-9.82 1.88-15 1.88-33.2 0-60.12-26.92-60.12-60.12 0-33.21 26.92-60.13 60.12-60.13 5.18 0 10.2.65 15 1.88-25.95 6.67-45.12 30.22-45.12 58.25 0 28.02 19.17 51.57 45.12 58.24z" fill="#fe646f"/><path d="m465.395 438.219h-418.79c-21.597 0-39.105-17.508-39.105-39.105 0-127.355 103.241-230.596 230.596-230.596h35.807c127.355 0 230.596 103.241 230.596 230.596.001 21.597-17.507 39.105-39.104 39.105z" fill="#fef0ae"/><path d="m125.04 236.061c-41.73 41.73-67.54 99.37-67.54 163.05 0 21.6 17.51 39.11 39.11 39.11h-50c-21.6 0-39.11-17.51-39.11-39.11 0-63.68 25.81-121.32 67.54-163.05s99.38-67.54 163.06-67.54h35.8c2.38 0 4.74.04 7.1.11-60.86 1.84-115.79 27.26-155.96 67.43z" fill="#ffe177"/><g><path d="m494.004 307.978 16.044-44.095c.075-.206.141-.415.197-.627 4.435-16.58-.699-34.058-13.397-45.614-.184-.167-.375-.325-.575-.473l-30.074-22.346c-3.973-3.698-6.895-8.383-8.46-13.576l-9.54-31.529c-4.709-15.575-17.479-27.561-33.324-31.281l-36.118-8.48c-5.084-1.195-9.81-3.682-13.667-7.195l-26.98-24.558c-11.593-10.558-27.557-14.42-42.69-10.337l-34.42 9.27c-4 1.077-6.369 5.192-5.292 9.192s5.197 6.368 9.192 5.292l34.424-9.271c10.171-2.745 20.897-.15 28.687 6.945l12.792 11.644c-34.032.796-61.919 26.845-65.598 60.105-17.971-.096-36.218-.684-54.154.6-2.73-13.985-9.813-26.778-20.417-36.594-11.705-10.835-26.707-17.121-42.559-17.904l15.764-15.33c7.554-7.345 18.188-10.293 28.445-7.886l26.26 6.17c4.028.943 8.069-1.553 9.017-5.586.948-4.032-1.553-8.069-5.585-9.017l-26.263-6.17c-15.264-3.581-31.089.805-42.331 11.735l-26.144 25.424c-3.867 3.689-8.344 6.236-13.431 7.642l-35.84 9.66c-15.71 4.235-28.076 16.63-32.273 32.346l-8.5 31.822c-1.428 5.349-4.29 10.229-8.271 14.105l-24.046 23.365c-12.3 11.975-16.855 29.615-11.86 46.116l13.049 41.438c-10.584 27.263-16.066 56.385-16.066 86.139 0 25.701 20.909 46.61 46.61 46.61h339.58c4.143 0 7.5-3.358 7.5-7.5s-3.357-7.5-7.5-7.5h-339.58c-17.43 0-31.61-14.18-31.61-31.61 0-44.334 12.976-87.168 37.524-123.87 2.303-3.443 1.378-8.101-2.064-10.404-3.443-2.303-8.101-1.379-10.404 2.064-5.474 8.185-10.401 16.658-14.784 25.369l-7.923-25.161c-3.34-11.035-.276-22.892 7.988-30.939l24.046-23.366c5.925-5.769 10.179-13.027 12.304-20.987l8.5-31.821c3.59-13.443 15.816-21.606 28.851-23.665-7.538 10.907-11.967 24.118-11.967 38.35 0 11.87 3.044 23.293 8.846 33.444-10.095 7.526-19.881 16.048-28.637 25.131-2.874 2.982-2.787 7.73.195 10.604 2.985 2.875 7.731 2.788 10.605-.195 41.659-42.991 100.152-67.645 160.02-67.645h35.8c123.018 0 223.1 100.078 223.1 223.09 0 17.247-14.365 31.61-31.61 31.61h-46.52c-4.143 0-7.5 3.358-7.5 7.5s3.357 7.5 7.5 7.5h46.52c25.43 0 46.61-21.179 46.61-46.61 0-31.789-6.189-62.628-17.996-91.14zm-376.745-114.048c-3.027 1.787-6.02 3.646-8.973 5.572-13.715-25.529-2.347-59.925 23.943-72.393 1.161-.448 2.309-.93 3.429-1.47 29.109-11.341 63.568 7.141 70.395 37.552-31.301 4.238-61.527 14.654-88.794 30.739zm225.141-78.031c29.021 0 52.63 23.61 52.63 52.63 0 7.885-1.749 15.571-5.09 22.58-30.412-17.024-64.295-27.133-99.689-29.518 3.408-25.751 25.487-45.692 52.149-45.692zm60.436 82.983c4.721-9.368 7.194-19.724 7.194-30.354 0-14.38-4.525-27.716-12.207-38.687 14.854 1.095 31.396 8.936 36.018 24.219l9.538 31.523c2.022 6.705 7.494 16.541 13.559 21.045l30.073 22.346c8.267 7.694 11.63 19.171 8.823 30.105l-10.817 29.729c-18.954-36.167-47.885-67.747-82.181-89.926z"/><path d="m88.45 370.442c-4.143 0-7.5 3.358-7.5 7.5s3.357 7.5 7.5 7.5c15.163 0 27.5-12.336 27.5-27.5s-12.337-27.5-27.5-27.5c-4.143 0-7.5 3.358-7.5 7.5s3.357 7.5 7.5 7.5c6.893 0 12.5 5.607 12.5 12.5s-5.607 12.5-12.5 12.5z"/><path d="m258.063 370.442c-4.143 0-7.5 3.358-7.5 7.5s3.357 7.5 7.5 7.5c15.163 0 27.5-12.336 27.5-27.5s-12.337-27.5-27.5-27.5c-4.143 0-7.5 3.358-7.5 7.5s3.357 7.5 7.5 7.5c6.893 0 12.5 5.607 12.5 12.5s-5.608 12.5-12.5 12.5z"/><path d="m174.217 273.972c-4.143 0-7.5 3.358-7.5 7.5s3.357 7.5 7.5 7.5c15.163 0 27.5-12.336 27.5-27.5s-12.337-27.5-27.5-27.5c-4.143 0-7.5 3.358-7.5 7.5s3.357 7.5 7.5 7.5c6.893 0 12.5 5.607 12.5 12.5s-5.608 12.5-12.5 12.5z"/><path d="m342.402 304.62c-4.143 0-7.5 3.358-7.5 7.5s3.357 7.5 7.5 7.5c15.163 0 27.5-12.336 27.5-27.5s-12.337-27.5-27.5-27.5c-4.143 0-7.5 3.358-7.5 7.5s3.357 7.5 7.5 7.5c6.893 0 12.5 5.607 12.5 12.5s-5.607 12.5-12.5 12.5z"/></g><path d="m186.091 362.287c-4.142 0-7.5-3.358-7.5-7.5 0-4.142 3.358-7.5 7.5-7.5 4.142 0 7.5 3.358 7.5 7.5 0 4.142-3.358 7.5-7.5 7.5z"/><path d="m354.903 385.442c-4.142 0-7.5-3.358-7.5-7.5 0-4.142 3.358-7.5 7.5-7.5 4.142 0 7.5 3.358 7.5 7.5 0 4.142-3.358 7.5-7.5 7.5z"/><path d="m275.091 259.939c-4.142 0-7.5-3.358-7.5-7.5 0-4.142 3.358-7.5 7.5-7.5 4.142 0 7.5 3.358 7.5 7.5 0 4.142-3.358 7.5-7.5 7.5z"/><path d="m423.55 327.12c-4.142 0-7.5-3.358-7.5-7.5 0-4.142 3.358-7.5 7.5-7.5 4.142 0 7.5 3.358 7.5 7.5 0 4.142-3.358 7.5-7.5 7.5z"/></g></svg>