<svg id="Capa_1" enable-background="new 0 0 512 512" height="512" viewBox="0 0 512 512" width="512" xmlns="http://www.w3.org/2000/svg"><g><g><g><g fill="#fece85"><path d="m44.136 366.478h60v60h-60z"/><path d="m407.864 366.478h60v60h-60z"/></g></g><g><g fill="#fec165"><path d="m44.14 366.48h30v60h-30z"/><path d="m407.86 366.48h30v60h-30z"/></g></g><path d="m414.67 235.69v24.48c0 36.62-29.69 66.31-66.32 66.31h-184.54c-36.62 0-66.31-29.69-66.31-66.31v-27.1c.02-59.31 48.27-107.55 107.58-107.55h101.84c59.32 0 107.58 48.26 107.58 107.58 0 .88.06 1.74.17 2.59z" fill="#fef7ed"/><path d="m213.81 326.48h-50c-36.62 0-66.31-29.69-66.31-66.31v-27.1c.02-59.31 48.27-107.55 107.58-107.55h50c-59.31 0-107.56 48.24-107.58 107.55v27.1c0 36.62 29.69 66.31 66.31 66.31z" fill="#fff0dc"/><g><path d="m434.5 253.105c-11.046 0-20-8.954-20-20 0-59.321-48.262-107.583-107.583-107.583h-101.834c-59.321 0-107.583 48.261-107.583 107.583 0 11.046-8.954 20-20 20s-20-8.954-20-20c0-81.377 66.206-147.583 147.583-147.583h101.834c81.377 0 147.583 66.205 147.583 147.583 0 11.046-8.954 20-20 20z" fill="#fd8087"/></g><path d="m217 85.522h78v240.956h-78z" fill="#57be92"/><path d="m217 85.52h40v240.96h-40z" fill="#22b27f"/><path d="m7.5 326.478h497v40h-497z" fill="#fece85"/><path d="m7.5 326.48h50v40h-50z" fill="#fec165"/></g><path d="m504.5 318.981h-111.609c19.274-14.629 29.065-37.551 29.279-61.31 17.899 9.019 39.83-4.42 39.83-24.57 0-28.523-7.844-56.417-22.683-80.665-2.162-3.533-6.779-4.645-10.312-2.482-3.533 2.162-4.644 6.779-2.482 10.312.774 1.265 1.522 2.544 2.254 3.83l-21.354 13.004c-8.577-15.333-20.559-28.51-34.917-38.505l15.057-19.955c4.834 3.417 9.481 7.149 13.899 11.199 3.054 2.799 7.798 2.593 10.597-.461 2.799-3.053 2.592-7.798-.461-10.597-28.676-26.285-65.851-40.761-104.678-40.761h-101.84c-85.511.001-155.08 69.57-155.08 155.081 0 20.226 22.085 33.667 40 24.482-.125 23.694 10.192 46.912 29.276 61.397h-111.776c-4.142 0-7.5 3.358-7.5 7.5v40c0 4.142 3.358 7.5 7.5 7.5h29.136v52.498c0 4.142 3.358 7.5 7.5 7.5h60c4.142 0 7.5-3.358 7.5-7.5v-52.498h221.714c4.142 0 7.5-3.358 7.5-7.5s-3.358-7.5-7.5-7.5h-318.35v-25h482v25h-130.96c-4.142 0-7.5 3.358-7.5 7.5s3.358 7.5 7.5 7.5h34.324v52.498c0 4.142 3.358 7.5 7.5 7.5h60c4.142 0 7.5-3.358 7.5-7.5v-52.498h29.136c4.142 0 7.5-3.358 7.5-7.5v-40c0-4.141-3.358-7.499-7.5-7.499zm-68.999-141.416c7.557 17.441 11.499 36.329 11.499 55.536 0 16.158-25 16.158-25 0 0-14.961-2.872-29.264-8.09-42.388zm-133.001-84.544c25.175-.639 50.296 5.34 72.325 17.598l-15.23 20.184c-17.579-9.089-37.336-13.374-57.094-12.782v-25zm0 40c55.859-1.035 104.5 43.116 104.5 100.08 0 1.023.17 27.068.17 27.068 0 32.428-26.387 58.81-58.82 58.81h-45.85zm-97.42-40h4.42v25c-19.415-.579-38.833 3.543-56.185 12.32l-15.255-20.217c19.919-10.899 42.758-17.103 67.02-17.103zm-79.824 25.038 15.064 19.964c-14.466 9.884-26.571 22.979-35.281 38.252l-21.357-13.006c10.37-17.958 24.613-33.406 41.574-45.21zm-35.256 115.042c0 16.158-25 16.158-25 0 0-20.061 4.247-39.145 11.876-56.415l21.577 13.14c-5.444 13.367-8.453 27.975-8.453 43.275zm15 27.068v-27.068c0-57.008 48.555-100.855 104.5-100.08v83.7c0 4.142 3.358 7.5 7.5 7.5s7.5-3.358 7.5-7.5v-123.7h63v225.958h-63v-69.567c0-4.142-3.358-7.5-7.5-7.5s-7.5 3.358-7.5 7.5v69.567h-45.69c-32.428 0-58.81-26.382-58.81-58.81zm-53.364 113.812h45v44.998h-45zm408.728 44.998h-45v-44.998h45z"/></g></svg>