<svg id="Capa_1" enable-background="new 0 0 511.45 511.45" height="512" viewBox="0 0 511.45 511.45" width="512" xmlns="http://www.w3.org/2000/svg"><g><g><path d="m367.911 27.255v106.304c-3.914-12.023-15.216-20.712-28.551-20.712-4.074 0-7.948.821-11.492 2.293v-87.885c0-11.052 8.97-20.021 20.021-20.021 5.536 0 10.541 2.242 14.155 5.866 3.624 3.623 5.867 8.629 5.867 14.155z" fill="#fd8087"/><path d="m492.074 50.229c0 5.125-1.962 10.251-5.866 14.155l-90.147 90.147c-5.486-7.088-14.085-11.653-23.746-11.653-.981 0-1.962.05-2.923.15v-.15c0-5.276-1.361-10.241-3.764-14.546l92.269-92.269c7.818-7.818 20.492-7.818 28.31 0 3.905 3.915 5.867 9.041 5.867 14.166z" fill="#fd8087"/><path d="m432.38 226.999c0 2.162-.23 4.285-.671 6.317h-376.805c-.44-2.032-.671-4.154-.671-6.317 0-10.882 5.786-20.412 14.456-25.678 0-.21-.02-.41-.02-.611 0-11.362 6.317-21.253 15.627-26.358-.02-.48-.03-.951-.03-1.442 0-16.588 13.444-30.032 30.032-30.032.981 0 1.962.05 2.923.15v-.15c0-16.588 13.444-30.032 30.032-30.032 5.976 0 11.542 1.762 16.227 4.775-.25-1.562-.38-3.153-.38-4.775 0-16.588 13.444-30.032 30.032-30.032 7.969 0 15.216 3.113 20.592 8.189 2.453-14.125 14.756-24.867 29.582-24.867s27.129 10.742 29.582 24.867c5.376-5.075 12.624-8.189 20.592-8.189 16.588 0 30.032 13.444 30.032 30.032 0 1.622-.13 3.213-.38 4.775 4.685-3.013 10.251-4.775 16.227-4.775 16.588 0 30.032 13.444 30.032 30.032v.15c.961-.1 1.942-.15 2.923-.15 16.588 0 30.032 13.444 30.032 30.032 0 .491-.01.961-.03 1.442 9.31 5.106 15.627 14.996 15.627 26.358 0 .2-.02.4-.02.611 8.671 5.266 14.457 14.797 14.457 25.678z" fill="#fef7ed"/><path d="m432.38 226.999c0 2.162-.23 4.285-.671 6.317h-376.805c-.44-2.032-.671-4.154-.671-6.317 0-10.882 5.786-20.412 14.456-25.678 0-.21-.02-.41-.02-.611 0-11.362 6.317-21.253 15.627-26.358-.02-.48-.03-.951-.03-1.442 0-16.588 13.444-30.032 30.032-30.032.981 0 1.962.05 2.923.15v-.15c0-16.588 13.444-30.032 30.032-30.032 5.976 0 11.542 1.762 16.227 4.775-.285-1.779-.414-3.596-.373-5.453.343-15.361 12.535-28.204 27.862-29.279 8.583-.602 16.456 2.411 22.274 7.682-.06.741-.09 1.492-.09 2.252 0 1.622.13 3.213.38 4.775-4.685-3.013-10.251-4.775-16.227-4.775-16.588 0-30.032 13.444-30.032 30.032v.15c-.961-.1-1.942-.15-2.923-.15-16.588 0-30.032 13.444-30.032 30.032 0 .491.01.961.03 1.442-9.31 5.106-15.627 14.996-15.627 26.358 0 .2.02.4.02.611-3.199 1.943-6.329 4.846-8.853 8.461-6.924 9.916.279 23.534 12.373 23.534h306.813c2.113 4.116 3.305 8.761 3.305 13.706z" fill="#fff0dc"/><path d="m328.417 504.217h-170.22c-9.665 0-17.5-7.835-17.5-17.5v-5.043c0-9.665 7.835-17.5 17.5-17.5h170.22c9.665 0 17.5 7.835 17.5 17.5v5.043c0 9.665-7.835 17.5-17.5 17.5z" fill="#c4e2ff"/><path d="m208.195 504.215h-50c-9.66 0-17.5-7.83-17.5-17.5v-5.04c0-9.67 7.84-17.5 17.5-17.5h50c-9.66 0-17.5 7.83-17.5 17.5v5.04c0 9.67 7.84 17.5 17.5 17.5z" fill="#b3dafe"/><path d="m321.543 464.174h-156.473c-80.462 0-145.689-65.227-145.689-145.689v-55.167c0-16.569 13.431-30 30-30h387.852c16.569 0 30 13.431 30 30v55.167c0 80.462-65.228 145.689-145.69 145.689z" fill="#eaf6ff"/><path d="m215.277 464.174h-50.054c-80.547 0-145.847-65.3-145.847-145.847v-54.979c0-16.588 13.454-30.032 30.032-30.032h50.054c-16.578 0-30.032 13.444-30.032 30.032v54.979c0 80.547 65.3 145.847 145.847 145.847z" fill="#d8ecfe"/><path d="m83.125 380.094h-50.044l-.02-.01c-8.779-18.75-13.685-39.683-13.685-61.756v-35.838h50.054v35.838c0 22.083 4.905 43.016 13.695 61.766z" fill="#b3dafe"/><path d="m467.237 282.489v35.838c0 22.074-4.905 43.006-13.685 61.756l-.02.01h-420.451l-.02-.01c-8.779-18.75-13.685-39.683-13.685-61.756v-35.838z" fill="#c4e2ff"/><path d="m83.125 380.094h-50.044l-.02-.01c-8.779-18.75-13.685-39.683-13.685-61.756v-35.838h50.054v35.838c0 22.083 4.905 43.016 13.695 61.766z" fill="#b3dafe"/></g><g><path d="m499.32 50.45c0-7.336-2.859-14.243-8.057-19.453-12.962-10.739-25.924-10.739-38.887 0l-77.087 77.087v-37.214c0-9.697-15-9.697-15 0v41.097c-7.964-5.113-16.297-7.194-25-6.244v-78.223c0-6.893 5.607-12.5 12.5-12.5 7.616.718 11.783 4.884 12.5 12.5v10.68c0 9.697 15 9.697 15 0v-10.68c-1.574-16.757-10.74-25.923-27.5-27.5-15.163 0-27.5 12.336-27.5 27.5v59.353c-6.816-6.998-16.332-11.353-26.85-11.353-5.85 0-11.525 1.349-16.648 3.894-6.23-12.354-18.99-20.554-33.472-20.554s-27.242 8.199-33.472 20.553c-5.123-2.545-10.799-3.894-16.648-3.894-18.485 0-33.89 13.443-36.948 31.068-2.891-.707-5.87-1.068-8.882-1.068-18.18 0-33.38 13.003-36.786 30.198-17.975 1.849-32.226 16.446-33.536 34.573-8.846 6.336-14.528 16.218-15.522 27.075-8.914 6.85-14.225 17.226-14.545 28.598-19.445 1.365-34.851 17.61-34.851 37.396v54.92c0 72.42 53.344 137.023 124.655 150.514-2.868 4.853-3.799 11.83-3.465 17.676 0 13.785 11.215 25 25 25h170c13.785 0 25-11.215 25-25 .335-5.846-.597-12.823-3.465-17.676 71.246-13.477 124.656-78.134 124.656-150.513v-54.92c0-19.786-15.406-36.031-34.851-37.396-.32-11.372-5.632-21.748-14.545-28.598-.993-10.857-6.676-20.739-15.522-27.075-.377-5.223-1.834-10.15-4.14-14.566l85.811-85.811c5.196-5.195 8.057-12.101 8.057-19.444zm-50.891 322.014h-410.218c-7.128-16.652-11.081-34.974-11.081-54.204v-28.301h432.38v28.301c0 19.23-3.952 37.552-11.081 54.204zm-127.109 83.986h-15.72c-4.143 0-7.5 3.358-7.5 7.5s3.357 7.5 7.5 7.5h22.72c5.514 0 10 4.486 10 10v5c0 5.514-4.486 10-10 10h-170c-5.514 0-10-4.486-10-10v-5c0-5.514 4.486-10 10-10h114.59c4.143 0 7.5-3.358 7.5-7.5s-3.357-7.5-7.5-7.5h-107.59c-50.999 0-95.63-27.773-119.575-68.986h395.15c-23.944 41.213-68.575 68.986-119.575 68.986zm88.949-255.718c-.192 2.694 1.004 5.047 3.587 7.058 6.443 3.913 10.412 10.598 10.796 18.05h-263.512c-4.142 0-7.5 3.358-7.5 7.5s3.358 7.5 7.5 7.5h275.87c12.406 0 22.5 10.093 22.5 22.5v11.619h-432.38v-11.619c0-12.407 10.093-22.5 22.5-22.5h78.82c4.142 0 7.5-3.358 7.5-7.5s-3.358-7.5-7.5-7.5h-66.462c.384-7.452 4.353-14.137 10.796-18.05 2.588-2.025 3.784-4.393 3.586-7.104.031-8.189 4.514-15.72 11.716-19.669 2.833-2.284 4.121-4.956 3.864-8.017 0-12.407 10.093-22.5 22.5-22.5 5.781 0 9.335-.997 10.42-7.5 0-12.407 10.093-22.5 22.5-22.5 4.311 0 8.514 1.237 12.153 3.578 8.542 2.59 12.268-1.103 11.177-11.078 0-12.407 10.093-22.5 22.5-22.5 5.755 0 11.232 2.178 15.422 6.134 5.842 3.608 10.021 2.217 12.538-4.171 1.873-10.791 11.193-18.623 22.16-18.623s20.286 7.832 22.16 18.623c2.517 6.388 6.696 7.778 12.538 4.17 4.189-3.956 9.667-6.134 15.422-6.134 12.406 0 22.5 10.093 22.5 22.5-1.09 9.975 2.635 13.668 11.177 11.078 3.64-2.341 7.842-3.578 12.153-3.578 12.406 0 22.5 10.093 22.5 22.5.703 5.849 4.176 8.349 10.42 7.5 12.406 0 22.5 10.093 22.5 22.5-.254 3.06 1.034 5.732 3.863 8.017 7.217 3.957 11.702 11.51 11.716 19.716zm70.387-141.445-84.72 84.72c-5.534-4.541-12.38-7.537-19.88-8.309-.768-2.072-1.024-4.205-.767-6.4l87.694-87.694c5.888-4.879 11.776-4.881 17.666-.006 4.892 5.896 4.894 11.793.007 17.689z"/><path d="m186.355 165.337c-12.407 0-22.5 10.093-22.5 22.5 0 4.142 3.358 7.5 7.5 7.5s7.5-3.358 7.5-7.5c0-4.136 3.364-7.5 7.5-7.5s7.5 3.364 7.5 7.5c0 4.142 3.358 7.5 7.5 7.5s7.5-3.358 7.5-7.5c0-12.406-10.093-22.5-22.5-22.5z"/><path d="m243.741 130.759c-12.407 0-22.5 10.093-22.5 22.5 0 4.142 3.358 7.5 7.5 7.5s7.5-3.358 7.5-7.5c0-4.136 3.364-7.5 7.5-7.5s7.5 3.364 7.5 7.5c0 4.142 3.357 7.5 7.5 7.5s7.5-3.358 7.5-7.5c0-12.407-10.094-22.5-22.5-22.5z"/><path d="m300.285 165.337c-12.406 0-22.5 10.093-22.5 22.5 0 4.142 3.357 7.5 7.5 7.5s7.5-3.358 7.5-7.5c0-4.136 3.364-7.5 7.5-7.5s7.5 3.364 7.5 7.5c0 4.142 3.357 7.5 7.5 7.5s7.5-3.358 7.5-7.5c0-12.406-10.094-22.5-22.5-22.5z"/></g></g></svg>