<svg id="Capa_1" enable-background="new 0 0 511.641 511.641" height="512" viewBox="0 0 511.641 511.641" width="512" xmlns="http://www.w3.org/2000/svg"><g><g><path d="m375.821 503.947-15-15c-8.284-8.284-21.716-8.284-30 0-8.284 8.284-21.716 8.284-30 0-8.284-8.284-21.716-8.284-30 0-8.284 8.284-21.716 8.284-30 0-8.284-8.284-21.716-8.284-30 0-8.284 8.284-21.716 8.284-30 0-8.284-8.284-21.716-8.284-30 0l-15 15v-300h240z" fill="#fd8087"/><path d="m185.821 203.951v288.71c-1.8-.96-3.48-2.19-5-3.71-4.14-4.14-9.57-6.22-15-6.22s-10.86 2.08-15 6.22l-15 15v-300z" fill="#fe646f"/><path d="m135.821 284.909 240 71.667v-152.629h-240z" fill="#eaf6ff"/><path d="m185.821 203.951v95.89l-50-14.93v-80.96z" fill="#d8ecfe"/><path d="m149.821 7.69h212v196.257h-212z" fill="#dc8758"/><path d="m361.821 183.951v20h-212v-196.26h50v146.26c0 16.569 13.431 30 30 30z" fill="#d77f4a"/></g><path d="m383.321 295.68c0-4.142-3.357-7.5-7.5-7.5s-7.5 3.358-7.5 7.5v50.638l-225-67.188v-67.87h225v51.73c0 4.142 3.357 7.5 7.5 7.5s7.5-3.358 7.5-7.5v-59.23c0-4.142-3.357-7.5-7.5-7.5h-6.5v-188.76c0-4.142-3.357-7.5-7.5-7.5h-212c-4.143 0-7.5 3.358-7.5 7.5v28.1c0 4.142 3.357 7.5 7.5 7.5s7.5-3.358 7.5-7.5v-20.6h91v83.127h-91v-29.847c0-4.142-3.357-7.5-7.5-7.5s-7.5 3.358-7.5 7.5v127.98h-6.5c-4.143 0-7.5 3.358-7.5 7.5v300c0 7.87 7.375 10.245 12.804 5.303l15-15c6.464-5.365 12.928-5.365 19.393 0 5.422 5.421 12.632 8.407 20.304 8.407s14.882-2.985 20.304-8.407c6.464-5.365 12.928-5.365 19.393 0 5.422 5.421 12.632 8.407 20.304 8.407s14.882-2.985 20.304-8.407c6.464-5.365 12.928-5.365 19.393 0 5.422 5.421 12.632 8.407 20.304 8.407s14.882-2.985 20.307-8.41c6.464-5.358 12.927-5.357 19.39.003l15 15c4.929 4.941 12.804 2.566 12.804-5.303v-208.08zm-120-99.42v-83.133h91v83.133zm0-181.26h91v83.127h-91zm-106 98.127h91v83.133h-91zm208.806 370.333c-5.422-5.428-12.634-8.417-20.307-8.417s-14.885 2.99-20.304 8.415c-6.464 5.351-12.928 5.351-19.393 0-5.428-5.428-12.638-8.417-20.304-8.417s-14.876 2.989-20.304 8.417c-6.464 5.351-12.928 5.351-19.393 0-5.428-5.428-12.638-8.417-20.304-8.417s-14.876 2.989-20.304 8.417c-6.464 5.351-12.928 5.351-19.393 0-5.428-5.428-12.638-8.417-20.304-8.417-8.542 0-16.767 4.494-22.5 10.614v-34.925h39.14c4.143 0 7.5-3.358 7.5-7.5s-3.357-7.5-7.5-7.5h-39.14v-140.945l225 67.188v73.758h-153.17c-4.143 0-7.5 3.358-7.5 7.5s3.357 7.5 7.5 7.5h153.17v34.924z"/></g></svg>