<svg id="Capa_1" enable-background="new 0 0 512 512" height="512" viewBox="0 0 512 512" width="512" xmlns="http://www.w3.org/2000/svg"><g><g><path d="m132.226 504.5c-46.194 0-83.776-37.582-83.776-83.776v-178.22c0-24.311 6.111-47.669 17.608-68.332-11.335-17.287-17.608-37.721-17.608-59.021.001-59.358 48.293-107.651 107.653-107.651h199.795c59.36 0 107.652 48.293 107.652 107.652 0 21.3-6.274 41.734-17.609 59.021 11.497 20.662 17.609 44.021 17.609 68.332v178.219c0 46.194-37.582 83.776-83.776 83.776z" fill="#dc8758"/><path d="m132.227 464.5c-24.139 0-43.776-19.638-43.776-43.776v-178.22c0-17.21 4.344-34.113 12.562-48.882l11.767-21.146-13.27-20.237c-7.234-11.033-11.059-23.858-11.059-37.087 0-37.303 30.349-67.652 67.652-67.652h199.795c37.304 0 67.652 30.349 67.652 67.652 0 13.229-3.824 26.053-11.06 37.087l-13.27 20.237 11.767 21.146c8.219 14.77 12.563 31.673 12.563 48.882v178.219c0 24.138-19.638 43.776-43.776 43.776h-247.547z" fill="#fece85"/><path d="m182.23 464.5h-50c-24.14 0-43.78-19.64-43.78-43.78v-178.22c0-17.21 4.34-34.11 12.56-48.88l11.77-21.14-13.27-20.24c-7.24-11.03-11.06-23.86-11.06-37.09 0-37.3 30.35-67.65 67.65-67.65h50c-37.3 0-67.65 30.35-67.65 67.65 0 13.23 3.82 26.06 11.06 37.09l13.27 20.24-11.77 21.14c-8.22 14.77-12.56 31.67-12.56 48.88v178.22c0 24.14 19.64 43.78 43.78 43.78z" fill="#fec165"/><path d="m152.23 504.5h-20c-46.2 0-83.78-37.58-83.78-83.78v-178.22c0-24.31 6.11-47.66 17.61-68.33-11.34-17.28-17.61-37.72-17.61-59.02 0-59.36 48.29-107.65 107.65-107.65h20c-59.36 0-107.65 48.29-107.65 107.65 0 21.3 6.27 41.74 17.61 59.02-11.5 20.67-17.61 44.02-17.61 68.33v178.22c0 46.2 37.58 83.78 83.78 83.78z" fill="#d77f4a"/></g><g><path d="m471.05 115.15c0-63.494-51.656-115.15-115.15-115.15h-199.8c-63.494 0-115.15 51.656-115.15 115.15 0 21.014 5.671 41.426 16.439 59.319-10.767 20.851-16.439 44.272-16.439 68.031v26.31c0 4.142 3.357 7.5 7.5 7.5s7.5-3.358 7.5-7.5v-26.31c0-22.723 5.762-45.09 16.663-64.684 1.356-2.438 1.248-5.429-.283-7.761-10.716-16.329-16.38-35.315-16.38-54.905 0-55.223 44.927-100.15 100.15-100.15h199.8c55.223 0 100.149 44.927 100.149 100.15 0 19.59-5.664 38.576-16.38 54.905-1.531 2.333-1.64 5.323-.283 7.761 10.901 19.594 16.663 41.961 16.663 64.684v178.22c0 42.061-34.219 76.28-76.28 76.28h-107.429c-4.143 0-7.5 3.358-7.5 7.5s3.357 7.5 7.5 7.5h107.43c50.332 0 91.28-40.948 91.28-91.28v-178.22c0-23.759-5.672-47.18-16.439-68.031 10.768-17.893 16.439-38.305 16.439-59.319z"/><path d="m239.66 497h-107.43c-42.062 0-76.28-34.219-76.28-76.28v-119.22c0-4.142-3.357-7.5-7.5-7.5s-7.5 3.358-7.5 7.5v119.22c0 50.332 40.948 91.28 91.28 91.28h107.43c4.143 0 7.5-3.358 7.5-7.5s-3.357-7.5-7.5-7.5z"/><path d="m80.95 242.5v178.22c0 28.276 23.004 51.28 51.28 51.28h247.54c28.276 0 51.28-23.004 51.28-51.28v-178.22c0-25.487-10.205-48.306-23.069-69.703 12.203-16.88 23.069-36.22 23.069-57.647 0-41.438-33.712-75.15-75.15-75.15h-10.2c-4.143 0-7.5 3.358-7.5 7.5s3.357 7.5 7.5 7.5h10.2c33.166 0 60.149 26.983 60.149 60.15 0 19.701-11.778 37.794-23.103 53.218-1.529 2.333-1.638 5.323-.28 7.761 12.443 19.786 23.383 42.605 23.383 66.372v178.22c0 20.005-16.275 36.28-36.28 36.28h-247.539c-20.005 0-36.28-16.275-36.28-36.28v-178.221c0-24.007 11.031-46.344 23.383-66.372 1.357-2.438 1.249-5.427-.28-7.761-11.302-15.283-23.103-33.61-23.103-53.218 0-33.166 26.984-60.149 60.15-60.149h156.91c4.143 0 7.5-3.358 7.5-7.5s-3.357-7.5-7.5-7.5h-156.91c-41.438 0-75.149 33.712-75.149 75.15 0 21.385 10.822 40.784 23.069 57.647-12.774 21.551-23.07 43.974-23.07 69.703z"/><path d="m247.022 146.638c-1.15-3.979-5.313-6.269-9.288-5.12l-28.818 8.338c-3.979 1.151-6.271 5.31-5.12 9.289.949 3.283 3.946 5.417 7.2 5.417.69 0 30.906-8.635 30.906-8.635 3.98-1.151 6.272-5.31 5.12-9.289z"/><path d="m241.587 270.985c.69 0 30.907-8.636 30.907-8.636 3.979-1.151 6.271-5.31 5.119-9.289-1.15-3.98-5.31-6.27-9.289-5.12l-28.818 8.338c-3.979 1.151-6.271 5.31-5.119 9.289.949 3.284 3.946 5.418 7.2 5.418z"/><path d="m322.245 363.792-25.358-16.028c-3.5-2.213-8.134-1.169-10.347 2.333-2.213 3.501-1.169 8.134 2.333 10.347l25.358 16.028c1.243.786 2.63 1.161 4 1.161 2.486 0 4.92-1.236 6.347-3.494 2.213-3.502 1.169-8.134-2.333-10.347z"/><path d="m334.051 186.766c3.23-2.592 3.747-7.313 1.155-10.543l-18.776-23.397c-2.593-3.23-7.313-3.749-10.544-1.155-3.23 2.592-3.747 7.313-1.155 10.543l18.776 23.397c1.481 1.846 3.658 2.806 5.854 2.806 1.647 0 3.305-.54 4.69-1.651z"/><path d="m193.052 357.423c-2.593-3.23-7.313-3.749-10.544-1.155-3.23 2.592-3.747 7.313-1.155 10.543l18.777 23.397c1.482 1.846 3.658 2.806 5.854 2.806 1.646 0 3.305-.54 4.689-1.651 3.23-2.592 3.747-7.313 1.155-10.543z"/><path d="m160.561 239.364-9.917 28.313c-1.369 3.909.689 8.188 4.599 9.558.82.287 1.657.423 2.479.423 3.098 0 5.996-1.934 7.078-5.023l9.917-28.313c1.369-3.909-.689-8.188-4.599-9.558-3.91-1.367-8.188.691-9.557 4.6z"/><path d="m360.522 309.668c3.098 0 5.996-1.934 7.078-5.023l9.917-28.313c1.369-3.909-.689-8.188-4.599-9.558-3.908-1.368-8.188.69-9.558 4.6l-9.917 28.313c-1.369 3.909.689 8.188 4.599 9.558.821.287 1.658.423 2.48.423z"/></g></g></svg>