<svg id="Capa_1" enable-background="new 0 0 512 512" height="512" viewBox="0 0 512 512" width="512" xmlns="http://www.w3.org/2000/svg"><g><g><path d="m431 160.71c0 14.57-9.77 26.37-21.84 26.37-.5 0-1.54-.03-1.54-.03l-.02.03h-303.31l-.06-.06c-.45.05-.93.06-1.39.06-12.07 0-21.84-11.8-21.84-26.37 0-13.64 8.58-24.87 19.58-26.24-.44-6.61-.74-11.3-.74-11.87 0-21.85 14.66-39.56 32.75-39.56 0-21.86 14.66-39.57 32.75-39.57 4.38 0 8.57 1.06 12.4 2.94 5.1-13.85 16.58-23.51 29.93-23.51 6.93 0 13.35 2.63 18.64 7.05 5.21-13.5 16.55-22.87 29.69-22.87 13.13 0 24.43 9.33 29.66 22.79 5.27-4.38 11.65-6.97 18.54-6.97 13.35 0 24.83 9.66 29.93 23.51 3.83-1.88 8.01-2.94 12.39-2.94 18.09 0 32.75 17.71 32.75 39.57 18.09 0 32.75 17.71 32.75 39.56 0 .57-.3 5.25-.75 11.86 11.08 1.29 19.73 12.53 19.73 26.25z" fill="#fef0ae"/><path d="m430.35 167.08c-2.35 11.49-10.94 20-21.19 20-.5 0-1.54-.03-1.54-.03l-.02.03h-303.31l-.06-.06c-.45.05-.93.06-1.39.06-12.07 0-21.84-11.8-21.84-26.37 0-13.64 8.58-24.87 19.58-26.24-.44-6.61-.74-11.3-.74-11.87 0-21.85 14.66-39.56 32.75-39.56 0-21.86 14.66-39.57 32.75-39.57 4.38 0 8.57 1.06 12.4 2.94 5.1-13.85 16.58-23.51 29.93-23.51 1.98 0 3.92.22 5.8.64-17.22 1.17-30.88 18.4-30.88 39.5-18.09 0-32.75 17.71-32.75 39.56 0 .57.3 5.26.74 11.87-11 1.37-19.58 12.6-19.58 26.24 0 14.57 9.77 26.37 21.84 26.37.46 0 .94-.01 1.39-.06l.06.06z" fill="#ffe177"/><path d="m433.082 229.92h-354.164c-11.829 0-21.418-9.589-21.418-21.418 0-11.829 9.589-21.418 21.418-21.418h354.165c11.829 0 21.418 9.589 21.418 21.418-.001 11.829-9.59 21.418-21.419 21.418z" fill="#eaf6ff"/><path d="m363.595 504.92h-215.19c-15.309 0-28.163-11.527-29.823-26.747l-27.082-248.253h329l-27.082 248.253c-1.66 15.22-14.514 26.747-29.823 26.747z" fill="#fd8087"/><path d="m420.5 229.92-2.18 20h-270.09c-8.93 0-15.88 7.75-14.92 16.63l25.27 231.62c.26 2.35.78 4.61 1.54 6.75h-11.71c-15.31 0-28.17-11.53-29.83-26.75l-27.08-248.25z" fill="#fe646f"/><path d="m230.313 504.92-4.667-275h-70.666l21.333 275z" fill="#eaf6ff"/><path d="m225.99 249.92h-69.46l-1.55-20h70.67z" fill="#d8ecfe"/><path d="m281.687 504.92 4.667-275h70.666l-21.333 275z" fill="#eaf6ff"/><path d="m357.02 229.92-1.55 20h-69.46l.34-20z" fill="#d8ecfe"/></g><g><path d="m203.799 119.346c-15.149.165-27.34 12.623-27.175 27.773.044 4.108 3.388 7.406 7.486 7.406h.083c4.135-.045 7.451-3.433 7.406-7.569-.075-6.893 5.471-12.56 12.364-12.636 4.135-.045 7.451-3.433 7.406-7.569-.044-4.108-3.388-7.406-7.486-7.406-.029.001-.057.001-.084.001z"/><path d="m324.248 130.417c-5.949-4.298-13.218-6.021-20.461-4.855-4.083.658-6.859 4.5-6.201 8.583s4.504 6.863 8.583 6.201c3.299-.53 6.602.253 9.308 2.209 2.707 1.956 4.489 4.848 5.02 8.144 2.003 4.717 4.864 6.784 8.584 6.202 4.083-.658 6.859-4.5 6.202-8.584-1.167-7.244-5.086-13.601-11.035-17.9z"/><path d="m239.714 83.144c-2.845 3.001-2.719 7.74.282 10.585 3.567 2.83 7.095 2.736 10.585-.282 4.743-5.001 12.669-5.213 17.672-.47 3.001 2.845 7.739 2.719 10.586-.282 2.845-3.001 2.719-7.74-.282-10.586-10.996-10.423-28.421-9.959-38.843 1.035z"/><path d="m433.213 179.72c9.316-15.951 4.115-43.03-14.316-50.671.066-1.013.123-1.918.171-2.696.254-4.128-2.886-7.68-7.013-7.934-4.132-.255-7.68 2.886-7.934 7.013-.129 2.094-.328 5.11-.576 8.712-.274 3.989 2.633 7.489 6.604 7.952 17.928 2.087 17.512 37.609-1.241 37.609-.367 0-305.424 0-305.819 0-18.729 0-19.156-35.385-1.331-37.606 3.938-.49 6.81-3.968 6.546-7.927-.559-8.395-.703-10.865-.722-11.425.03-17.617 11.327-31.936 25.209-31.936 4.135 0 7.488-3.352 7.488-7.488 0-17.052 14.775-39.429 34.289-29.848 4.668 1.685 8.111.307 10.326-4.134 5.317-14.441 22.981-24.705 36.663-13.275 4.974 3.021 8.902 2.004 11.786-3.05 4.229-10.959 13.122-18.04 22.656-18.04 9.505 0 18.389 7.056 22.632 17.977 2.881 5.034 6.803 6.049 11.765 3.046 13.664-11.358 31.285-1.03 36.578 13.342 2.216 4.441 5.658 5.819 10.326 4.134 19.51-9.578 34.279 12.803 34.279 29.848 0 4.135 3.352 7.488 7.488 7.488 5.898 0 11.652 2.684 16.201 7.556 2.823 3.022 7.561 3.185 10.583.363 3.022-2.823 3.185-7.561.363-10.583-5.657-6.058-12.612-10.04-20.074-11.585-2.822-22.795-23.726-45.317-48.201-39.192-9.582-17.467-30.466-27.22-49.374-17.931-7.461-12.036-19.544-19.439-32.565-19.439-13.05 0-25.144 7.422-32.599 19.488-18.929-9.365-39.868.376-49.472 17.882-24.659-6.17-45.394 16.425-48.211 39.194-18.796 3.918-33.111 23.169-33.111 46.254 0 .346 0 .757.357 6.285-18.313 7.734-23.478 34.693-14.178 50.617-15.725.227-28.449 13.082-28.449 28.86 0 15.919 12.951 28.87 28.87 28.87h5.847l9.844 90.235c.448 4.111 4.14 7.082 8.256 6.631 4.111-.448 7.08-4.145 6.631-8.255l-9.667-88.611h48.098l20.136 259.574h-19.766c-11.489 0-21.092-8.611-22.338-20.031l-12.909-118.296c-.448-4.111-4.153-7.085-8.256-6.631-4.111.448-7.08 4.145-6.631 8.256l12.909 118.296c2.076 19.031 18.08 33.382 37.225 33.382h214.827c19.146 0 35.149-14.351 37.225-33.382l26.308-241.168h5.847c15.919 0 28.87-12.951 28.87-28.87 0-15.778-12.725-28.633-28.45-28.86zm-249.84 317.305-20.136-259.575h55.098l4.405 259.574h-39.367zm49.939-259.575h45.372l-4.399 259.574h-36.569zm152.44 239.544c-1.246 11.419-10.849 20.031-22.338 20.031h-19.764l4.057-52.304c.32-4.123-2.764-7.725-6.886-8.044-4.125-.322-7.724 2.763-8.044 6.886l-4.147 53.463h-39.366l4.399-259.574h55.102l-13.452 173.486c-.32 4.123 2.764 7.724 6.887 8.044 4.113.314 7.724-2.763 8.044-6.887l13.541-174.643h48.097zm47.041-254.519h-353.586c-7.662 0-13.895-6.233-13.895-13.895s6.233-13.895 13.895-13.895h353.585c7.662 0 13.895 6.233 13.895 13.895s-6.233 13.895-13.894 13.895z"/></g></g></svg>