<svg id="Capa_1" enable-background="new 0 0 512 512" height="512" viewBox="0 0 512 512" width="512" xmlns="http://www.w3.org/2000/svg"><g><g><g fill="#fece85"><path d="m44.136 407.73h60v60h-60z"/><path d="m407.864 407.73h60v60h-60z"/></g><g><g fill="#fec165"><path d="m44.14 407.73h30v60h-30z"/><path d="m407.86 407.73h30v60h-30z"/></g></g><path d="m7.5 367.73h497v40h-497z" fill="#fece85"/><path d="m7.5 367.73h50v40h-50z" fill="#fec165"/><path d="m365.269 367.182h-215.58c-56.116 0-90.72-61.283-61.738-109.335l107.79-178.715c28.035-46.482 95.441-46.482 123.476 0l107.79 178.715c28.982 48.053-5.622 109.335-61.738 109.335z" fill="#fef7ed"/><path d="m282.48 48.68c-14.58 5.32-27.7 15.47-36.74 30.45l-107.79 178.72c-28.98 48.05 5.62 109.33 61.74 109.33h-50c-56.12 0-90.72-61.28-61.74-109.33l107.79-178.72c19-31.5 56.09-41.65 86.74-30.45z" fill="#fff0dc"/><path d="m183.982 245h144.035v122.182h-144.035z" fill="#57be92"/><path d="m183.98 245h50v122.18h-50z" fill="#22b27f"/></g><g><path d="m504.5 360.23h-93.275c33.396-23.668 43.403-71.111 22.207-106.253l-76.71-127.181c-2.139-3.546-6.75-4.686-10.296-2.547-3.547 2.14-4.688 6.75-2.548 10.296l76.71 127.18c25.742 42.683-6.281 97.957-55.318 97.957h-29.75v-114.682c0-4.142-3.357-7.5-7.5-7.5h-144.04c-4.143 0-7.5 3.358-7.5 7.5v37.09c0 4.142 3.357 7.5 7.5 7.5s7.5-3.358 7.5-7.5v-29.59h129.04v107.18h-129.04v-44.9c0-4.142-3.357-7.5-7.5-7.5s-7.5 3.358-7.5 7.5v44.9h-26.79c-49.04 0-81.064-55.27-55.318-97.957l107.79-178.72c11.799-19.558 32.479-31.234 55.318-31.234s43.519 11.676 55.316 31.232l11.37 18.86c2.139 3.547 6.75 4.69 10.295 2.551 3.548-2.138 4.689-6.748 2.551-10.295l-11.371-18.862c-14.537-24.098-40.018-38.485-68.161-38.485-28.144 0-53.624 14.387-68.163 38.486l-107.789 178.721c-21.123 35.021-11.205 82.578 22.203 106.253h-96.231c-4.143 0-7.5 3.358-7.5 7.5v40c0 4.142 3.357 7.5 7.5 7.5h29.136v52.5c0 4.142 3.357 7.5 7.5 7.5h60c4.143 0 7.5-3.358 7.5-7.5v-52.5h239.204c4.143 0 7.5-3.358 7.5-7.5s-3.357-7.5-7.5-7.5h-335.84v-25h482v25h-113.48c-4.143 0-7.5 3.358-7.5 7.5s3.357 7.5 7.5 7.5h16.845v52.5c0 4.142 3.357 7.5 7.5 7.5h60c4.143 0 7.5-3.358 7.5-7.5v-52.5h29.135c4.143 0 7.5-3.358 7.5-7.5v-40c0-4.142-3.357-7.5-7.5-7.5zm-407.864 55v45h-45v-45zm363.728 45h-45v-45h45z"/><path d="m176.482 188.387c0 4.142 3.357 7.5 7.5 7.5s7.5-3.358 7.5-7.5c0-4.136 3.364-7.5 7.5-7.5s7.5 3.364 7.5 7.5c0 4.142 3.357 7.5 7.5 7.5s7.5-3.358 7.5-7.5c0-12.407-10.094-22.5-22.5-22.5s-22.5 10.093-22.5 22.5z"/><path d="m236.921 133.809c0 4.142 3.357 7.5 7.5 7.5s7.5-3.358 7.5-7.5c0-4.136 3.364-7.5 7.5-7.5s7.5 3.364 7.5 7.5c0 4.142 3.357 7.5 7.5 7.5s7.5-3.358 7.5-7.5c0-12.407-10.094-22.5-22.5-22.5s-22.5 10.093-22.5 22.5z"/><path d="m313.018 165.887c-12.406 0-22.5 10.093-22.5 22.5 0 4.142 3.357 7.5 7.5 7.5s7.5-3.358 7.5-7.5c0-4.136 3.364-7.5 7.5-7.5s7.5 3.364 7.5 7.5c0 4.142 3.357 7.5 7.5 7.5s7.5-3.358 7.5-7.5c0-12.407-10.094-22.5-22.5-22.5z"/></g></g></svg>