<svg id="Capa_1" enable-background="new 0 0 512 512" height="512" viewBox="0 0 512 512" width="512" xmlns="http://www.w3.org/2000/svg"><g><g><path d="m386.875 185.97h-37.109c-35.372 0-68.233-18.28-86.887-48.333-18.654-30.054-51.515-48.333-86.887-48.333h-2.534c-92.064-.001-166.698 74.633-166.698 166.697 0 92.065 74.633 166.698 166.698 166.698h89.421 123.995c65.371 0 118.365-52.994 118.365-118.365.001-65.37-52.993-118.364-118.364-118.364z" fill="#dc8758"/><path d="m203.46 422.7h-30c-46.04 0-87.71-18.66-117.88-48.82-30.16-30.17-48.82-71.85-48.82-117.88 0-92.06 74.63-166.7 166.7-166.7h2.53c4.04 0 8.05.24 12.01.71-84.82 7.8-151.24 79.14-151.24 165.99 0 46.03 18.66 87.71 48.82 117.88 30.17 30.16 71.84 48.82 117.88 48.82z" fill="#d77f4a"/><path d="m173.458 382.7c-69.861 0-126.698-56.836-126.698-126.698s56.837-126.698 126.698-126.698h2.534c21.688 0 41.464 11.001 52.901 29.428 26.133 42.103 71.318 67.239 120.872 67.239h37.108c43.211 0 78.365 35.154 78.365 78.365s-35.153 78.364-78.363 78.364z" fill="#fece85"/><circle cx="153.952" cy="252.112" fill="#fff" r="33.917"/></g><g><path d="m386.493 178.703h-36.994c-32.918 0-62.931-16.694-80.283-44.654-20.144-32.483-57.338-52.445-95.518-51.738-95.778 0-173.698 77.921-173.698 173.698 0 94.667 78.961 173.698 173.698 173.698h174.435c4.131 0 7.478-3.348 7.478-7.478s-3.348-7.478-7.478-7.478h-174.435c-86.405 0-158.741-72.314-158.741-158.741 0-87.53 71.211-158.741 158.741-158.741 33.301.273 65.013 15.97 82.808 44.666 20.1 32.389 54.864 51.725 92.993 51.725h36.994c60.958 0 110.55 49.588 110.55 110.55 0 60.952-49.593 110.54-110.55 110.54h-5.773c-4.131 0-7.478 3.348-7.478 7.478s3.348 7.478 7.478 7.478h5.773c69.205.001 125.507-56.297 125.507-125.506 0-69.2-56.302-125.497-125.507-125.497z"/><path d="m58.815 202.923c-3.844-1.511-8.183.379-9.697 4.222-34.02 86.493 32.012 182.677 124.579 182.677h212.805c47.207 0 85.613-38.41 85.613-85.623 0-47.207-38.41-85.612-85.623-85.612h-36.994c-46.802 0-89.485-23.743-114.176-63.509-12.77-20.59-34.864-32.882-59.103-32.882-41.355.136-81.164 17.942-107.111 50.434-2.578 3.227-2.051 7.933 1.177 10.511 3.227 2.577 7.934 2.049 10.51-1.177 19.308-24.177 48.32-40.438 79.076-44.009l-83.065 186.823c-22.898-32.169-28.249-75.345-13.769-112.157 1.513-3.845-.378-8.186-4.222-9.698zm398.344 101.277c0 38.965-31.696 70.666-70.656 70.666h-18.923l57.67-129.704c19.201 12.644 31.909 34.38 31.909 59.038zm-100.913-70.656c17.976-.653 38.723-1.814 55.686 4.755l-60.721 136.566h-57.799zm-123.4-56.085c11.71 14.713 25.884 26.879 41.759 36.077l-12.048 27.101c-4.375 9.841 10.008 14.309 13.668 6.076l11.707-26.333c16.199 7.303 33.785 11.729 52.077 12.867l-62.967 141.619h-57.803l42.497-95.566c1.679-3.774-.02-8.194-3.794-9.872s-8.194.02-9.872 3.795l-45.199 101.644c-18.566.423-38.258 1.117-56.397-3.15zm-103.272 65.454c4.509-9.426 13.575-17.122 24.671-17.122 14.524 0 26.341 11.816 26.341 26.34s-11.816 26.34-26.341 26.34c-14.523 0-26.34-11.816-26.34-26.34.001-3.241.593-6.347 1.669-9.218zm47.019-105.748c18.88.125 36.063 9.742 46.021 25.799.059.095.122.187.182.283l-31.458 70.751c-8.677-17.675-29.265-26.918-48.178-21.639zm-59.301 133.371c8.807 17.611 29.455 26.708 48.336 21.284l-33.573 75.509c-17.076-6.409-32.299-16.636-44.62-29.642z"/></g></g></svg>