<svg id="Capa_1" enable-background="new 0 0 512 512" height="512" viewBox="0 0 512 512" width="512" xmlns="http://www.w3.org/2000/svg"><g><path d="m348.367 504.487h-184.734c-17.667 0-31.525-15.162-29.941-32.757l27.732-307.698h189.151l27.732 307.698c1.585 17.595-12.273 32.757-29.94 32.757z" fill="#eaf6ff"/><path d="m183.792 491.768c-.401 4.469.19 8.778 1.593 12.716h-21.755c-17.666 0-31.525-15.161-29.941-32.757l27.737-307.695h189.148l1.804 19.705h-127.111c-7.779 0-14.273 5.935-14.97 13.683z" fill="#d8ecfe"/><path d="m361.257 164.032h-210.514c-11.046 0-20-8.954-20-20v-.082c0-11.046 8.954-20 20-20h210.514c11.046 0 20 8.954 20 20v.082c0 11.046-8.954 20-20 20z" fill="#cbc4cc"/><path d="m161.396 84.204h190.467v39.746h-190.467z" fill="#d8ecfe"/><path d="m177.277 7.513h157.446c25.7 0 46.534 20.834 46.534 46.534v.157c0 16.569-13.431 30-30 30h-190.514c-16.569 0-30-13.431-30-30v-.157c0-25.7 20.834-46.534 46.534-46.534z" fill="#cbc4cc"/><g><path d="m256 53.374c-4.151 0-7.515-3.365-7.515-7.515 0-4.151 3.365-7.515 7.515-7.515 4.151 0 7.515 3.365 7.515 7.515 0 4.15-3.364 7.515-7.515 7.515z"/><g><path d="m211.409 394.342c-4.151 0-7.515-3.365-7.515-7.515 0-4.151 3.365-7.515 7.515-7.515 4.151 0 7.515 3.365 7.515 7.515 0 4.151-3.365 7.515-7.515 7.515z"/><path d="m300.591 322.736c-4.151 0-7.515-3.365-7.515-7.515 0-4.151 3.365-7.515 7.515-7.515 4.151 0 7.515 3.365 7.515 7.515.001 4.15-3.364 7.515-7.515 7.515z"/><path d="m322.637 385.754c-4.151 0-7.515-3.365-7.515-7.515 0-4.151 3.365-7.515 7.515-7.515 4.151 0 7.515 3.365 7.515 7.515 0 4.15-3.365 7.515-7.515 7.515z"/></g><path d="m218.924 53.374c-4.151 0-7.515-3.365-7.515-7.515 0-4.151 3.365-7.515 7.515-7.515 4.151 0 7.515 3.365 7.515 7.515 0 4.15-3.364 7.515-7.515 7.515z"/><path d="m293.076 53.374c-4.151 0-7.515-3.365-7.515-7.515 0-4.151 3.365-7.515 7.515-7.515 4.151 0 7.515 3.365 7.515 7.515 0 4.15-3.364 7.515-7.515 7.515z"/><path d="m330.152 53.374c-4.151 0-7.515-3.365-7.515-7.515 0-4.151 3.365-7.515 7.515-7.515 4.151 0 7.515 3.365 7.515 7.515 0 4.15-3.364 7.515-7.515 7.515z"/><path d="m181.848 53.374c-4.151 0-7.515-3.365-7.515-7.515 0-4.151 3.365-7.515 7.515-7.515 4.151 0 7.515 3.365 7.515 7.515 0 4.15-3.364 7.515-7.515 7.515z"/><path d="m388.772 143.991c0-17.087-13.744-26.846-29.393-27.557v-25.616c16.704-3.696 29.393-19.815 29.393-36.676 0-29.854-24.288-54.142-54.141-54.142h-97.9c-4.151 0-7.515 3.365-7.515 7.515s3.365 7.515 7.515 7.515h97.9c21.566 0 39.11 17.545 39.11 39.11-1.294 13.737-8.809 21.252-22.546 22.546h-190.39c-12.432 0-22.546-10.114-22.546-22.546 0-21.335 17.774-39.11 39.11-39.11h26.615c4.151 0 7.515-3.365 7.515-7.515s-3.365-7.515-7.516-7.515h-26.615c-29.536 0-54.141 24.605-54.141 54.141 0 18.354 13.23 33.667 30.653 36.927v25.367c-16.052.229-30.653 9.887-30.653 27.557 0 17.343 14.116 27.061 29.946 27.557l-19.584 217.518c-.372 4.134 2.677 7.786 6.811 8.159 4.124.374 7.787-2.677 8.159-6.811l7.687-85.382c31.857-35.541 62.94-54.076 94.108-55.925l-5.472 247.863h-81.252c-14.704-1.591-22.19-9.78-22.456-24.568l4.429-49.241c.372-4.134-2.678-7.786-6.812-8.158-4.124-.369-7.786 2.677-8.158 6.812l-4.429 49.241c-1.951 21.685 15.65 40.943 37.426 40.943h184.739c21.776 0 39.378-19.258 37.426-40.946l-26.969-299.506c15.83-.497 29.946-10.214 29.946-27.557zm-219.861-52.272h175.437v24.715h-175.437zm-30.652 52.272c0-6.907 5.619-12.526 12.526-12.526h210.431c6.907 0 12.526 5.619 12.526 12.526s-5.619 12.526-12.526 12.526h-210.432c-6.906 0-12.525-5.619-12.525-12.526zm20.147 137.054 9.859-109.497h83.802l-1.381 62.561c-30.976 1.565-61.844 17.252-92.28 46.936zm195.196.09c-8.253-8.014-16.525-15.021-24.727-20.935-3.366-2.425-8.062-1.667-10.491 1.7-2.428 3.367-1.666 8.064 1.7 10.492 11.762 8.481 23.753 19.459 35.67 32.638l15.071 167.371c-.267 14.788-7.752 22.977-22.456 24.568h-88.452l5.463-247.461c7.879.883 15.773 2.803 23.694 5.799 3.879 1.468 8.219-.488 9.688-4.37s-.487-8.22-4.37-9.688c-9.559-3.616-19.122-5.882-28.679-6.807l1.389-62.895h76.633z"/></g></g></svg>