<svg id="Capa_1" enable-background="new 0 0 512 512" height="512" viewBox="0 0 512 512" width="512" xmlns="http://www.w3.org/2000/svg"><g><path d="m335.611 504.529h-159.222c-11.046 0-20-8.954-20-20v-307.144c0-11.046 8.954-20 20-20h159.222c11.046 0 20 8.954 20 20v307.144c0 11.046-8.954 20-20 20z" fill="#fd8087"/><path d="m226.117 504.529h-49.805c-11.007 0-19.922-8.915-19.922-19.922v-307.3c0-11.007 8.915-19.922 19.922-19.922h49.805c-11.007 0-19.922 8.915-19.922 19.922v307.3c0 11.007 8.915 19.922 19.922 19.922z" fill="#fe646f"/><path d="m156.389 220.804h199.222v217.422h-199.222z" fill="#fe99a0"/><path d="m156.389 220.807h49.805v217.421h-49.805z" fill="#fd8087"/><path d="m246.039 7.471h19.922l19.922 89.65h-59.766z" fill="#fd8087"/><path d="m300.708 97.619h-89.416c-16.569 0-30 13.431-30 30v29.767h149.416v-29.767c0-16.569-13.431-30-30-30z" fill="#fe99a0"/><path d="m231.054 394.896-8.913 1.937 5.997-18.578c4.633-14.353 6.993-29.342 6.993-44.425v-29.842c0-12.917 10.471-23.388 23.388-23.388 12.917 0 23.388 10.471 23.388 23.388v27.813c.001 30.375-21.171 56.643-50.853 63.095z" fill="#fd8087"/><g><path d="m338.179 150.033v-22.531c0-20.597-16.757-37.354-37.354-37.354h-8.838l-5.883-26.493c-.894-4.027-4.875-6.566-8.912-5.674-4.028.894-6.568 4.885-5.673 8.913l5.053 22.755h-41.142l16.602-74.708h7.936l4.308 19.391c.895 4.028 4.88 6.572 8.913 5.673 4.027-.894 6.567-4.885 5.672-8.913l-5.608-25.241c-.759-3.419-3.79-5.851-7.292-5.851h-19.922c-3.502 0-6.533 2.432-7.293 5.85l-18.733 84.298h-8.838c-20.597 0-37.354 16.757-37.354 37.354v22.531c-13.941 1.263-24.903 13.01-24.903 27.275v90.008c0 4.126 3.344 7.471 7.471 7.471 4.126 0 7.471-3.345 7.471-7.471v-39.041h184.28v202.482h-15.111c-4.126 0-7.471 3.345-7.471 7.471s3.344 7.471 7.471 7.471h15.111v38.908c0 6.866-5.586 12.451-12.451 12.451h-159.378c-6.866 0-12.451-5.586-12.451-12.451v-38.908h136.606c4.126 0 7.471-3.345 7.471-7.471s-3.344-7.471-7.471-7.471h-136.606v-130.888c0-4.126-3.344-7.471-7.471-7.471-4.126 0-7.471 3.345-7.471 7.471v184.738c0 15.105 12.289 27.393 27.393 27.393h159.377c15.104 0 27.393-12.288 27.393-27.393v-307.3c.001-14.264-10.961-26.011-24.902-27.274zm-149.416-22.531c0-12.358 10.054-22.412 22.412-22.412h89.65c12.358 0 22.412 10.054 22.412 22.412v22.412h-22.412v-22.412c0-4.126-3.344-7.471-7.471-7.471-4.126 0-7.471 3.345-7.471 7.471v22.412h-22.412v-22.412c0-4.126-3.344-7.471-7.471-7.471s-7.471 3.345-7.471 7.471v22.412h-22.412v-22.412c0-4.126-3.344-7.471-7.471-7.471-4.126 0-7.471 3.345-7.471 7.471v22.412h-22.412zm-24.903 85.831v-36.026c0-6.866 5.586-12.451 12.451-12.451h159.377c6.866 0 12.451 5.586 12.451 12.451v36.026z"/><path d="m258.519 254.726c-4.126 0-7.471 3.345-7.471 7.471v11.852c-13.417 3.349-23.388 15.5-23.388 29.939v29.842c0 14.323-2.232 28.498-6.632 42.129l-5.997 18.578c-3.634 11.258 12.772 9.936 17.609 7.659 16.017-3.482 30.502-12.427 40.788-25.188 10.286-12.762 15.95-28.816 15.95-45.207v-27.813c0-14.44-9.971-26.59-23.388-29.939v-11.852c0-4.126-3.344-7.471-7.471-7.471zm15.918 49.262v27.813c0 25.344-17.085 47.796-41.15 54.822l1.961-6.073c4.879-15.117 7.354-30.836 7.354-46.72v-29.842c0-8.777 7.14-15.917 15.917-15.917 8.778 0 15.918 7.141 15.918 15.917z"/></g></g></svg>