<svg id="Capa_1" enable-background="new 0 0 512 512" height="512" viewBox="0 0 512 512" width="512" xmlns="http://www.w3.org/2000/svg"><g><path d="m335.611 504.529h-159.222c-11.046 0-20-8.954-20-20v-307.144c0-11.046 8.954-20 20-20h159.222c11.046 0 20 8.954 20 20v307.144c0 11.046-8.954 20-20 20z" fill="#ffe177"/><path d="m226.117 504.529h-49.805c-11.007 0-19.922-8.915-19.922-19.922v-307.3c0-11.007 8.915-19.922 19.922-19.922h49.805c-11.007 0-19.922 8.915-19.922 19.922v307.3c0 11.007 8.915 19.922 19.922 19.922z" fill="#ffd15b"/><path d="m300.708 97.619h-89.416c-16.569 0-30 13.431-30 30v29.767h149.416v-29.767c0-16.569-13.431-30-30-30z" fill="#fef0ae"/><path d="m156.389 220.804h199.222v217.422h-199.222z" fill="#fef0ae"/><path d="m156.389 220.807h49.805v217.421h-49.805z" fill="#ffe177"/><path d="m246.039 7.471h19.922l19.922 89.65h-59.766z" fill="#ffe177"/><path d="m269.198 385.546h-26.397c-25.719 0-46.568-20.849-46.568-46.568 0-25.719 20.849-46.568 46.568-46.568h26.397c25.719 0 46.568 20.849 46.568 46.568.001 25.719-20.849 46.568-46.568 46.568z" fill="#fd8087"/><path d="m275.922 385.056c-2.191.329-4.443.488-6.724.488h-26.397c-25.72 0-46.568-20.849-46.568-46.568 0-12.86 5.21-24.504 13.637-32.931s20.072-13.637 32.931-13.637h26.397c2.281 0 4.532.159 6.724.488-10.17 1.464-19.275 6.216-26.208 13.149-8.427 8.427-13.637 20.072-13.637 32.931.001 23.438 17.313 42.823 39.845 46.08z" fill="#fe646f"/><path d="m338.179 150.033v-22.531c0-20.597-16.757-37.354-37.354-37.354h-8.838l-18.733-84.298c-.76-3.418-3.791-5.85-7.293-5.85h-19.922c-3.501 0-6.533 2.432-7.293 5.85l-6.345 28.549c-.895 4.028 1.644 8.019 5.672 8.914 4.023.895 8.018-1.644 8.913-5.672l5.045-22.699h7.937l16.602 74.708h-41.14l4.325-19.457c.895-4.028-1.644-8.019-5.672-8.914-4.027-.9-8.019 1.644-8.913 5.672l-5.156 23.197h-8.838c-20.597 0-37.354 16.757-37.354 37.354v22.531c-13.941 1.263-24.903 13.01-24.903 27.275v200.825c0 4.126 3.344 7.471 7.471 7.471 4.126 0 7.471-3.345 7.471-7.471v-149.855h129.863c4.126 0 7.471-3.345 7.471-7.471s-3.344-7.471-7.471-7.471h-129.864v-36.029c0-6.866 5.586-12.451 12.451-12.451h159.377c6.866 0 12.451 5.586 12.451 12.451v36.029h-21.855c-4.126 0-7.471 3.345-7.471 7.471s3.344 7.471 7.471 7.471h21.855v202.477h-184.279v-20.059c0-4.126-3.344-7.471-7.471-7.471-4.126 0-7.471 3.345-7.471 7.471v73.911c0 15.105 12.289 27.393 27.393 27.393h159.377c15.104 0 27.393-12.288 27.393-27.393v-307.3c.001-14.264-10.961-26.011-24.902-27.274zm-37.354-.119v-23.409c0-4.126-3.344-7.471-7.471-7.471-4.126 0-7.471 3.345-7.471 7.471v23.409h-22.412v-23.409c0-4.126-3.344-7.471-7.471-7.471s-7.471 3.345-7.471 7.471v23.409h-22.412v-23.409c0-4.126-3.344-7.471-7.471-7.471-4.126 0-7.471 3.345-7.471 7.471v23.409h-22.412v-22.412c0-12.358 10.054-22.412 22.412-22.412h89.65c12.358 0 22.412 10.054 22.412 22.412v22.412zm34.864 347.144h-159.378c-6.866 0-12.451-5.586-12.451-12.451v-38.91h184.28v38.91c0 6.866-5.586 12.451-12.451 12.451z"/><path d="m188.763 338.978c0 29.797 24.242 54.039 54.039 54.039h26.397c29.797 0 54.039-24.242 54.039-54.039 0-21.478-12.597-40.066-30.788-48.773l14.193-12.016c3.15-2.666 3.541-7.38.875-10.529-2.667-3.149-7.379-3.542-10.529-.875l-21.839 18.488c-3.794-.418-7.839-.41-11.679-.335v-19.424c0-4.126-3.344-7.471-7.471-7.471s-7.471 3.345-7.471 7.471v19.424c-3.84-.075-7.885-.083-11.679.335l-21.839-18.488c-3.151-2.666-7.864-2.274-10.529.875s-2.274 7.863.875 10.529l14.193 12.016c-18.19 8.707-30.787 27.295-30.787 48.773zm54.039-39.097h26.397c21.558 0 39.097 17.539 39.097 39.097s-17.539 39.097-39.097 39.097h-26.397c-21.558 0-39.097-17.539-39.097-39.097-.001-21.558 17.538-39.097 39.097-39.097z"/></g></svg>