<svg id="Capa_1" enable-background="new 0 0 512 512" height="512" viewBox="0 0 512 512" width="512" xmlns="http://www.w3.org/2000/svg"><g><g><path d="m7.5 76h497v360h-497z" fill="#fec165"/><path d="m7.5 76h50v360h-50z" fill="#fdb441"/><path d="m63.287 116h124.426v280h-124.426z" fill="#57be92"/><path d="m63.29 116h50v280h-50z" fill="#22b27f"/><path d="m258.676 357-251.176-69v148h251.176z" fill="#fece85"/><path d="m57.5 301.74v134.26h-50v-148z" fill="#fec165"/><path d="m470 395-42.215-20-41.392 20-41.393-20-45 20v-280h170z" fill="#eaf6ff"/><circle cx="125.5" cy="256" fill="#ffe177" r="27.5"/><path d="m405 135.667h-37.333c-16.569 0-30-13.431-30-30v-29.667h97.333v29.667c0 16.568-13.431 30-30 30z" fill="#fece85"/></g><g><g><g><path d="m427.785 183.5h-82.785c-4.142 0-7.5-3.357-7.5-7.5s3.358-7.5 7.5-7.5h82.785c4.142 0 7.5 3.357 7.5 7.5s-3.358 7.5-7.5 7.5z"/></g><g><path d="m372 221h-27c-4.142 0-7.5-3.357-7.5-7.5s3.358-7.5 7.5-7.5h27c4.142 0 7.5 3.357 7.5 7.5s-3.358 7.5-7.5 7.5z"/></g><g><path d="m427.785 221h-27c-4.142 0-7.5-3.357-7.5-7.5s3.358-7.5 7.5-7.5h27c4.142 0 7.5 3.357 7.5 7.5s-3.358 7.5-7.5 7.5z"/></g><g><path d="m372 258.5h-27c-4.142 0-7.5-3.357-7.5-7.5s3.358-7.5 7.5-7.5h27c4.142 0 7.5 3.357 7.5 7.5s-3.358 7.5-7.5 7.5z"/></g><g><path d="m427.785 258.5h-27c-4.142 0-7.5-3.357-7.5-7.5s3.358-7.5 7.5-7.5h27c4.142 0 7.5 3.357 7.5 7.5s-3.358 7.5-7.5 7.5z"/></g><g><path d="m372 296h-27c-4.142 0-7.5-3.357-7.5-7.5s3.358-7.5 7.5-7.5h27c4.142 0 7.5 3.357 7.5 7.5s-3.358 7.5-7.5 7.5z"/></g><g><path d="m427.785 296h-27c-4.142 0-7.5-3.357-7.5-7.5s3.358-7.5 7.5-7.5h27c4.142 0 7.5 3.357 7.5 7.5s-3.358 7.5-7.5 7.5z"/></g><g><path d="m427.785 335h-55.785c-4.142 0-7.5-3.357-7.5-7.5s3.358-7.5 7.5-7.5h55.785c4.142 0 7.5 3.357 7.5 7.5s-3.358 7.5-7.5 7.5z"/></g></g><g><path d="m504.5 357.49c4.142 0 7.5-3.357 7.5-7.5v-273.99c0-4.143-3.358-7.5-7.5-7.5h-101.76c-4.142 0-7.5 3.357-7.5 7.5s3.358 7.5 7.5 7.5h24.76v22.17c0 12.406-10.093 22.5-22.5 22.5h-37.33c-12.407 0-22.5-10.094-22.5-22.5v-22.17h24.88c4.142 0 7.5-3.357 7.5-7.5s-3.358-7.5-7.5-7.5h-362.55c-4.142 0-7.5 3.357-7.5 7.5v360c0 4.143 3.358 7.5 7.5 7.5h497c4.142 0 7.5-3.357 7.5-7.5v-53.32c0-4.143-3.358-7.5-7.5-7.5s-7.5 3.357-7.5 7.5v45.82h-230.824v-345h63.994s.017 23.393.046 24h-30.216c-4.142 0-7.5 3.357-7.5 7.5v280c0 5.498 6.02 8.865 10.546 6.854l41.822-18.588 38.259 18.487c2.061.996 4.464.996 6.525 0l38.169-18.438 38.967 18.463c6.058 1.673 9.629-.586 10.711-6.777v-280.001c0-4.143-3.358-7.5-7.5-7.5h-27.546c.029-.607.046-24 .046-24h54.501v266.49c0 4.143 3.358 7.5 7.5 7.5zm-489.5 71.01v-130.661l92.173 25.323c3.798.992 6.871-.756 9.219-5.245 1.098-3.994-1.251-8.122-5.245-9.22l-40.357-11.087v-174.11h109.42v204.164l-36.383-9.996c-3.997-1.097-8.122 1.251-9.219 5.245s1.251 8.122 5.245 9.22l111.323 30.584v65.783zm236.176-81.34-55.966-15.375v-215.785c0-4.143-3.358-7.5-7.5-7.5h-124.42c-4.142 0-7.5 3.357-7.5 7.5v177.489l-40.79-11.207v-198.782h236.176zm211.324-224.66v260.647l-31.499-14.925c-2.051-.973-4.431-.963-6.474.024l-38.137 18.424-38.127-18.424c-1.985-.961-4.293-.998-6.309-.101l-34.454 15.314v-260.959h26.674c6.178 12.246 18.868 20.67 33.496 20.67h37.33c14.628 0 27.317-8.424 33.496-20.67z"/><path d="m160.5 256c0-19.299-15.701-35-35-35s-35 15.701-35 35 15.701 35 35 35 35-15.701 35-35zm-35 20c-11.028 0-20-8.972-20-20s8.972-20 20-20 20 8.972 20 20-8.972 20-20 20z"/></g></g></g></svg>