<svg id="Capa_1" enable-background="new 0 0 511.997 511.997" height="512" viewBox="0 0 511.997 511.997" width="512" xmlns="http://www.w3.org/2000/svg"><g><g><path d="m365.95 504.494h-219.903c-16.561 0-29.987-13.426-29.987-29.987v-198.366c0-32.49 8.623-64.398 24.989-92.465 16.366-28.067 24.989-59.975 24.989-92.465v-3.745h179.92v3.745c0 32.49 8.623 64.398 24.989 92.465 16.366 28.067 24.989 59.975 24.989 92.465v198.366c.001 16.561-13.425 29.987-29.986 29.987z" fill="#eaf6ff"/><path d="m156.043 276.14v198.372c0 16.553 13.424 29.987 29.987 29.987h-39.982c-16.563 0-29.987-13.434-29.987-29.987v-198.372c0-32.486 8.626-64.401 24.989-92.459v-.01c16.363-28.058 24.989-59.973 24.989-92.459v-3.748h39.982v3.748c0 32.486-8.626 64.401-24.989 92.459v.01c-16.363 28.057-24.989 59.973-24.989 92.459z" fill="#d8ecfe"/><path d="m344.959 87.466h-177.921c-11.041 0-19.991-8.95-19.991-19.991 0-11.041 8.95-19.991 19.991-19.991h177.921c11.041 0 19.991 8.95 19.991 19.991 0 11.04-8.95 19.991-19.991 19.991z" fill="#b3dafe"/><path d="m207.02 87.463h-39.982c-11.045 0-19.991-8.946-19.991-19.991 0-5.518 2.239-10.515 5.857-14.134s8.616-5.857 14.134-5.857h39.982c-5.518 0-10.515 2.239-14.134 5.857s-5.857 8.616-5.857 14.134c0 11.045 8.946 19.991 19.991 19.991z" fill="#8ac9fe"/><path d="m347.386 47.483h-182.775v-24.982c0-8.284 6.716-15 15-15h152.775c8.284 0 15 6.716 15 15z" fill="#eaf6ff"/><path d="m219.585 7.499c-8.276 0-14.993 6.717-14.993 14.993v24.989h-39.982v-24.989c0-8.276 6.717-14.993 14.993-14.993z" fill="#d8ecfe"/><path d="m171.036 464.511c-8.281 0-14.993-6.713-14.993-14.993v-173.377c0-25.385 19.546-72.325 19.546-72.325 80.412 27.964 71.414-22.014 160.819 0 0 0 19.546 46.94 19.546 72.325v173.377c0 8.281-6.713 14.993-14.993 14.993z" fill="#fff"/><path d="m212.228 212.278c-5.578 14.694-16.203 45.14-16.203 63.862v188.367h-24.989c-8.281 0-14.993-6.713-14.993-14.993v-173.374c0-25.389 19.541-72.328 19.541-72.328 14.874 5.177 26.698 7.686 36.644 8.466z" fill="#eaf6ff"/></g><g><path d="m395.938 304.957c4.142 0 7.5-3.357 7.5-7.5v-21.32c0-33.678-9.049-67.145-26.011-96.238-15.276-26.194-23.513-55.979-23.929-86.286 23.883-7.777 24.907-42.626 1.387-51.772v-19.341c0-12.406-10.093-22.5-22.5-22.5h-152.774c-12.407 0-22.5 10.094-22.5 22.5v19.326c-23.334 9.029-22.712 43.887 1.396 51.778-.418 30.204-8.698 60.18-23.938 86.295-17.017 29.187-26.011 62.465-26.011 96.237v198.37c0 20.672 16.818 37.49 37.49 37.49h219.9c20.672 0 37.49-16.818 37.49-37.49v-144.359c0-4.143-3.358-7.5-7.5-7.5s-7.5 3.357-7.5 7.5v144.359c0 12.401-10.089 22.49-22.49 22.49h-219.9c-12.401 0-22.49-10.089-22.49-22.49v-198.37c0-31.121 8.289-61.787 23.967-88.68 16.257-27.856 25.332-60.26 25.975-92.49h26.478c4.142 0 7.5-3.357 7.5-7.5s-3.358-7.5-7.5-7.5h-32.94c-16.096 0-16.173-24.858-.1-24.984h178.116c16.069.124 16.015 24.984-.096 24.984h-112.3c-4.142 0-7.5 3.357-7.5 7.5s3.358 7.5 7.5 7.5h105.837c.642 32.493 9.589 64.393 25.974 92.487 15.63 26.808 23.969 57.649 23.969 88.683v21.32c0 4.144 3.358 7.501 7.5 7.501zm-216.327-289.957h152.774c4.136 0 7.5 3.364 7.5 7.5v17.478h-167.774v-17.478c0-4.136 3.365-7.5 7.5-7.5z"/><path d="m340.958 457.007h-44.3c-4.142 0-7.5 3.357-7.5 7.5s3.358 7.5 7.5 7.5h44.3c12.407 0 22.5-10.089 22.5-22.49v-173.38c0-26.574-19.305-73.229-20.126-75.203-.915-2.197-2.819-3.829-5.13-4.398-46.17-11.372-67.928-4.203-87.125 2.123-18.596 6.126-34.655 11.417-73.025-1.925-3.749-1.303-7.861.538-9.387 4.2-.822 1.974-20.126 48.629-20.126 75.203v173.38c0 12.401 10.093 22.49 22.5 22.49h92.94c4.142 0 7.5-3.357 7.5-7.5s-3.358-7.5-7.5-7.5h-92.94c-4.136 0-7.5-3.36-7.5-7.49v-173.38c0-18.235 11.235-49.523 16.415-62.979 38.517 12.037 57.462 5.794 75.817-.254 17.577-5.791 35.736-11.772 75.126-2.691 4.399 11.156 17.562 46.187 17.562 65.924v173.38c-.001 4.129-3.365 7.49-7.501 7.49z"/></g></g></svg>