<svg id="Capa_1" enable-background="new 0 0 512 512" height="512" viewBox="0 0 512 512" width="512" xmlns="http://www.w3.org/2000/svg"><g><path d="m504.75 181.695c0 52.55-38.6 96.08-89 103.79v187.71c0 16.6-13.49 30.05-30.09 30h-260c-16.54-.05-29.91-13.46-29.91-30v-187.79c-50.15-7.92-88.5-51.33-88.5-103.71 0-57.99 47.01-105 105-105 3.87 0 7.69.22 11.45.62 28.83-42.05 77.21-69.64 132.05-69.64 54.86 0 103.26 27.62 132.09 69.7 3.91-.44 7.88-.68 11.91-.68 57.99 0 105 47.01 105 105z" fill="#eaf6ff"/><path d="m57.25 181.695c0 52.38 38.35 95.79 88.5 103.71v187.79c0 16.54 13.37 29.95 29.91 30h-50c-16.54-.05-29.91-13.46-29.91-30v-187.79c-50.15-7.92-88.5-51.33-88.5-103.71 0-57.99 47.01-105 105-105 3.87 0 7.69.22 11.45.62 28.83-42.05 77.21-69.64 132.05-69.64 8.51 0 16.86.66 25.01 1.94-44.38 6.96-82.7 32.17-107.06 67.7-3.76-.4-7.58-.62-11.45-.62-57.99 0-105 47.01-105 105z" fill="#d8ecfe"/><path d="m415.75 434.855v38.34c0 16.6-13.49 30.05-30.09 30h-260c-16.54-.05-29.91-13.46-29.91-30v-38.34z" fill="#b3dafe"/><path d="m175.66 503.195h-50c-16.54-.05-29.91-13.46-29.91-30v-38.34h50v38.34c0 16.54 13.37 29.95 29.91 30z" fill="#8ac9fe"/><g><path d="m415.594 367.306c-4.139 0-7.493 3.354-7.493 7.493v52.239h-216.848c-4.138 0-7.493 3.354-7.493 7.493s3.355 7.493 7.493 7.493h216.848v31.439c0 11.155-11.166 22.478-22.544 22.478l-260.05-.04c-12.357-.037-22.108-11.33-22.108-23.687v-30.19h55.196c4.138 0 7.493-3.354 7.493-7.493s-3.355-7.493-7.493-7.493h-55.196v-134.372h30.29c9.688 0 9.688-14.985 0-14.985h-37.137c-47.294-7.727-81.567-48.056-81.567-96.113 0-53.333 43.087-96.784 96.28-97.391-4.442 8.587-9.029 19.171-13.877 32.016-3.773 9.993 10.779 13.875 14.02 5.292 6.757-17.902 12.862-31.001 18.661-40.043 28.476-41.474 75.451-66.232 125.681-66.232 26.528 0 53.314 7.14 76.257 20.43 3.58 2.073 8.165.854 10.239-2.729 2.074-3.58.853-8.165-2.729-10.239-25.329-14.671-54.504-22.447-83.767-22.447-53.74 0-104.084 25.794-135.561 69.225-63.86-4.406-120.189 48.026-120.189 112.117 0 52.197 37.453 98.719 88.414 109.822v181.713c0 20.595 16.453 38.61 37.047 38.672h260.05c19.985 0 37.576-17.426 37.576-37.463v-99.513c0-4.138-3.354-7.492-7.493-7.492z"/><path d="m399.61 69.177c-2.718 0-5.488.104-8.275.31-5.316-7.332-11.238-14.251-17.646-20.613-2.936-2.914-7.68-2.9-10.596.038-2.915 2.937-2.899 7.68.038 10.596 18.241 18.11 28.337 37.934 37.412 61.976 3.24 8.589 17.79 4.696 14.02-5.292-4.848-12.845-9.435-23.43-13.877-32.017 53.215.579 96.33 44.041 96.33 97.391 0 47.366-35.015 88.502-81.599 96.113h-36.47c-4.139 0-7.493 3.354-7.493 7.493s3.354 7.493 7.493 7.493h29.155v49.485c0 4.139 3.354 7.493 7.493 7.493s7.493-3.354 7.493-7.493v-50.65c51.195-10.909 88.912-57.548 88.912-109.933 0-61.972-50.419-112.39-112.39-112.39z"/><path d="m244.511 333.04v47.114c0 4.139 3.355 7.493 7.493 7.493s7.493-3.354 7.493-7.493v-47.114c0-4.139-3.355-7.493-7.493-7.493s-7.493 3.354-7.493 7.493z"/><path d="m167.431 333.04v47.114c0 4.139 3.355 7.493 7.493 7.493s7.493-3.354 7.493-7.493v-47.114c0-4.139-3.355-7.493-7.493-7.493s-7.493 3.354-7.493 7.493z"/><path d="m329.084 325.547c-4.139 0-7.493 3.354-7.493 7.493v47.114c0 4.139 3.354 7.493 7.493 7.493s7.493-3.354 7.493-7.493v-47.114c0-4.139-3.355-7.493-7.493-7.493z"/></g></g></svg>