<svg id="Capa_1" enable-background="new 0 0 512 512" height="512" viewBox="0 0 512 512" width="512" xmlns="http://www.w3.org/2000/svg"><g><g><path d="m236 356.95h40v145.1h-40z" fill="#fece85"/><path d="m276 356.95v10h-10c-5.523 0-10 4.477-10 10v125.1h-20v-145.1z" fill="#fec165"/><path d="m51.905 433.079h50v68.971h-50z" fill="#fece85"/><path d="m101.91 433.08v10h-20c-5.523 0-10 4.477-10 10v48.97h-20v-68.97z" fill="#fec165"/><path d="m411.405 432.5h50v69.55h-50z" fill="#fece85"/><path d="m461.41 432.5v10h-20c-5.523 0-10 4.477-10 10v49.55h-20v-69.55z" fill="#fec165"/><path d="m323.5 356.95h-135c-12.426 0-22.5-10.074-22.5-22.5 0-12.426 10.074-22.5 22.5-22.5h135c12.426 0 22.5 10.074 22.5 22.5 0 12.426-10.074 22.5-22.5 22.5z" fill="#fece85"/><path d="m238.5 356.95h-50c-12.43 0-22.5-10.07-22.5-22.5 0-6.22 2.52-11.84 6.59-15.91s9.69-6.59 15.91-6.59h50c-6.22 0-11.84 2.52-15.91 6.59s-6.59 9.69-6.59 15.91c0 12.43 10.07 22.5 22.5 22.5z" fill="#fec165"/><path d="m124.225 432.5h-94.64c-11.474 0-20.775-9.301-20.775-20.775 0-11.474 9.301-20.775 20.775-20.775h94.64c11.474 0 20.775 9.301 20.775 20.775 0 11.473-9.301 20.775-20.775 20.775z" fill="#fece85"/><path d="m79.59 432.5h-50c-11.48 0-20.78-9.3-20.78-20.77 0-5.74 2.33-10.94 6.09-14.7s8.95-6.08 14.69-6.08h50c-5.74 0-10.93 2.32-14.69 6.08s-6.09 8.96-6.09 14.7c0 11.47 9.3 20.77 20.78 20.77z" fill="#fec165"/><path d="m483.725 432.5h-94.64c-11.474 0-20.775-9.301-20.775-20.775 0-11.474 9.301-20.775 20.775-20.775h94.64c11.474 0 20.775 9.301 20.775 20.775 0 11.473-9.301 20.775-20.775 20.775z" fill="#fece85"/><path d="m439.09 432.5h-50c-11.48 0-20.78-9.3-20.78-20.77 0-5.74 2.33-10.94 6.09-14.7s8.95-6.08 14.69-6.08h50c-5.74 0-10.93 2.32-14.69 6.08s-6.09 8.96-6.09 14.7c0 11.47 9.3 20.77 20.78 20.77z" fill="#fec165"/><path d="m464.5 162.158h-78.5c-22.091 0-40-17.909-40-40h158.5c0 22.091-17.909 40-40 40z" fill="#fe99a0"/><path d="m126 162.158h-78.5c-22.091 0-40-17.909-40-40h158.5c0 22.091-17.909 40-40 40z" fill="#fe99a0"/><path d="m306 162.158h-100c-22.091 0-40-17.909-40-40h180c0 22.091-17.909 40-40 40z" fill="#fd8087"/><path d="m7.5 122.158 248.5-112.208 248.5 112.208z" fill="#fd8087"/><path d="m166 122.158 90-112.208 90 112.208z" fill="#fe99a0"/></g><g><path d="m323.5 304.45h-60v-134.792h42.5c16.782 0 31.549-8.757 40-21.932 8.449 13.177 23.217 21.932 40 21.932h78.5c26.191 0 47.5-21.309 47.5-47.5-.233-3.278-1.704-5.556-4.413-6.834l-99.75-45.04c-3.779-1.706-8.218-.025-9.923 3.749-1.704 3.775-.025 8.218 3.749 9.923l67.996 30.702-120.06.001-68.176-84.999 87.549 39.535c3.776 1.709 8.218.027 9.922-3.748 1.705-3.774.027-8.217-3.748-9.922l-116.06-52.41c-1.963-.887-4.211-.886-6.174-.001l-248.318 112.129c-.073.031-.143.067-.214.101-2.583 1.185-4.38 3.787-4.38 6.815 0 26.191 21.309 47.499 47.5 47.499h78.5c16.783 0 31.55-8.755 39.999-21.933 8.452 13.176 23.218 21.933 40.001 21.933h42.5v134.792h-26.16c-4.143 0-7.5 3.357-7.5 7.5s3.357 7.5 7.5 7.5h101.16c8.271 0 15 6.729 15 15-.858 9.142-5.858 14.142-15 15h-135c-8.271 0-15-6.729-15-15 .878-9.357 7.608-14.227 16.16-15 9.697 0 9.697-15 0-15-16.615 1.17-31.16 11.873-31.16 30 0 16.542 13.458 30 30 30h40v137.6c0 4.143 3.357 7.5 7.5 7.5h40c4.143 0 7.5-3.357 7.5-7.5v-137.6h40c16.369 0 30-13.631 30-30 0-16.542-13.458-30-30-30zm172.627-174.791c-3.395 14.316-16.286 24.999-31.627 24.999h-78.5c-15.341 0-28.232-10.683-31.627-25zm-240.127-107.722 74.37 92.721-148.741.001zm-130 132.721h-78.5c-15.341 0-28.232-10.683-31.627-25l141.754.001c-3.395 14.316-16.286 24.999-31.627 24.999zm36.401-40-120.065.001 188.242-85zm11.972 15 163.254.001c-3.395 14.316-16.287 24.999-31.627 24.999h-100c-15.34 0-28.232-10.683-31.627-25zm94.127 364.892h-25v-130.1h25z"/><path d="m124.225 383.45h-94.64c-15.591 0-28.274 12.685-28.274 28.275s12.684 28.274 28.274 28.274h14.82v62.051c0 4.143 3.357 7.5 7.5 7.5h50c4.143 0 7.5-3.357 7.5-7.5v-62.051h14.819c15.591 0 28.275-12.684 28.275-28.274s-12.684-28.275-28.274-28.275zm-29.82 111.1h-35v-53.971h35zm29.82-69.551h-94.64c-7.319 0-13.274-5.955-13.274-13.274 0-7.32 5.955-13.275 13.274-13.275h94.64c7.32 0 13.275 5.955 13.275 13.275 0 7.319-5.955 13.274-13.275 13.274z"/><path d="m483.72 383.45h-5.97c-4.143 0-7.5 3.357-7.5 7.5s3.357 7.5 7.5 7.5h5.97c7.323 0 13.28 5.957 13.28 13.28-.755 8.094-5.181 12.517-13.28 13.27h-94.63c-7.323 0-13.28-5.953-13.28-13.27.76-8.096 5.187-12.523 13.28-13.28h55.97c4.143 0 7.5-3.357 7.5-7.5s-3.357-7.5-7.5-7.5h-55.97c-17.236 1.615-26.663 11.042-28.28 28.28 0 15.588 12.687 28.27 28.28 28.27h14.815v62.051c0 4.143 3.357 7.5 7.5 7.5h50c4.143 0 7.5-3.357 7.5-7.5v-62.051h14.814c17.241-1.608 26.668-11.031 28.28-28.27.001-15.594-12.686-28.28-28.279-28.28zm-29.815 111.1h-35v-54.551h35z"/></g></g></svg>