<svg id="Capa_1" enable-background="new 0 0 511.213 511.213" height="512" viewBox="0 0 511.213 511.213" width="512" xmlns="http://www.w3.org/2000/svg"><g><g><path d="m478.956 39.13c-2.189-12.117-13.96-19.907-25.888-17.307l-38.745 8.436c-44.124 9.607-83.41 34.554-110.869 70.404l-19.744 25.778h-117.095c-10.023 0-17.648 9-16 18.887l3.148 18.887c2.607 15.643 16.141 27.108 32 27.108h85.615c13.604 0 19.732-4.206 26.268-11.944l40.147-52.414c21.233-27.722 51.612-47.013 85.732-54.441l38.239-8.325c11.457-2.496 19.276-13.53 17.192-25.069z" fill="#eaf6ff"/><path d="m225.767 191.323h-40c-15.86 0-29.4-11.47-32-27.11l-3.15-18.89c-1.65-9.88 5.97-18.88 16-18.88h40c-10.03 0-17.65 9-16 18.88l3.15 18.89c2.6 15.64 16.14 27.11 32 27.11z" fill="#d8ecfe"/><path d="m338.107 503.322h-165c-11.046 0-20-8.954-20-20 0-11.046 8.954-20 20-20h165c11.046 0 20 8.954 20 20 0 11.046-8.955 20-20 20z" fill="#c4e2ff"/><path d="m223.107 503.323h-50c-11.05 0-20-8.96-20-20 0-5.53 2.24-10.53 5.86-14.14 3.62-3.62 8.62-5.86 14.14-5.86h50c-5.52 0-10.52 2.24-14.14 5.86-3.62 3.61-5.86 8.61-5.86 14.14 0 11.04 8.95 20 20 20z" fill="#b3dafe"/><path d="m333.603 463.322h-155.992c-80.462 0-145.689-65.227-145.689-145.689v-54.919c0-16.569 13.431-30 30-30h387.371c16.569 0 30 13.431 30 30v54.919c-.001 80.462-65.228 145.689-145.69 145.689z" fill="#eaf6ff"/><path d="m227.607 463.323h-50c-80.46 0-145.69-65.23-145.69-145.69v-54.92c0-16.57 13.44-30 30-30h50c-16.56 0-30 13.43-30 30v54.92c0 80.46 65.23 145.69 145.69 145.69z" fill="#d8ecfe"/><path d="m95.597 379.333h-49.99l-.02-.01c-8.77-18.73-13.67-39.64-13.67-61.69v-35.8h50v35.8c0 22.06 4.9 42.97 13.68 61.7z" fill="#b3dafe"/><path d="m479.297 281.833v35.8c0 22.05-4.9 42.96-13.67 61.69l-.02.01h-420l-.02-.01c-8.77-18.73-13.67-39.64-13.67-61.69v-35.8z" fill="#c4e2ff"/><path d="m95.597 379.333h-49.99l-.02-.01c-8.77-18.73-13.67-39.64-13.67-61.69v-35.8h50v35.8c0 22.06 4.9 42.97 13.68 61.7z" fill="#b3dafe"/></g><g><path d="m449.297 225.605h-387.38c-20.678 0-37.5 16.822-37.5 37.5v54.92c0 72.825 53.906 137.627 125.648 150.705-11.774 18.044 1.685 42.483 23.042 42.483h165c21.357 0 34.816-24.439 23.042-42.483 71.739-13.078 125.648-77.843 125.648-150.705v-54.92c0-20.678-16.823-37.5-37.5-37.5zm-387.38 15h387.38c12.407 0 22.5 10.094 22.5 22.5v11.62h-330.35c-4.142 0-7.5 3.357-7.5 7.5s3.358 7.5 7.5 7.5h330.35v28.3c0 19.229-3.953 37.551-11.08 54.203h-410.22c-7.128-16.652-11.08-34.974-11.08-54.203v-28.3h69.35c4.142 0 7.5-3.357 7.5-7.5s-3.358-7.5-7.5-7.5h-69.35v-11.62c0-12.406 10.093-22.5 22.5-22.5zm271.69 215.61h-13.96c-4.142 0-7.5 3.357-7.5 7.5s3.358 7.5 7.5 7.5c0 0 18.187-.002 18.46-.002 16.158 0 16.158 25 0 25h-165c-16.158 0-16.158-25 0-25 .273 0 113.85.002 113.85.002 4.142 0 7.5-3.357 7.5-7.5s-3.358-7.5-7.5-7.5h-109.35c-51 0-95.631-27.774-119.575-68.987h395.151c-23.945 41.214-68.576 68.987-119.576 68.987z"/><path d="m146.368 165.835c3.215 19.343 19.784 33.381 39.398 33.381h85.61c16.367 0 24.378-5.59 31.999-14.609.077-.092 40.375-52.69 40.375-52.69 20.125-26.277 49.023-44.628 81.372-51.673l38.238-8.328c15.417-3.354 25.724-18.48 22.977-33.724-2.779-15.381-18.701-26.822-34.865-23.305l-9.33 2.029c-4.048.881-6.615 4.876-5.735 8.923.88 4.048 4.878 6.612 8.922 5.735l9.333-2.03c8.842-1.025 14.479 2.746 16.912 11.312 1.331 7.387-3.784 14.745-11.405 16.402l-38.24 8.329c-35.813 7.8-67.807 28.116-90.087 57.208l-40.039 52.265c-5.375 6.33-9.645 9.156-20.428 9.156h-85.61c-12.248 0-22.594-8.765-24.602-20.844l-3.151-18.892c-.269-6.039 2.598-9.42 8.603-10.145h117.09c2.334 0 4.535-1.086 5.954-2.938l19.75-25.781c25.632-33.462 62.34-57.232 103.361-66.932 4.031-.953 6.526-4.994 5.573-9.024-.953-4.031-4.995-6.523-9.024-5.573-44.377 10.493-84.089 36.208-111.818 72.407l-17.499 22.842h-113.385c-16.335 1.975-24.134 11.18-23.398 27.613z"/><path d="m206.576 87.455c3.507 8.393 17.988 4.141 13.84-5.783-5.709-13.662-3.082-19.729.244-27.412 3.829-8.845 8.595-19.853-.319-39.762-1.693-3.779-6.128-5.475-9.91-3.779-3.78 1.692-5.473 6.129-3.78 9.91 6.215 13.88 3.71 19.665.244 27.671-3.782 8.735-8.488 19.606-.319 39.155z"/><path d="m157.852 77.394c3.507 8.393 17.988 4.141 13.84-5.783-5.709-13.662-3.082-19.729.244-27.412 3.829-8.845 8.595-19.853-.319-39.762-1.692-3.779-6.129-5.475-9.91-3.779-3.78 1.692-5.473 6.129-3.78 9.91 6.215 13.88 3.71 19.665.244 27.671-3.782 8.735-8.489 19.606-.319 39.155z"/><path d="m255.301 77.394c3.507 8.393 17.988 4.141 13.84-5.783-5.709-13.662-3.082-19.729.244-27.412 3.829-8.845 8.595-19.853-.319-39.762-1.693-3.779-6.128-5.475-9.91-3.779-3.78 1.692-5.473 6.129-3.78 9.91 6.215 13.88 3.71 19.665.244 27.671-3.783 8.735-8.489 19.606-.319 39.155z"/></g></g></svg>