<svg id="Capa_1" enable-background="new 0 0 512 512" height="512" viewBox="0 0 512 512" width="512" xmlns="http://www.w3.org/2000/svg"><g><g><path d="m117.76 151.481c0 1.75.03 3.492.089 5.227.772 22.571-5.162 44.913-17.342 63.932-17.897 27.946-28.467 61.032-28.995 96.555-1.515 101.9 82.228 187.117 184.141 187.305 102.061.188 184.856-82.491 184.856-184.508 0-36.874-10.822-71.217-29.458-100.036-12.519-19.36-18.675-42.026-18.165-65.075.025-1.13.038-2.263.038-3.4-.001-79.519-61.598-143.981-137.583-143.981-75.984 0-137.581 64.462-137.581 143.981z" fill="#57be92"/><path d="m255.727 464.5c-38.487-.07-74.846-15.528-102.379-43.526-27.553-28.018-42.413-64.662-41.84-103.185.4-26.896 8.244-53.03 22.684-75.578 16.524-25.802 24.696-55.841 23.634-86.872-.043-1.283-.066-2.583-.066-3.858 0-57.335 43.775-103.98 97.582-103.98s97.582 46.646 97.582 103.98c0 .836-.009 1.67-.027 2.502-.696 31.445 7.799 61.766 24.566 87.694 15.078 23.315 23.047 50.396 23.047 78.314 0 38.603-15.031 74.894-42.324 102.188-27.29 27.29-63.58 42.321-102.175 42.321-.006 0-.284 0-.284 0z" fill="#fef0ae"/><path d="m281.17 462.33c-8.23 1.44-16.64 2.17-25.16 2.17-.01 0-.28 0-.28 0-38.49-.07-74.85-15.53-102.38-43.53-27.56-28.01-42.42-64.66-41.84-103.18.4-26.9 8.24-53.03 22.68-75.58 16.53-25.8 24.7-55.84 23.64-86.87-.05-1.28-.07-2.58-.07-3.86 0-57.33 43.77-103.98 97.58-103.98 8.64 0 17.02 1.2 25 3.46-41.74 11.8-72.58 52.39-72.58 100.52 0 1.28.02 2.58.07 3.86 1.06 31.03-7.11 61.07-23.64 86.87-14.44 22.55-22.28 48.68-22.68 75.58-.58 38.52 14.28 75.17 41.84 103.18 21.59 21.96 48.61 36.2 77.82 41.36z" fill="#ffe177"/><ellipse cx="256" cy="319.991" fill="#fece85" rx="73" ry="73" transform="matrix(.383 -.924 .924 .383 -137.601 434.049)"/><path d="m281 388.58c-7.8 2.85-16.22 4.41-25 4.41-40.25 0-73-32.75-73-73s32.75-73 73-73c8.78 0 17.2 1.56 25 4.42-27.98 10.22-48 37.11-48 68.58s20.02 58.36 48 68.59z" fill="#fec165"/></g><g><g><path d="m256.005 512c-.125 0-.243 0-.369 0-51.29-.096-99.643-20.594-136.153-57.719-36.532-37.146-56.232-85.872-55.472-137.202.534-35.748 10.971-70.495 30.184-100.485 12.967-20.248 16.065-41.593 16.065-65.113 0-14.435 1.943-28.719 5.776-42.456 1.113-3.989 5.247-6.324 9.24-5.208 3.99 1.112 6.322 5.249 5.208 9.239-3.466 12.425-5.224 25.353-5.224 38.425 0 26.445-3.892 50.496-18.434 73.204-17.706 27.638-27.325 59.664-27.817 92.618-.7 47.285 17.472 92.197 51.168 126.461 33.675 34.241 78.24 53.148 125.487 53.236h.34c47.221 0 91.615-18.361 125.043-51.728 33.509-33.446 51.963-77.938 51.963-125.282 0-34.204-9.771-67.385-28.257-95.956-14.171-21.913-19.333-46.849-19.333-72.554 0-75.255-58.353-136.48-130.08-136.48-45.897 0-88.885 25.814-112.188 67.369-2.025 3.612-6.596 4.898-10.21 2.873-3.613-2.026-4.899-6.598-2.873-10.211 25.28-45.077 73.217-75.031 125.271-75.031 79.998 0 145.08 67.954 145.08 151.48 0 23.153 4.166 44.672 16.928 64.406 20.059 31.003 30.662 67.002 30.662 104.104 0 51.355-20.018 99.618-56.366 135.899-36.258 36.191-84.42 56.109-135.639 56.111z"/></g><g><path d="m256.01 472h-.28c-40.526-.074-78.78-16.329-107.728-45.772-28.978-29.45-44.602-68.002-43.991-108.551.421-28.295 8.673-55.79 23.863-79.512 16.948-26.452 22.386-55.866 22.386-86.685 0-61.47 47.139-111.48 105.08-111.48s105.08 50.01 105.08 111.48c-.108 7.813.205 15.619.939 23.416.482 4.114-2.462 7.84-6.576 8.322-4.122.467-7.84-2.463-8.322-6.576-.801-8.379-1.148-16.766-1.041-25.162 0-53.199-40.41-96.48-90.08-96.48s-90.08 43.281-90.08 96.48c0 33.863-6.219 65.845-24.755 94.775-13.683 21.368-21.116 46.143-21.496 71.646-.549 36.505 13.545 71.239 39.688 97.809 26.115 26.561 60.579 41.224 97.047 41.29h.266c36.592 0 70.993-14.249 96.867-40.124 25.88-25.88 40.133-60.288 40.133-96.886 0-26.473-7.555-52.144-21.847-74.236-7.053-10.908-12.757-22.639-16.957-34.868-1.345-3.918.74-8.184 4.658-9.529 3.917-1.342 8.185.74 9.529 4.658 3.804 11.079 8.974 21.708 15.365 31.593 15.865 24.524 24.251 53.013 24.251 82.383 0 40.604-15.813 78.779-44.526 107.493-28.706 28.706-66.875 44.516-107.473 44.516z"/></g><g><path d="m256 400.49c-3.765 0-7.542-.264-11.228-.783-4.102-.579-6.958-4.373-6.379-8.475s4.37-6.955 8.474-6.379c2.994.423 6.067.637 9.133.637 36.117 0 65.5-29.383 65.5-65.5s-29.383-65.5-65.5-65.5-65.5 29.383-65.5 65.5c0 20.858 10.109 40.662 27.041 52.975 3.35 2.436 4.091 7.126 1.655 10.477-2.437 3.349-7.127 4.092-10.477 1.654-20.801-15.125-33.219-39.464-33.219-65.105 0-44.388 36.112-80.5 80.5-80.5s80.5 36.112 80.5 80.5-36.112 80.499-80.5 80.499z"/></g></g></g></svg>