<svg id="Capa_1" enable-background="new 0 0 511.993 511.993" height="512" viewBox="0 0 511.993 511.993" width="512" xmlns="http://www.w3.org/2000/svg"><g><g><path d="m298.858 77.027h-87.15c36.71-18.63 64.61-41.19 79.53-69.53 15.91 20.74 16.6 44.25 7.62 69.53z" fill="#fe99a0"/><path d="m327.003 138.931h-142.01c-16.016 0-28.999-12.983-28.999-28.999v-3.909c0-16.016 12.983-28.999 28.999-28.999h142.01c16.016 0 28.999 12.983 28.999 28.999v3.909c0 16.015-12.983 28.999-28.999 28.999z" fill="#fd8087"/><path d="m234.998 138.927h-50c-16.02 0-29-12.98-29-29v-3.9c0-16.02 12.98-29 29-29h50c-16.02 0-29 12.98-29 29v3.9c0 16.02 12.98 29 29 29z" fill="#fe646f"/><path d="m355.576 200.838h-199.155c-16.016 0-28.999-12.983-28.999-28.999v-3.909c0-16.016 12.983-28.999 28.999-28.999h199.155c16.016 0 28.999 12.983 28.999 28.999v3.909c0 16.016-12.984 28.999-28.999 28.999z" fill="#fe99a0"/><path d="m206.418 200.837h-50c-16.01 0-29-12.98-29-29v-3.91c0-16.01 12.99-29 29-29h50c-16.01 0-29 12.99-29 29v3.91c0 16.02 12.99 29 29 29z" fill="#fd8087"/><path d="m379.386 262.745h-246.776c-16.016 0-28.999-12.983-28.999-28.999v-3.909c0-16.016 12.983-28.999 28.999-28.999h246.776c16.016 0 28.999 12.983 28.999 28.999v3.909c0 16.016-12.983 28.999-28.999 28.999z" fill="#fd8087"/><path d="m182.608 262.747h-50c-16.01 0-29-12.98-29-29v-3.91c0-16.02 12.99-29 29-29h50c-16.01 0-29 12.98-29 29v3.91c0 16.02 12.99 29 29 29z" fill="#fe646f"/><path d="m374.575 305.441h-237.153c-5.523 0-10-4.477-10-10v-22.696c0-5.523 4.477-10 10-10h237.153c5.523 0 10 4.477 10 10v22.696c0 5.523-4.477 10-10 10z" fill="#fece85"/><path d="m332.192 504.497h-152.387l-28.573-199.056h209.532z" fill="#fece85"/><path d="m357.898 325.437h-129.362c-9.133 0-16.146 8.092-14.848 17.132l23.25 161.928h-57.13l-28.58-199.06h209.54z" fill="#fec165"/></g><path d="m384.756 193.732c17.29-22.987 2.316-61.531-28.278-62.281 1.626-2.229 3.022-4.66 4.132-7.276 1.619-3.813-.16-8.216-3.973-9.834s-8.216.16-9.834 3.973c-3.381 7.964-11.155 13.11-19.807 13.11-.026 0-.051.004-.077.004h-141.845c-27.112-.254-29.924-46.903-.077-46.903h142c6.812 0 13.066 3.117 17.159 8.552 2.493 3.31 7.195 3.971 10.503 1.479 3.31-2.492 3.971-7.194 1.479-10.503-6.852-9.098-17.746-14.528-29.142-14.528h-18.003c6.577-25.411 2.629-47.776-11.806-66.595-4.586-4.236-8.782-3.879-12.587 1.07-13.159 25.002-37.615 46.446-74.715 65.523h-24.888c-30.261 0-47.216 37.686-29.452 61.926-30.515.723-45.736 39.114-28.308 62.282-38.007 5.629-42.044 62.035-6.695 74.454-.393 1.456-.623 2.978-.623 4.556v22.696c0 9.649 7.851 17.5 17.5 17.5h7.307l27.656 192.621c.53 3.693 3.693 6.435 7.424 6.435h152.38c3.73 0 6.894-2.742 7.424-6.435l15.51-108.04c.589-4.1-2.258-7.9-6.358-8.489-4.089-.588-7.9 2.258-8.489 6.358l-2.73 19.019-88.296 82.587h-62.941l-2.291-15.96 166.294-155.547-5.346 37.221c-.589 4.101 2.258 7.901 6.357 8.49 4.095.583 7.901-2.257 8.49-6.357l7.455-51.902h7.307c9.649 0 17.5-7.851 17.5-17.5v-22.696c0-1.578-.229-3.101-.623-4.556 35.351-12.419 31.314-68.826-6.693-74.454zm-93.339-171.902c6.852 13.8 7.488 29.539 1.996 47.693h-53.269c22.602-14.363 39.553-30.136 51.273-47.693zm42.72 416.301-8.45 58.862h-54.481zm-89.782-125.193-74.472 69.659-10.001-69.659zm-71.873 87.767 93.831-87.767h75.453l-160.35 149.988zm204.591-105.267c0 1.379-1.121 2.5-2.5 2.5h-237.153c-1.378 0-2.5-1.121-2.5-2.5v-22.696c0-1.372 1.111-2.487 2.481-2.498h237.191c1.37.011 2.481 1.126 2.481 2.498zm23.814-61.695c0 11.855-9.645 21.5-21.5 21.5h-246.78c-27.754 0-28.463-46.91 0-46.91h42.24c4.142 0 7.5-3.357 7.5-7.5s-3.358-7.5-7.5-7.5h-18.447c-27.74-.025-28.43-46.906.019-46.906h199.155c27.741 0 28.467 46.881.019 46.906h-148.066c-4.142 0-7.5 3.357-7.5 7.5s3.358 7.5 7.5 7.5h171.86c14.298 0 21.287 13.348 21.5 25.41z"/></g></svg>