<svg id="Capa_1" enable-background="new 0 0 512.082 512.082" height="512" viewBox="0 0 512.082 512.082" width="512" xmlns="http://www.w3.org/2000/svg"><g><g><circle cx="256.041" cy="304.936" fill="#ffe177" r="199.598"/><path d="m280.991 502.987c-8.173 1.018-16.497 1.547-24.95 1.547-110.238 0-199.598-89.36-199.598-199.598s89.36-199.598 199.598-199.598c8.453 0 16.776.529 24.95 1.547-98.462 12.275-174.649 96.266-174.649 198.051s76.187 185.776 174.649 198.051z" fill="#ffd15b"/><path d="m307.206 106.114h-33.581l.43-6.203c3.259-47.01 42.345-83.479 89.467-83.479h33.366c0 49.53-40.152 89.682-89.682 89.682z" fill="#57be92"/><path d="m363.522 16.431c-47.123 0-86.208 36.469-89.468 83.479l-.43 6.204h30l.43-6.204c3.259-47.01 42.345-83.479 89.468-83.479z" fill="#22b27f"/><path d="m240.624 73.497v90.538h33v-90.538c0-19.737-9.966-37.806-26.66-48.335l-23.886-15.065c-7.706-4.861-17.897-2.554-22.758 5.153-4.861 7.708-2.554 17.897 5.154 22.759l23.886 15.065c7.053 4.448 11.264 12.083 11.264 20.423z" fill="#dc8758"/></g><path d="m411.1 167.703c-22.532-25.432-50.724-44.725-81.955-56.516 17.577-4.037 33.711-12.919 46.778-25.986 2.824-2.777 3.363-7.862-.479-11.247-2.984-2.629-7.567-2.144-10.225.736-15.512 15.461-36.11 23.975-58.017 23.975h-25.528c3.851-42.026 39.453-74.684 81.844-74.684h25.533c-.809 9.001-3.081 17.723-6.785 26.017-1.688 3.782.009 8.218 3.79 9.907 3.782 1.688 8.217-.008 9.907-3.79 5.589-12.517 8.423-25.852 8.423-39.634 0-4.143-3.357-7.5-7.5-7.5h-33.368c-34.286 0-67.266 19.147-84.316 48.863-3.959-15.972-13.905-29.936-28.243-38.977l-23.884-15.072c-25.911-16.336-51.382 24.367-25.609 40.609l23.885 15.057c3.655 2.31 6.236 5.867 7.268 10.017.998 4.021 5.07 6.476 9.086 5.471 4.021-.998 6.47-5.066 5.471-9.086-1.967-7.921-6.873-14.698-13.818-19.087l-23.894-15.063c-10.597-6.63.197-21.165 9.61-15.23l23.883 15.071c14.502 9.145 23.16 24.841 23.16 41.986v83.04h-18v-56.22c0-4.143-3.357-7.5-7.5-7.5-3.713 0-6.788 2.701-7.387 6.243-102.686 11.49-183.09 100.004-184.282 203.449-.048 4.143 3.271 7.539 7.412 7.586.03.001.06.001.089.001 4.102 0 7.45-3.301 7.497-7.413 1.093-94.807 74.983-177.276 169.17-188.49v42.263c-9.397-.578-18.153-4.505-24.868-11.221-2.93-2.928-7.678-2.928-10.607 0-2.929 2.93-2.929 7.678 0 10.607 10.123 10.122 23.581 15.696 37.896 15.696h41c14.314 0 27.772-5.574 37.896-15.696 2.929-2.93 2.929-7.678 0-10.607-2.93-2.928-7.678-2.928-10.607 0-6.198 6.198-14.134 10.017-22.708 11.025v-41.792c95.237 12.416 167.019 94.247 167.019 190.472 0 105.924-86.175 192.099-192.099 192.099-94.128 0-175.77-70.057-189.908-162.957-.624-4.097-4.461-6.909-8.543-6.287-4.096.624-6.91 4.448-6.287 8.543 7.373 48.447 31.933 92.896 69.155 125.158 37.604 32.593 85.755 50.543 135.583 50.543 114.194 0 207.099-92.904 207.099-207.099-.002-50.653-18.482-99.407-52.037-137.28z"/></g></svg>