<svg id="Capa_1" enable-background="new 0 0 512 512" height="512" viewBox="0 0 512 512" width="512" xmlns="http://www.w3.org/2000/svg"><g><g><path d="m346 264 15-10v-70.27c0-24.002-14.304-45.694-36.365-55.149l-24.544-10.519c-5.515-2.364-9.091-7.787-9.091-13.787v-30.108h-70v30.109c0 6-3.576 11.424-9.091 13.787l-24.544 10.519c-22.061 9.454-36.365 31.147-36.365 55.148v70.27l15 10v113.168l-15 10v87.332c0 16.569 13.431 30 30 30h150c16.569 0 30-13.431 30-30v-87.332l-15-10z" fill="#eaf6ff"/><path d="m251 74.17v30.11c0 6-3.58 11.42-9.09 13.78l-24.55 10.52c-22.06 9.46-36.36 31.15-36.36 55.15v70.27l15 10v113.17l-15 10v87.33c0 16.57 13.43 30 30 30h-30c-16.57 0-30-13.43-30-30v-87.33l15-10v-113.17l-15-10v-70.27c0-24 14.3-45.69 36.36-55.15l24.55-10.52c5.51-2.36 9.09-7.78 9.09-13.78v-30.11z" fill="#d8ecfe"/><path d="m346 264v113.17l15 10v87.33c0 16.57-13.43 30-30 30h-150c-16.57 0-30-13.43-30-30v-87.33l15-10v-113.17l-15-10v-56.33c66 51.5 109.33-16 210 0v56.33z" fill="#c4e2ff"/><path d="m211 504.5h-30c-16.57 0-30-13.43-30-30v-87.33l15-10v-113.17l-15-10v-56.33c10.46 8.17 20.36 13.34 30 16.33v40l15 10v113.17l-15 10v87.33c0 16.57 13.43 30 30 30z" fill="#8ac9fe"/><path d="m166 264h30v113.17h-30z" fill="#8ac9fe"/><path d="m296.693 74.167h-81.387c-3.866 0-7-3.134-7-7v-52.667c0-3.866 3.134-7 7-7h81.387c3.866 0 7 3.134 7 7v52.667c0 3.866-3.134 7-7 7z" fill="#57be92"/><path d="m255.31 74.17h-40c-3.87 0-7-3.14-7-7v-52.67c0-3.87 3.13-7 7-7h40c-3.87 0-7 3.13-7 7v52.67c0 3.86 3.13 7 7 7z" fill="#22b27f"/><path d="m166 264h180v113.168h-180z" fill="#57be92"/><path d="m166 264h30v113.17h-30z" fill="#22b27f"/><path d="m292.898 332.582c0 24.302-16.52 44.003-36.898 44.003s-36.899-19.701-36.899-44.003 36.899-67.997 36.899-67.997 36.898 43.694 36.898 67.997z" fill="#eaf6ff"/><path d="m271 372.79c-4.58 2.44-9.66 3.79-15 3.79-20.38 0-36.9-19.7-36.9-44s36.9-68 36.9-68 7.05 8.36 15 19.8c-10.22 14.72-21.9 34.53-21.9 48.2 0 17.93 9 33.36 21.9 40.21z" fill="#d8ecfe"/></g><path d="m365.16 260.24c2.086-1.391 3.34-3.732 3.34-6.24v-70.27c0-27.034-16.056-51.388-40.906-62.044l-24.552-10.521c-2.759-1.182-4.542-3.884-4.542-6.885v-22.736c7.142-.895 12.69-6.994 12.69-14.375v-8.9c0-4.143-3.358-7.5-7.5-7.5s-7.5 3.357-7.5 7.5v8.4h-80.38v-51.669h80.38v10.58c0 4.143 3.358 7.5 7.5 7.5s7.5-3.357 7.5-7.5v-11.08c0-7.995-6.505-14.5-14.5-14.5h-81.38c-7.995 0-14.5 6.505-14.5 14.5v52.67c0 7.381 5.548 13.479 12.69 14.375v22.736c0 3.001-1.783 5.703-4.544 6.886l-24.552 10.521c-24.848 10.655-40.904 35.009-40.904 62.043v70.269c0 2.508 1.253 4.85 3.34 6.24l11.66 7.773v105.143l-11.66 7.773c-2.086 1.391-3.34 3.732-3.34 6.24v87.33c0 20.678 16.822 37.5 37.5 37.5h150c20.678 0 37.5-16.822 37.5-37.5v-24.23c0-4.143-3.358-7.5-7.5-7.5s-7.5 3.357-7.5 7.5v24.23c0 12.406-10.093 22.5-22.5 22.5h-150c-12.407 0-22.5-10.094-22.5-22.5v-83.316l9.773-6.516h175.453l9.773 6.516v26.396c0 4.143 3.358 7.5 7.5 7.5s7.5-3.357 7.5-7.5v-30.41c0-2.508-1.253-4.85-3.34-6.24l-11.66-7.773v-105.142zm-191.66 11.26h67.477c-11.56 15.423-29.375 42.248-29.375 61.082 0 14.555 5.241 27.71 13.638 37.086h-51.74zm82.5 5.054c11.518 14.905 29.398 41.201 29.398 56.028 0 20.128-13.188 36.503-29.398 36.503s-29.398-16.375-29.398-36.503c0-14.827 17.88-41.123 29.398-56.028zm15.023-5.054h67.477v98.168h-51.74c8.397-9.376 13.638-22.531 13.638-37.086 0-18.834-17.815-45.659-29.375-61.082zm-80.709-136.026 24.548-10.52c8.285-3.548 13.638-11.662 13.638-20.674v-22.61h55v22.61c0 9.012 5.353 17.126 13.636 20.673l24.548 10.52c21.254 9.114 32.687 31.132 31.816 53.597-33.631-3.955-60.538 1.032-82.66 6.598-4.017 1.011-6.461 5.089-5.443 9.104 1.104 4.354 5.316 6.355 9.104 5.443 21.149-5.322 46.91-10.091 79-6.038v45.81l-9.771 6.514h-175.459l-9.771-6.514v-38.032c26.365 15.894 54.579 14.527 83.36 7.076 4.01-1.038 6.419-5.131 5.381-9.141s-5.129-6.418-9.141-5.381c-26.306 6.812-50.542 10.678-79.6-10.572-1.884-24.146 8.403-48.425 31.814-58.463z"/></g></svg>