<svg id="Capa_1" enable-background="new 0 0 512 512" height="512" viewBox="0 0 512 512" width="512" xmlns="http://www.w3.org/2000/svg"><g><g><path d="m450.591 497.182h-389.182c-16.55 0-31.35-8.68-37.099-21.757l-16.81-38.243h497l-16.811 38.243c-5.748 13.077-20.549 21.757-37.098 21.757z" fill="#b3dafe"/><path d="m111.41 497.18h-50c-16.55 0-31.35-8.68-37.1-21.76l-16.81-38.24h50l16.81 38.24c5.75 13.08 20.55 21.76 37.1 21.76z" fill="#8ac9fe"/><g><g><path d="m495 275.82v37.93c0 38.6-31.4 70-70 70h-47.32c8.01-11.98 13.91-25.49 17.18-40h30.14c16.54 0 30-13.46 30-30v-37.93c0-16.54-13.46-30-30-30h-27.18v-38.84c0-.39-.01-.78-.03-1.16h27.21c38.6 0 70 31.4 70 70z" fill="#c4e2ff"/></g></g><path d="m277.821 437.182h-83.643c-66.274 0-120-53.726-120-120v-110.197c0-16.569 13.431-30 30-30h263.643c16.569 0 30 13.431 30 30v110.197c0 66.274-53.726 120-120 120z" fill="#eaf6ff"/><path d="m346.23 415.78c-19.4 13.49-42.98 21.4-68.41 21.4h-83.64c-66.28 0-120-53.72-120-120v-110.2c0-16.56 13.43-30 30-30h21.72c-1.12 3.13-1.72 6.49-1.72 10v110.2c0 66.28 53.72 120 120 120h83.64c6.26 0 12.41-.48 18.41-1.4z" fill="#d8ecfe"/><ellipse cx="236" cy="306.348" fill="#fec165" rx="51.5" ry="60"/></g><g><g><g><path d="m228.608 137.659c-12.042-28.815-5.392-44.174.475-57.726 5.384-12.436 10.034-23.175-.401-46.481-1.694-3.782 0-8.22 3.782-9.914 3.781-1.698 8.221-.001 9.915 3.781 13.135 29.336 6.41 44.871.475 58.576-5.355 12.37-9.981 23.052-.401 45.978 1.598 3.823-.193 8.249-4.03 9.816-4.003 1.635-8.612-1.152-9.815-4.03z"/></g><g><path d="m152.701 121.985c-12.042-28.816-5.392-44.175.475-57.727 5.384-12.435 10.034-23.175-.401-46.479-1.694-3.783 0-8.221 3.782-9.915 3.782-1.695 8.221 0 9.915 3.781 13.135 29.335 6.41 44.87.476 58.575-5.356 12.37-9.982 23.053-.401 45.979 1.598 3.823-.137 8.396-4.03 9.816-4.256 1.552-8.613-1.152-9.816-4.03z"/></g><g><path d="m304.516 121.985c-12.042-28.816-5.392-44.175.475-57.727 5.384-12.435 10.034-23.175-.401-46.479-1.694-3.783 0-8.221 3.782-9.915 3.782-1.695 8.221 0 9.915 3.781 13.135 29.335 6.41 44.87.476 58.575-5.356 12.37-9.982 23.053-.401 45.979 1.598 3.823-.137 8.395-4.03 9.816-4.253 1.552-8.613-1.152-9.816-4.03z"/></g></g><g><path d="m504.541 429.76h-166.809c17.385-9.301 32.378-22.509 43.794-38.449h43.48c42.753 0 77.535-34.782 77.535-77.535v-37.947c0-42.753-34.782-77.535-77.535-77.535h-20.71c-3.923-16.521-18.792-28.851-36.495-28.851h-22.49c-4.144 0-7.503 3.359-7.503 7.503s3.359 7.503 7.503 7.503h22.49c12.023 0 21.874 9.474 22.48 21.349v.01c.019.382.029.765.029 1.152v110.249c0 62.06-50.49 112.55-112.55 112.55h-83.677c-60.978 0-110.383-47.701-112.475-108.597-.143-4.141-3.642-7.409-7.756-7.241-4.142.142-7.384 3.615-7.242 7.756 1.138 33.129 14.903 64.094 38.759 87.189 8.635 8.36 18.265 15.355 28.608 20.892h-126.659c-6.088 1.028-8.378 4.536-6.869 10.523l16.818 38.257c6.903 15.702 24.579 26.253 43.986 26.253h328.617c4.144 0 7.503-3.359 7.503-7.503s-3.359-7.503-7.503-7.503h-328.617c-13.547 0-25.702-6.946-30.248-17.286l-12.191-27.734h474.233l-12.192 27.735c-4.546 10.34-16.701 17.286-30.248 17.286h-28.033c-4.144 0-7.503 3.359-7.503 7.503s3.359 7.503 7.503 7.503h28.033c19.406 0 37.083-10.551 43.986-26.253l16.818-38.257c1.801-5.202-.534-10.371-6.87-10.522zm-17.007-153.931v37.947c0 34.478-28.05 62.528-62.528 62.528h-34.232c4.142-7.89 7.483-16.262 9.912-25.011h24.32c20.687 0 37.517-16.83 37.517-37.517v-37.947c0-20.687-16.83-37.517-37.517-37.517h-19.689v-25.011h19.689c34.477 0 62.528 28.05 62.528 62.528zm-82.218-22.51h19.689c12.412 0 22.51 10.098 22.51 22.51v37.947c0 12.412-10.098 22.51-22.51 22.51h-21.116c.938-6.225 1.427-12.595 1.427-19.077z"/><path d="m74.028 296.22c4.144 0 7.503-3.359 7.503-7.503v-81.756c0-12.412 10.098-22.51 22.51-22.51h208.573c4.144 0 7.503-3.359 7.503-7.503s-3.359-7.503-7.503-7.503h-208.572c-20.687 0-37.517 16.83-37.517 37.517v81.756c0 4.143 3.359 7.502 7.503 7.502z"/></g><path d="m235.921 238.843c-32.547 0-59.026 30.294-59.026 67.53s26.479 67.53 59.026 67.53 59.026-30.294 59.026-67.53-26.479-67.53-59.026-67.53zm-44.02 67.53c0-27.529 17.846-50.163 40.456-52.337 9.315 23.448 4.28 35.087-1.498 48.433-5.898 13.621-12.502 28.888-3.844 55.346-20.018-4.927-35.114-26.12-35.114-51.442zm51.182 51.818c-9.464-24.31-4.348-36.141 1.548-49.759 5.667-13.088 11.969-27.686 4.393-52.206 17.894 6.67 30.917 26.628 30.917 50.147-.001 26.051-15.981 47.723-36.858 51.818z"/></g></g></svg>