<svg id="Capa_1" enable-background="new 0 0 512 512" height="512" viewBox="0 0 512 512" width="512" xmlns="http://www.w3.org/2000/svg"><g><g><path d="m311.45 426.49v-146.606h-44.577v146.606c0 18.464-14.968 33.433-33.433 33.433-24.619 0-44.577 19.958-44.577 44.577h200.597c0-24.619-19.958-44.577-44.577-44.577-18.465 0-33.433-14.968-33.433-33.433z" fill="#eaf6ff"/><path d="m286.87 279.88v146.61c0 18.46-14.97 33.43-33.43 33.43-12.31 0-23.46 4.99-31.52 13.06-8.07 8.06-13.06 19.21-13.06 31.52h-20c0-12.31 4.99-23.46 13.06-31.52 8.06-8.07 19.21-13.06 31.52-13.06 18.46 0 33.43-14.97 33.43-33.43v-146.61z" fill="#d8ecfe"/><path d="m87.11 79.29 51.43 57.44c-11.99 9.01-26.9 14.35-43.05 14.35-39.65 0-71.79-32.14-71.79-71.79s32.14-71.79 71.79-71.79c39.64 0 71.78 32.14 71.78 71.79z" fill="#fd8087"/><path d="m115.47 148.25c-6.35 1.84-13.05 2.83-19.98 2.83-39.65 0-71.79-32.14-71.79-71.79s32.14-71.79 71.79-71.79c6.94 0 13.65.99 20 2.82-29.92 8.66-51.79 36.26-51.79 68.97 0 32.7 21.86 60.3 51.77 68.96z" fill="#fe646f"/><path d="m311.63 279.884h-44.914l-179.608-200.596h401.193z" fill="#eaf6ff"/><path d="m314.15 277.01-2.52 2.87h-44.91l-179.61-200.59h50z" fill="#d8ecfe"/><path d="m314.15 277.01-2.52 2.87h-44.91l-98.44-109.94c27.26 11.95 48.4 17.11 66.4 18.31z" fill="#fe646f"/><path d="m408.47 169.93-96.84 109.95h-44.91l-98.44-109.94c114.24 50.05 120.89-18.86 240.19-.01z" fill="#fd8087"/><path d="m314.15 277.01-2.52 2.87h-44.91l-98.44-109.94c27.26 11.95 48.4 17.11 66.4 18.31z" fill="#fe646f"/></g><path d="m487.961 71.79h-71.7c-4.143 0-7.5 3.357-7.5 7.5s3.357 7.5 7.5 7.5h55.101l-66.158 75.115c-52.283-7.56-83.418 1.534-110.965 9.59-34.581 10.114-61.975 18.1-121.828-7.806l-68.857-76.899h280.018c4.143 0 7.5-3.357 7.5-7.5s-3.357-7.5-7.5-7.5h-209.506c-3.791-40.215-37.73-71.79-78.915-71.79-30.851 0-59.129 18.112-72.042 46.143-1.733 3.762-.088 8.217 3.674 9.949 3.762 1.734 8.217.089 9.95-3.674 10.471-22.73 33.402-37.418 58.418-37.418 32.906 0 60.1 24.864 63.828 56.79h-72.208c-7.267 1.753-9.129 5.92-5.587 12.503l45.627 50.956c-9.606 5.467-20.404 8.331-31.659 8.331-34.751 0-62.971-27.184-64.245-61.886-.152-4.14-3.628-7.354-7.771-7.22-4.139.152-7.372 3.631-7.22 7.771.755 20.556 9.332 39.762 24.152 54.078 14.857 14.353 34.42 22.257 55.083 22.257 14.984 0 29.316-4.116 41.851-11.948l122.029 136.283v143.575c0 14.298-11.632 25.93-25.93 25.93-28.412 0-52.08 23.668-52.08 52.08 0 4.143 3.358 7.5 7.5 7.5h200.6c4.143 0 7.5-3.357 7.5-7.5 0-28.412-23.668-52.08-52.08-52.08-15.805-1.482-24.448-10.125-25.93-25.93v-55.22c0-4.143-3.357-7.5-7.5-7.5s-7.5 3.357-7.5 7.5v55.221c0 22.334 18.596 40.93 40.93 40.93 16.832 0 32.902 12.807 36.326 29.58h-184.092c3.426-16.774 19.493-29.58 36.326-29.58 22.569 0 40.93-18.361 40.93-40.93v-139.111h29.58v51.2c0 4.143 3.357 7.5 7.5 7.5s7.5-3.357 7.5-7.5v-55.665l174.978-198.668c4.972-5.684 2.239-12.559-5.628-12.457zm-218.229 200.59-75.729-84.575c35.831 11.2 68.696 8.542 104.446-1.912 25.457-7.445 51.703-15.116 94.786-10.399l-85.333 96.886z"/></g></svg>