<svg id="Capa_1" enable-background="new 0 0 512 512" height="512" viewBox="0 0 512 512" width="512" xmlns="http://www.w3.org/2000/svg"><g><g><g fill="#ffcebf"><path d="m132.483 196.938h20.137v-50.196h-20.137c-8.284 0-15 6.716-15 15v20.196c0 8.284 6.716 15 15 15z"/><path d="m379.517 196.938h-20.137v-50.196h20.137c8.284 0 15 6.716 15 15v20.196c0 8.284-6.716 15-15 15z"/><path d="m219.608 275.244h72.784v99.315h-72.784z"/></g><path d="m184.722 334.402h31.278c22.091 0 40 17.909 40 40v.157h-71.278z" fill="#7a6d79"/><path d="m422.574 504.471h-333.148v-69.912c0-33.137 26.863-60 60-60h213.148c33.137 0 60 26.863 60 60z" fill="#eaf6ff"/><path d="m256.403 294.246h-.807c-56.872 0-102.977-46.104-102.977-102.977v-95.25c0-29.134 23.618-52.752 52.752-52.752h101.256c29.134 0 52.752 23.618 52.752 52.752v95.25c.001 56.872-46.103 102.977-102.976 102.977z" fill="#ffeee6"/><path d="m271.059 293.153c-4.909.723-9.939 1.094-15.059 1.094-57.093 0-103.383-46.29-103.383-103.383v-94.639c0-29.244 23.712-52.957 52.967-52.957h30.117c-29.254 0-52.967 23.713-52.967 52.957v94.639c0 51.973 38.37 95.001 88.325 102.289z" fill="#ffdfcf"/><path d="m149.661 504.471v-129.912h35.061l71.278 97.954 71.278-97.954h35.061v129.912z" fill="#7a6d79"/><path d="m284.265 7.533h-56.636c-51.129 0-92.577 41.448-92.577 92.577v46.632h56.636c51.129 0 92.577-41.448 92.577-92.577z" fill="#dc8758"/><path d="m278.187 7.529c-51.33 0-92.942 41.612-92.942 92.942v46.271h-50.196v-46.271c0-51.33 41.612-92.942 92.942-92.942z" fill="#d77f4a"/><path d="m376.948 146.742h-17.778c-41.369 0-74.905-33.536-74.905-74.905v-64.304h.362c50.988 0 92.322 41.334 92.322 92.322v46.887z" fill="#dc8758"/><path d="m327.278 334.402h-31.278c-22.091 0-40 17.909-40 40v.157h71.278z" fill="#7a6d79"/></g><g><g><path d="m256 428.843c-4.159 0-7.529-3.371-7.529-7.529v-17.569c0-4.159 3.371-7.529 7.529-7.529 4.159 0 7.529 3.371 7.529 7.529v17.569c0 4.158-3.37 7.529-7.529 7.529z"/></g><path d="m362.34 367.029h-27.532v-32.627c0-4.159-3.371-7.529-7.529-7.529h-27.357v-34.204c9.068-3.906 17.635-9 25.4-15.224 3.245-2.601 3.767-7.339 1.167-10.584-2.601-3.245-7.339-3.767-10.584-1.167-16.839 13.497-38.314 21.024-59.904 21.024-52.751 0-95.683-42.833-95.85-95.545v-36.902h31.178c7.29 0 14.562-.785 21.614-2.334 4.061-.892 6.63-4.908 5.738-8.97-.892-4.061-4.902-6.632-8.97-5.738-5.991 1.316-12.176 1.983-18.382 1.983h-38.709-10.043v-38.741c0-47.097 38.316-85.413 85.413-85.413h48.741v38.742c0 28.046-13.783 54.321-36.869 70.285-3.421 2.366-4.275 7.055-1.911 10.475 2.365 3.42 7.054 4.275 10.475 1.911 14.192-9.814 25.387-22.945 32.848-37.952 10.417 30.107 37.743 52.378 70.576 55.389 0 0-.009 38.96-.032 39.791-.429 14.147-4.297 29.067-10.858 41.563-5.1 9.717 9.198 14.873 13.333 7 5.973-11.377 10.178-24.93 11.774-37.794h13.39c12.455 0 22.588-10.133 22.588-22.588v-20.078c0-10.729-7.523-19.729-17.569-22.019v-39.566c0-55.233-44.916-100.173-100.14-100.212-.026 0-.051-.004-.077-.004h-56.27c-55.399-.001-100.471 45.07-100.471 100.471v39.311c-10.044 2.291-17.565 11.29-17.565 22.018v20.078c0 12.455 10.133 22.588 22.588 22.588h13.38c4.872 39.662 30.764 72.91 66.157 88.233v34.172h-27.357c-4.159 0-7.529 3.371-7.529 7.529v32.627h-27.532c-37.365 0-67.764 30.399-67.764 67.764v69.677c0 4.159 3.371 7.529 7.529 7.529h333.149c4.159 0 7.529-3.371 7.529-7.529v-69.677c.001-37.364-30.398-67.763-67.763-67.763zm24.647-205.228v20.078c0 4.152-3.377 7.529-7.529 7.529h-12.545v-35.137h12.545c4.152.001 7.529 3.378 7.529 7.53zm-95.193-146.41c43.442 3.824 77.625 40.407 77.625 84.825v38.997c-40.229 3.11-77.625-25.603-77.625-67.669zm-166.781 166.488v-20.078c0-4.152 3.377-7.529 7.529-7.529h12.545v35.137h-12.545c-4.152 0-7.529-3.378-7.529-7.53zm187.475 200.209-56.488 77.628-56.488-77.628zm7.261-15.059h-55.343c3.177-13.401 14.644-23.626 28.662-24.949.074-.007.147-.015.22-.024.945-.083 26.461-.125 26.461-.125zm-63.749-65.252c9.789 0 19.496-1.328 28.863-3.858v30.316c-12.064 2.942-22.337 10.483-28.863 20.655-6.525-10.172-16.799-17.713-28.863-20.655v-30.275c9.207 2.484 18.882 3.817 28.863 3.817zm-63.749 40.154s25.515.042 26.461.125c.073.009.146.017.22.024 14.018 1.323 25.485 11.548 28.662 24.949h-55.343zm-95.296 92.863c0-26.506 19.672-48.496 45.181-52.16v51.539c0 4.159 3.371 7.529 7.529 7.529s7.529-3.371 7.529-7.529v-52.083h23.694l69.023 94.853c4.059 4.132 8.118 4.132 12.176 0l69.023-94.853h23.694v114.848h-197.609v-29.947c0-4.159-3.371-7.529-7.529-7.529s-7.529 3.371-7.529 7.529v29.95h-45.182zm318.09 62.147h-45.181v-114.307c25.509 3.664 45.181 25.653 45.181 52.16z"/><g><path d="m256.221 254.309c-14.306 0-27.272-6.601-34.733-17.699-2.321-3.451-1.404-8.129 2.047-10.449 3.449-2.321 8.129-1.405 10.449 2.047 4.655 6.923 12.958 11.042 22.238 11.042.068 0 .134-.001.202-.001 9.038-.058 17.09-4.156 21.539-10.961 2.275-3.478 6.943-4.457 10.422-2.181 3.481 2.275 4.458 6.941 2.182 10.422-7.219 11.041-19.946 17.687-34.046 17.778-.099.001-.2.002-.3.002z"/></g><g><g><path d="m207.968 202.968c-4.159 0-7.529-3.371-7.529-7.529v-16.1c0-4.159 3.371-7.529 7.529-7.529s7.529 3.371 7.529 7.529v16.1c0 4.159-3.37 7.529-7.529 7.529z"/></g><g><path d="m304.032 202.968c-4.159 0-7.529-3.371-7.529-7.529v-16.1c0-4.159 3.371-7.529 7.529-7.529 4.159 0 7.529 3.371 7.529 7.529v16.1c0 4.159-3.37 7.529-7.529 7.529z"/></g></g></g></g></svg>