<svg id="Capa_1" enable-background="new 0 0 511.998 511.998" height="512" viewBox="0 0 511.998 511.998" width="512" xmlns="http://www.w3.org/2000/svg"><g><path d="m350.319 273.219c-10.46 30.79-15.68 62.85-15.68 94.89 0 31.18 4.94 62.33 14.8 92.26 1.49 4.52 3.09 9.02 4.8 13.48l11.76 30.65h-220l11.76-30.65c1.71-4.46 3.31-8.96 4.8-13.48 19.99-60.7 19.76-126.4-.88-187.15-5.19-15.29-9.11-30.94-11.73-46.81-2.63-15.88-3.95-31.96-3.95-48.1v-73.81h220v73.81c0 32.28-5.3 64.34-15.68 94.91z" fill="#ffe177"/><path d="m345.349 178.309v40.33c0 21.43-17.43 38.86-38.86 38.86-21.42 0-38.86-17.43-38.86-38.86v-19.77c0-1-.81-1.81-1.81-1.81s-1.82.81-1.82 1.81v56.63c0 22.06-17.94 40-40 40s-40-17.94-40-40v-77.19z" fill="#ffd15b"/><path d="m145.999 104.501h220v73.809h-220z" fill="#eaf6ff"/><path d="m365.999 104.499v20h-10.65c-5.51 0-10 4.49-10 10v43.81h-161.35v-43.81c0-5.51-4.49-10-10-10h-28v-20z" fill="#d8ecfe"/><path d="m202.559 460.369c-1.49 4.52-3.09 9.02-4.8 13.48l-11.76 30.65h-40l11.76-30.65c1.71-4.46 3.31-8.96 4.8-13.48 19.99-60.7 19.76-126.4-.88-187.15-5.19-15.29-9.11-30.94-11.73-46.81-2.63-15.88-3.95-31.96-3.95-48.1v-73.81h40v73.81c0 16.14 1.32 32.22 3.95 48.1 2.62 15.87 6.54 31.52 11.73 46.81 20.64 60.75 20.87 126.45.88 187.15z" fill="#ffd15b"/><path d="m202.559 460.369c-1.49 4.52-3.09 9.02-4.8 13.48l-11.76 30.65h-40l11.76-30.65c1.71-4.46 3.31-8.96 4.8-13.48z" fill="#d8ecfe"/><path d="m145.999 104.499h40v73.81h-40z" fill="#d8ecfe"/><path d="m365.999 504.499h-220l11.76-30.65c1.71-4.46 3.31-8.96 4.8-13.48h186.88c1.49 4.52 3.09 9.02 4.8 13.48z" fill="#eaf6ff"/><path d="m202.559 460.369c-1.49 4.52-3.09 9.02-4.8 13.48l-11.76 30.65h-40l11.76-30.65c1.71-4.46 3.31-8.96 4.8-13.48z" fill="#d8ecfe"/><path d="m365.765 76.785c-.588-26.275-22.056-47.398-48.472-47.398-6.572 0-12.835 1.314-18.551 3.682-8.183-15.22-24.252-25.569-42.742-25.569-18.155 0-33.969 9.981-42.282 24.749-5.894-2.547-12.389-3.965-19.218-3.965-26.786 0-48.5 21.714-48.5 48.5v27.715h28c16.569 0 30 13.432 30 30v121c0 11.046 8.954 20 20 20s20-8.954 20-20v-56.628c0-12.049 9.768-21.817 21.817-21.817s21.817 9.768 21.817 21.817v19.766c0 10.416 8.443 18.859 18.859 18.859 10.415 0 18.859-8.443 18.859-18.859v-84.138c0-16.568 13.432-30 30-30h10.648z" fill="#fff9e2"/><g fill="#fff5c6"><path d="m165.999 76.789v27.71h-20v-27.71c0-26.79 21.71-48.5 48.5-48.5 3.44 0 6.79.36 10.02 1.03-22 4.6-38.52 24.1-38.52 47.47z"/><path d="m233.999 272.809c-2.94 1.71-6.36 2.69-10 2.69-11.05 0-20-8.95-20-20v-121c0-16.57-13.43-30-30-30h20c16.57 0 30 13.43 30 30v121c0 7.4 4.02 13.86 10 17.31z"/><path d="m255.999 7.499c3.42 0 6.76.36 9.99 1.04-13.85 2.9-25.53 11.73-32.27 23.71-5.41-2.34-11.32-3.72-17.53-3.92 8.75-12.59 23.32-20.83 39.81-20.83z"/></g><g><path d="m373.265 76.721c-.982-35.351-36.723-62.559-71.295-52.706-10.403-14.955-27.49-24.015-45.971-24.015-18.033 0-34.883 8.733-45.346 23.154-34.973-10.553-72.154 16.924-72.154 53.63v101.523c0 16.499 1.363 33.095 4.051 49.322 5.978 36.206 20.947 69.906 25.292 106.502.452 3.813 3.69 6.617 7.438 6.617.296 0 .594-.018.894-.054 4.113-.488 7.053-4.219 6.563-8.331-4.375-36.854-19.375-70.756-25.388-107.182-2.215-13.375-3.48-27.012-3.778-40.625h42.928v70.944c0 15.163 12.337 27.5 27.5 27.5s27.5-12.337 27.5-27.5v-56.628c0-7.895 6.423-14.317 14.317-14.317s14.316 6.423 14.316 14.317v19.766c0 14.534 11.825 26.358 26.359 26.358s26.358-11.824 26.358-26.358v-34.08h25.578c-.635 29.377-5.742 58.362-15.21 86.248-10.669 31.406-16.079 64.144-16.079 97.303 0 28.845 4.084 57.253 12.128 84.76h-35.938c-4.143 0-7.5 3.357-7.5 7.5s3.357 7.5 7.5 7.5h40.749c3.424 9.791 7.23 19.473 11.011 29.13h-198.18c3.781-9.657 7.588-19.339 11.013-29.13h102.728c4.143 0 7.5-3.357 7.5-7.5s-3.357-7.5-7.5-7.5h-97.917c8.253-28.213 12.335-57.368 12.116-86.985-.03-4.123-3.383-7.444-7.499-7.444-.019 0-.038 0-.057 0-4.142.031-7.475 3.413-7.444 7.556.355 48.099-13.519 91.517-30.852 135.817-1.239 5.852 1.095 9.247 7.002 10.187h220c5.907-.939 8.241-4.335 7.002-10.187-17.169-43.534-30.862-86.311-30.862-133.703 0-31.515 5.142-62.629 15.282-92.479 10.669-31.419 16.078-64.163 16.078-97.321v-21.369c0-4.143-3.357-7.5-7.5-7.5s-7.5 3.357-7.5 7.5v12.619h-25.648v-35.06c0-14.577 13.286-21.945 25.648-22.5v12.248c0 4.143 3.357 7.5 7.5 7.5s7.5-3.357 7.5-7.5zm-219.766 92.837v-57.558h20.5c12.406 0 22.5 10.094 22.5 22.5v35.058zm164.352-35.058v84.138c0 6.263-5.096 11.358-11.359 11.358s-11.358-5.096-11.358-11.358v-19.766c0-16.166-13.151-29.317-29.316-29.317-16.166 0-29.317 13.151-29.317 29.317v56.628c0 6.893-5.607 12.5-12.5 12.5s-12.5-5.607-12.5-12.5v-121c0-20.652-16.78-37.456-37.422-37.498-.026 0-.052-.004-.078-.004h-20.5v-20.214c0-28.531 31.031-48.979 57.242-37.65 3.528 1.521 7.629.139 9.511-3.205 7.266-12.909 20.963-20.929 35.745-20.929 15.12 0 28.967 8.284 36.137 21.621 1.823 3.391 5.917 4.852 9.478 3.377 25.696-10.651 55.994 9.108 56.652 36.902l.17 20.098c-21.175-.08-40.585 14.78-40.585 37.502z"/></g></g></svg>