<svg id="Capa_1" enable-background="new 0 0 514.636 514.636" height="512" viewBox="0 0 514.636 514.636" width="512" xmlns="http://www.w3.org/2000/svg"><g><path d="m323.717 138.134c-24.291 0-47.006 6.73-66.399 18.415-19.393-11.684-42.108-18.415-66.399-18.415-71.167 0-128.86 57.693-128.86 128.86 0 19.155 4.626 38.092 12.887 55.34 23.768 49.625 47.522 99.261 71.307 148.875 10.798 21.464 33.012 36.195 58.678 36.195 21.397 0 40.398-10.239 52.387-26.079 11.989 15.84 30.989 26.079 52.387 26.079 25.666 0 47.88-14.731 58.678-36.195 23.785-49.613 47.539-99.25 71.307-148.875 8.261-17.248 12.887-36.185 12.887-55.34 0-71.167-57.693-128.86-128.86-128.86z" fill="#fd8087"/><g><path d="m196.253 471.209c-23.785-49.613-47.539-99.25-71.307-148.875-8.261-17.248-12.887-36.185-12.887-55.34 0-62.602 44.644-114.769 103.829-126.422-8.079-1.589-16.423-2.438-24.969-2.438-71.167 0-128.86 57.693-128.86 128.86 0 19.155 4.626 38.092 12.887 55.34 23.768 49.625 47.522 99.261 71.307 148.875 10.798 21.464 33.012 36.195 58.678 36.195 8.852 0 17.291-1.757 24.996-4.933-14.63-6.034-26.601-17.203-33.674-31.262z" fill="#fe646f"/></g><path d="m308.483 104.988h-33.581l.43-6.203c3.259-47.01 42.345-83.479 89.467-83.479h33.366c0 49.53-40.152 89.682-89.682 89.682z" fill="#57be92"/><path d="m364.799 15.305c-47.123 0-86.208 36.469-89.468 83.479l-.43 6.204h30l.43-6.204c3.259-47.01 42.345-83.479 89.468-83.479z" fill="#22b27f"/><path d="m241.901 73.176v113.743h33v-113.743c0-19.737-9.966-37.806-26.66-48.335l-23.886-15.066c-7.706-4.861-17.897-2.554-22.758 5.153-4.861 7.708-2.554 17.897 5.154 22.759l23.886 15.065c7.053 4.449 11.264 12.084 11.264 20.424z" fill="#dc8758"/><g><path d="m323.718 130.827c-14.153 0-28.005 2.151-41.32 6.39v-24.536h26.087c25.958 0 50.363-10.109 68.655-28.401 2.904-2.794 3.011-8.106-.456-11.345-2.893-2.702-7.541-2.093-10.183.771-15.512 15.462-36.11 23.976-58.016 23.976h-25.528c3.85-42.026 39.453-74.685 81.844-74.685h25.534c-.809 9.001-3.082 17.724-6.785 26.018-1.689 3.782.008 8.218 3.79 9.907 3.783 1.688 8.218-.009 9.906-3.79 5.589-12.517 8.423-25.852 8.423-39.635 0-4.143-3.358-7.5-7.5-7.5h-33.369c-34.384 0-67.438 19.254-84.453 49.104-4.052-15.741-13.938-29.483-28.109-38.418l-23.88-15.062c-13.104-6.644-24.139-4.145-33.104 7.495-7.059 11.198-3.696 26.049 7.494 33.104l23.894 15.072c4.857 3.059 7.757 8.32 7.757 14.073v17.721c0 4.143 3.358 7.5 7.5 7.5s7.5-3.357 7.5-7.5v-17.721c0-10.937-5.519-20.944-14.759-26.764l-23.892-15.07c-4.195-2.645-5.454-8.215-2.805-12.416 3.362-4.364 7.501-5.3 12.415-2.806l23.88 15.06c14.502 9.145 23.161 24.844 23.161 41.996v106.24h-18v-55.83c0-4.143-3.358-7.5-7.5-7.5s-7.5 3.357-7.5 7.5v14.143c-13.949-4.704-28.526-7.091-43.48-7.091-75.189 0-136.36 61.171-136.36 136.359 0 19.707 4.711 39.963 13.625 58.58 0 0 55.888 116.71 71.312 148.873 21.374 44.834 83.802 53.433 117.823 18.376 33.774 34.802 96.835 26.747 117.822-18.376 9.531-19.872 19.052-39.744 28.563-59.627 1.788-3.736.208-8.215-3.529-10.002-3.736-1.789-8.215-.208-10.002 3.529-9.499 19.856-19.008 39.703-28.526 59.55-19.014 37.728-72.724 42.751-98.348 8.9-3.987-3.965-7.973-3.965-11.96 0-25.625 33.852-79.334 28.827-98.349-8.901-15.412-32.139-71.277-148.802-71.277-148.802-7.952-16.605-12.154-34.622-12.154-52.101 0-66.918 54.442-121.359 121.36-121.359 15.035 0 29.636 2.708 43.48 8.037v25.66c-9.397-.578-18.153-4.505-24.869-11.221-2.929-2.928-7.678-2.929-10.606.001-2.929 2.929-2.929 7.678 0 10.606 10.123 10.122 23.581 15.696 37.895 15.696h41c14.314 0 27.772-5.574 37.895-15.696 2.929-2.929 2.929-7.678 0-10.606-2.928-2.929-7.677-2.93-10.606-.001-6.198 6.198-14.135 10.017-22.708 11.025v-26.271c13.226-4.796 27.1-7.231 41.32-7.231 66.918 0 121.36 54.441 121.36 121.359 0 17.479-4.203 35.495-12.153 52.098l-27.09 56.561c-1.791 3.735-.214 8.215 3.521 10.005 3.82 1.676 7.155.502 10.005-3.521l27.092-56.563c8.914-18.616 13.625-38.872 13.625-58.579-.002-75.187-61.173-136.358-136.362-136.358z"/></g></g></svg>