<svg id="Capa_1" enable-background="new 0 0 511.862 511.862" height="512" viewBox="0 0 511.862 511.862" width="512" xmlns="http://www.w3.org/2000/svg"><g><path d="m279.432 74.5h-47.002v-43.501c0-12.979 10.522-23.501 23.501-23.501 12.979 0 23.501 10.522 23.501 23.501z" fill="#b3dafe"/><path d="m395.931 504.364h-280v-20c0-11.046 8.954-20 20-20h240c11.046 0 20 8.954 20 20z" fill="#a79ba7"/><path d="m185.931 464.364c-11.05 0-20 8.95-20 20v20h-50v-20c0-11.05 8.95-20 20-20z" fill="#7a6d79"/><path d="m355.931 364.407h-200v20c0 11.046 8.954 20 20 20h160c11.046 0 20-8.954 20-20z" fill="#a79ba7"/><path d="m225.931 404.408c-11.05 0-20-8.95-20-20v-20h-50v20c0 11.05 8.95 20 20 20z" fill="#7a6d79"/><path d="m463.916 286.035h-415.97v-23.549c0-114.867 93.118-207.985 207.985-207.985 114.867 0 207.985 93.118 207.985 207.985z" fill="#eaf6ff"/><path d="m463.921 266.034v20h-415.98v-23.55c0-97.06 66.49-178.59 156.4-201.53-63.49 35.61-106.4 103.56-106.4 181.53 0 13.006 10.544 23.55 23.55 23.55z" fill="#d8ecfe"/><path d="m204.704 404.408h102.455v59.961h-102.455z" fill="#7a6d79"/><path d="m307.161 404.407v20h-57.46c-8.284 0-15 6.716-15 15v24.961h-30v-59.961z" fill="#685e68"/><path d="m468.894 364.406h-425.926c-9.141 0-17.119-6.197-19.379-15.055l-16.158-63.316h497l-16.158 63.317c-2.26 8.857-10.238 15.054-19.379 15.054z" fill="#b3dafe"/><path d="m92.971 364.404h-50c-9.14 0-17.12-6.19-19.38-15.05l-16.16-63.32h50l16.16 63.32c2.26 8.86 10.24 15.05 19.38 15.05z" fill="#8ac9fe"/><g><path d="m504.382 278.532h-33.01v-16.053c0-105.763-79.793-198.091-184.49-213.245v-18.234c0-16.917-14.082-31-31-31-17.093 0-31 13.906-31 31v18.224c-11.102 1.602-22.101 4.065-32.778 7.371-3.957 1.225-6.171 5.426-4.946 9.383 1.225 3.956 5.43 6.176 9.383 4.945 126.681-39.223 259.832 59.301 259.832 191.556v16.05h-36.05c-4.142 0-7.5 3.357-7.5 7.5v.001s0 .001 0 .001c0 4.143 3.358 7.5 7.5 7.5h74.406l-13.773 53.967c-1.412 5.536-6.393 9.403-12.112 9.403h-425.922c-5.719 0-10.7-3.867-12.113-9.404l-13.773-53.966h370.596c4.142 0 7.5-3.357 7.5-7.5s-3.358-7.5-7.5-7.5h-332.24v-16.05c0-75.831 42.013-144.33 109.644-178.767 3.691-1.88 5.16-6.396 3.28-10.087-1.88-3.69-6.396-5.157-10.087-3.28-71.429 36.373-117.837 111.871-117.837 192.135v16.05h-33.01c-5.475.747-7.897 3.865-7.267 9.354l16.16 63.319c3.108 12.186 14.066 20.696 26.647 20.696h105.46v12.504c0 15.163 12.336 27.5 27.5 27.5h21.272v44.956h-61.272c-15.164 0-27.5 12.337-27.5 27.5v20c0 4.143 3.358 7.5 7.5 7.5h73.75c4.142 0 7.5-3.357 7.5-7.5s-3.358-7.5-7.5-7.5h-66.25v-12.5c0-6.893 5.607-12.5 12.5-12.5h240c6.893 0 12.5 5.607 12.5 12.5v12.5h-166.06c-4.142 0-7.5 3.357-7.5 7.5s3.358 7.5 7.5 7.5h173.56c4.142 0 7.5-3.357 7.5-7.5v-20c0-15.163-12.336-27.5-27.5-27.5h-61.272v-44.956h21.272c15.164 0 27.5-12.337 27.5-27.5v-12.504h105.46c12.581 0 23.539-8.511 26.647-20.695l16.16-63.32c.9-4.29-1.267-9.373-7.267-9.354zm-264.5-247.532c0-8.822 7.178-16 16-16 9.756.911 15.089 6.245 16 16v16.59c-10.644-.784-21.355-.78-32-.003zm59.728 380.908v44.896h-87.455v-44.896zm48.772-27.502c0 6.893-5.607 12.5-12.5 12.5h-160c-6.893 0-12.5-5.607-12.5-12.5v-12.5h185z"/></g></g></svg>