<svg id="Capa_1" enable-background="new 0 0 512 512" height="512" viewBox="0 0 512 512" width="512" xmlns="http://www.w3.org/2000/svg"><g><g><path d="m192.438 425.738h85.667v-34.678c0-16.569-13.431-30-30-30h-85.667z" fill="#fe99a0"/><path d="m192.438 425.738h85.667v34.678c0 16.569-13.431 30-30 30h-85.667z" fill="#fd8087"/><path d="m505.06 288.89c0 46.72-18.94 89.02-49.55 119.63-30.61 30.62-72.91 49.56-119.63 49.56h-57.78v-64.68h45.49c17.75 0 33.7-7.72 44.65-20 9.45-10.58 15.2-24.54 15.2-39.84 0-16.53-6.7-31.49-17.53-42.32s-25.79-17.53-42.32-17.53h-113.82c-49.7 0-90-40.29-90-90v-64h216.11c93.44 0 169.18 75.75 169.18 169.18z" fill="#fd8087"/><path d="m433.44 313.56c0 33.05-26.79 59.84-59.85 59.84h-5.35c9.45-10.58 15.2-24.54 15.2-39.84 0-16.53-6.7-31.49-17.53-42.32s-25.79-17.53-42.32-17.53h-113.82c-49.7 0-90-40.29-90-90v-64h50v44c0 49.71 40.3 90 90 90h113.82c6.25 0 12.28.96 17.94 2.74 9.31 2.92 17.65 8.06 24.38 14.79 10.83 10.83 17.53 25.79 17.53 42.32z" fill="#fe646f"/><path d="m411.42 359.93c-10.31 8.42-23.48 13.47-37.83 13.47h-5.35c5.77-6.46 10.16-14.19 12.7-22.71h.01z" fill="#fd8087"/><path d="m391.53 256.45-28.11 32.44c-10.58-9.44-24.53-15.18-39.83-15.18v-20h50c6.25 0 12.28.96 17.94 2.74z" fill="#fd8087"/><path d="m478.32 380.21v.01c-6.58 10.24-14.24 19.73-22.81 28.3-30.61 30.62-72.91 49.56-119.63 49.56h-12.29v-64.68c27.1 0 49.99-18.01 57.36-42.71z" fill="#fe99a0"/><path d="m411.42 359.93c-10.31 8.42-23.48 13.47-37.83 13.47h-5.35c5.77-6.46 10.16-14.19 12.7-22.71h.01z" fill="#fd8087"/><path d="m461.55 175.63-98.13 113.26c-10.58-9.44-24.53-15.18-39.83-15.18v-154h12.29c49.88 0 94.72 21.59 125.67 55.92z" fill="#fe99a0"/><path d="m391.53 256.45-28.11 32.44c-10.58-9.44-24.53-15.18-39.83-15.18v-20h50c6.25 0 12.28.96 17.94 2.74z" fill="#fd8087"/><circle cx="199.781" cy="173" fill="#eaf6ff" r="20"/></g><g><g><path d="m198.688 200.193c-15.19 0-27.548-12.358-27.548-27.548 0-15.189 12.358-27.548 27.548-27.548s27.548 12.358 27.548 27.548-12.358 27.548-27.548 27.548zm0-40.069c-6.905 0-12.522 5.617-12.522 12.522s5.617 12.522 12.522 12.522 12.522-5.617 12.522-12.522-5.618-12.522-12.522-12.522z"/></g><path d="m504.537 282.395c-.017 0-.033 0-.051 0-4.125 0-7.485 3.331-7.512 7.463-.198 29.704-8.488 57.546-22.747 81.451l-85.128-25.812c3.647-20.384-2.37-41.682-16.248-57.1l88.019-101.602c16.891 20.796 28.315 45.3 33.299 71.758 2.096 4.679 5.02 6.677 8.774 5.992 4.077-.768 6.76-4.697 5.992-8.774-15.545-82.524-90.073-144.021-173.912-144.021h-216.485c-4.149 0-7.513 3.363-7.513 7.513v18.823h-20.112c-16.401 0-29.744-13.343-29.744-29.745 0-16.401 13.343-29.744 29.744-29.744h220.607c4.15 0 7.513-3.363 7.513-7.513s-3.363-7.513-7.513-7.513h-220.607c-24.686 0-44.771 20.084-44.771 44.77s20.084 44.771 44.771 44.771h20.112v28.791h-19.496c-42.184 0-76.503-34.319-76.503-76.503s34.319-76.504 76.503-76.504h148.888c4.149 0 7.513-3.363 7.513-7.513s-3.364-7.513-7.513-7.513h-148.888c-50.469 0-91.529 41.061-91.529 91.53s41.06 91.529 91.529 91.529h20.443c.933 6.709 2.547 13.295 4.86 19.686 1.412 3.901 5.721 5.919 9.621 4.508 3.902-1.413 5.92-5.72 4.508-9.622-3.259-9.003-4.911-18.466-4.911-28.126v-56.598h189.153v139.241h-106.509c-22.232 0-43.09-8.704-58.731-24.508-2.92-2.95-7.675-2.972-10.625-.056-2.949 2.919-2.974 7.676-.055 10.625 18.485 18.679 43.136 28.965 69.411 28.965h24.21v32.847c0 4.15 3.364 7.513 7.513 7.513s7.513-3.363 7.513-7.513v-32.847h26.124v32.847c0 4.15 3.363 7.513 7.513 7.513s7.513-3.363 7.513-7.513v-32.847h26.123v32.847c0 4.15 3.363 7.513 7.513 7.513s7.513-3.363 7.513-7.513v-32.3c32.322 4.662 50.415 37.113 42.669 67.183-6.502 21.425-27.734 37.142-50.221 37.142h-38.382c-2.527-18.276-18.241-32.397-37.201-32.397h-85.814c-6.171 1.068-8.443 4.627-6.816 10.675l28.587 61.633-28.586 61.63c-1.627 6.048.645 9.605 6.816 10.674h47.072c4.149 0 7.513-3.363 7.513-7.513s-3.364-7.513-7.513-7.513h-35.305l23.083-49.766h73.499v27.227c0 12.428-10.11 22.539-22.539 22.539h-6.001c-4.149 0-7.513 3.363-7.513 7.513s3.364 7.513 7.513 7.513h6.001c18.959 0 34.673-14.121 37.2-32.396h50.732c47.064 0 91.367-18.269 124.75-51.442 33.366-33.157 51.913-77.313 52.227-124.334.027-4.149-3.314-7.535-7.463-7.564zm-169.514-155.619c43.341 0 85.468 17.765 115.758 48.716l-89.164 102.925c-9.072-6.428-19.787-10.677-31.387-11.969v-139.672zm-50.363 274.166h30.543v49.766h-30.548zm-37.565-32.397c12.428 0 22.539 10.111 22.539 22.539-.001 9.075-.001 18.15 0 27.225h-73.505l-23.083-49.764zm87.928 82.163h-4.793v-50.193c23.66-2.608 45.266-18.725 54.585-40.614l80.735 24.48c-29.547 40.168-77.122 66.327-130.527 66.327z"/></g></g></svg>