<svg id="Capa_1" enable-background="new 0 0 512 512" height="512" viewBox="0 0 512 512" width="512" xmlns="http://www.w3.org/2000/svg"><g><g><path d="m450.591 497.182h-389.182c-16.55 0-31.35-8.68-37.099-21.757l-16.81-38.243h497l-16.811 38.243c-5.748 13.077-20.549 21.757-37.098 21.757z" fill="#b3dafe"/><path d="m111.41 497.18h-50c-16.55 0-31.35-8.68-37.1-21.76l-16.81-38.24h50l16.81 38.24c5.75 13.08 20.55 21.76 37.1 21.76z" fill="#8ac9fe"/><g><path d="m495 275.82v37.93c0 38.6-31.4 70-70 70h-47.32c8.01-11.98 13.91-25.49 17.18-40h30.14c16.54 0 30-13.46 30-30v-37.93c0-16.54-13.46-30-30-30h-27.18v-38.84c0-.39-.01-.78-.03-1.16h27.21c38.6 0 70 31.4 70 70z" fill="#c4e2ff"/></g><path d="m277.821 437.182h-83.643c-66.274 0-120-53.726-120-120v-110.197c0-16.569 13.431-30 30-30h263.643c16.569 0 30 13.431 30 30v110.197c0 66.274-53.726 120-120 120z" fill="#eaf6ff"/><path d="m244.18 437.18h-50c-66.28 0-120-53.72-120-120v-110.2c0-16.56 13.43-30 30-30h50c-16.57 0-30 13.44-30 30v110.2c0 66.28 53.72 120 120 120z" fill="#d8ecfe"/><path d="m231 340.5h-78.8c-6.809 0-12.329-5.52-12.329-12.329v-95.342c0-6.809 5.52-12.329 12.329-12.329h39.4 39.4c6.809 0 12.329 5.52 12.329 12.329v95.342c0 6.809-5.52 12.329-12.329 12.329z" fill="#fece85"/></g><g><g><g><path d="m235.52 142.278c-2.936 0-5.723-1.734-6.926-4.612-12.042-28.813-5.392-44.172.476-57.723 5.384-12.435 10.033-23.174-.401-46.477-1.694-3.783-.001-8.221 3.781-9.914 3.784-1.695 8.22-.001 9.914 3.781 13.135 29.335 6.41 44.868.476 58.573-5.356 12.369-9.98 23.052-.401 45.975.408 6.754-1.898 10.22-6.919 10.397z"/></g><g><path d="m159.618 126.605c-2.936 0-5.723-1.734-6.926-4.612-12.042-28.814-5.392-44.172.476-57.724 5.383-12.435 10.033-23.174-.401-46.477-1.694-3.782-.001-8.22 3.782-9.913 3.782-1.696 8.22-.002 9.913 3.782 13.134 29.333 6.41 44.866.476 58.571-5.356 12.369-9.98 23.052-.401 45.976.408 6.754-1.899 10.219-6.919 10.397z"/></g><g><path d="m311.424 126.605c-2.936 0-5.723-1.734-6.926-4.612-12.042-28.813-5.392-44.172.476-57.724 5.384-12.435 10.033-23.174-.401-46.476-1.694-3.783-.001-8.221 3.781-9.914 3.784-1.696 8.221 0 9.914 3.781 13.135 29.334 6.41 44.867.476 58.572-5.356 12.369-10.075 23.092-.401 45.976 2.181 5.156-2.154 10.397-6.919 10.397z"/></g></g><path d="m504.512 429.75h-166.799c17.384-9.301 32.376-22.508 43.791-38.447h43.477c42.75 0 77.53-34.78 77.53-77.53v-37.944c0-42.75-34.78-77.53-77.53-77.53h-20.709c-3.923-16.52-18.791-28.849-36.493-28.849h-27.651c-4.144 0-7.503 3.359-7.503 7.503s3.359 7.503 7.503 7.503h27.651c12.02 0 21.87 9.471 22.479 21.343v.004c0 .01.001.02.001.03.019.375.029.753.029 1.132v110.242c0 62.056-50.487 112.544-112.544 112.544h-83.673c-62.056 0-112.544-50.487-112.544-112.544v-110.243c0-12.411 10.098-22.509 22.509-22.509h79.951v28.531h-31.912c-10.939 0-19.838 8.899-19.838 19.838v31.342c0 4.144 3.359 7.503 7.503 7.503s7.503-3.359 7.503-7.503v-31.342c0-2.664 2.168-4.832 4.832-4.832h78.831c2.664 0 4.832 2.168 4.832 4.832v95.376c0 2.664-2.168 4.832-4.832 4.832h-78.831c-2.664 0-4.832-2.168-4.832-4.832v-31.342c0-4.144-3.359-7.503-7.503-7.503s-7.503 3.359-7.503 7.503v31.342c0 10.939 8.899 19.838 19.838 19.838h78.831c10.939 0 19.838-8.899 19.838-19.838v-95.377c0-10.939-8.899-19.838-19.838-19.838h-31.913v-28.531h108.433c4.144 0 7.503-3.359 7.503-7.503s-3.359-7.503-7.503-7.503h-108.434v-15.987c0-4.144-3.359-7.503-7.503-7.503s-7.503 3.359-7.503 7.503v15.987h-79.951c-20.686 0-37.515 16.829-37.515 37.515v110.242c0 48.666 27.401 91.047 67.581 112.544h-126.783c-6.087 1.028-8.377 4.536-6.869 10.523l16.816 38.255c6.903 15.701 24.579 26.251 43.984 26.251h320.195c4.144 0 7.503-3.359 7.503-7.503s-3.359-7.503-7.503-7.503h-320.195c-13.546 0-25.701-6.946-30.246-17.285l-12.191-27.732h474.206l-12.191 27.732c-4.545 10.339-16.7 17.285-30.246 17.285h-36.444c-4.144 0-7.503 3.359-7.503 7.503s3.359 7.503 7.503 7.503h36.444c19.405 0 37.081-10.55 43.984-26.251l16.816-38.255c1.509-3.514.634-10.522-6.869-10.522zm-17.007-153.922v37.944c0 34.476-28.048 62.524-62.524 62.524h-34.229c4.142-7.889 7.482-16.261 9.911-25.01h24.318c20.686 0 37.515-16.829 37.515-37.515v-37.944c0-20.686-16.829-37.515-37.515-37.515h-19.687v-25.01h19.687c34.476.002 62.524 28.05 62.524 62.526zm-82.211-22.508h19.687c12.411 0 22.509 10.098 22.509 22.509v37.944c0 12.411-10.098 22.509-22.509 22.509h-21.114c.938-6.225 1.427-12.594 1.427-19.076z"/></g></g></svg>