<svg id="Capa_1" enable-background="new 0 0 512 512" height="512" viewBox="0 0 512 512" width="512" xmlns="http://www.w3.org/2000/svg"><g><g><path d="m422.575 505.471h-333.15v-110.07c0-33.137 26.863-60 60-60h213.15c33.137 0 60 26.863 60 60z" fill="#eaf6ff"/><g fill="#ffcebf"><path d="m292.392 335.362v-59.121h-72.784v59.121l-.05.034c0 20.129 16.314 36.442 36.442 36.442s36.442-16.314 36.442-36.442z"/><path d="m132.482 197.936h20.137v-50.196h-20.137c-8.284 0-15 6.716-15 15v20.196c0 8.284 6.716 15 15 15z"/><path d="m379.518 197.936h-20.137v-50.196h20.137c8.284 0 15 6.716 15 15v20.196c0 8.284-6.716 15-15 15z"/></g><path d="m256.404 295.244h-.808c-56.872 0-102.977-46.104-102.977-102.977v-95.252c0-29.134 23.618-52.752 52.752-52.752h101.257c29.134 0 52.752 23.618 52.752 52.752v95.252c.001 56.873-46.104 102.977-102.976 102.977z" fill="#ffeee6"/><path d="m271.059 294.145c-4.909.723-9.939 1.094-15.059 1.094-57.093 0-103.384-46.281-103.384-103.374v-94.64c0-29.254 23.713-52.967 52.967-52.967h30.118c-29.254 0-52.967 23.713-52.967 52.967v94.64c0 51.974 38.37 94.992 88.325 102.28z" fill="#ffdfcf"/><path d="m149.66 505.471v-59.639l35.062-40.157h142.556l35.062 40.157v59.639z" fill="#dc8758"/><path d="m376.949 147.74h-.362c-50.988 0-92.322-41.334-92.322-92.322v-46.889h.362c50.988 0 92.322 41.334 92.322 92.322z" fill="#7a6d79"/><path d="m184.471 335.401h35.137v100.392h-35.137z" fill="#fece85"/><path d="m292.392 335.401h35.137v100.392h-35.137z" fill="#fece85"/><path d="m284.265 8.529h-56.637c-51.129 0-92.577 41.448-92.577 92.577v46.633h56.637c51.129 0 92.577-41.448 92.577-92.577z" fill="#7a6d79"/><path d="m278.187 8.529c-51.331 0-92.943 41.612-92.943 92.943v46.271h-50.196v-46.271c0-51.331 41.613-92.943 92.943-92.943z" fill="#685e68"/></g><g><g><path d="m256.221 254.307c-14.306 0-27.273-6.601-34.734-17.699-2.32-3.451-1.403-8.129 2.048-10.449s8.13-1.403 10.45 2.047c4.689 6.974 13.081 11.082 22.44 11.042 9.039-.059 17.091-4.156 21.54-10.961 2.276-3.48 6.942-4.458 10.422-2.182 3.48 2.275 4.457 6.941 2.182 10.422-7.219 11.042-19.946 17.689-34.047 17.779-.101.001-.202.001-.301.001z"/></g><g><g><path d="m207.967 202.967c-4.158 0-7.529-3.371-7.529-7.529v-16.101c0-4.159 3.371-7.529 7.529-7.529s7.529 3.371 7.529 7.529v16.101c.001 4.158-3.371 7.529-7.529 7.529z"/></g><g><path d="m304.033 202.967c-4.158 0-7.529-3.371-7.529-7.529v-16.101c0-4.159 3.371-7.529 7.529-7.529s7.529 3.371 7.529 7.529v16.101c0 4.158-3.371 7.529-7.529 7.529z"/></g></g><path d="m422.571 420.141c4.158 0 7.529-3.371 7.529-7.529v-17.98c0-37.366-30.399-67.765-67.765-67.765h-62.414v-34.174c35.394-15.322 61.285-48.568 66.157-88.227h13.38c12.455 0 22.588-10.133 22.588-22.588v-20.078c0-10.728-7.521-19.727-17.565-22.018v-39.569c0-26.141-10.851-52.361-29.351-70.86-18.476-18.482-44.712-29.353-70.865-29.353h-56.274c-55.399 0-100.47 45.071-100.47 100.47v39.31c-10.046 2.29-17.569 11.29-17.569 22.019v20.078c0 12.455 10.133 22.588 22.588 22.588h13.368c1.207 9.894 3.739 19.532 7.572 28.785 3.497 8.444 18.042 4.209 13.913-5.763-4.773-11.524-7.208-23.748-7.244-36.337v-36.88h31.175c41.856 0 77.81-25.731 92.891-62.203 5.069 12.282 12.258 23.129 21.566 32.543 2.929 2.952 7.697 2.971 10.648.04 2.951-2.929 2.97-7.696.04-10.648-15.792-15.914-24.675-37.794-24.675-60.203v-38.414c19.816 1.722 38.692 10.616 52.688 24.615 15.486 15.485 24.941 38.319 24.941 60.212v38.675c-7.79-.679-15.485-2.439-22.805-5.232-3.886-1.483-8.237.465-9.72 4.35-1.482 3.884.465 8.236 4.35 9.719 3.477 1.327 7.018 2.429 10.602 3.355v40.057c-.147 52.725-43.087 95.574-95.851 95.574-25.479 0-50.632-10.551-68.477-28.787-2.908-2.974-7.675-3.024-10.648-.116-2.972 2.908-3.024 7.676-.115 10.647 10.273 10.499 22.25 18.685 35.318 24.319v34.093h-62.414c-37.366 0-67.765 30.399-67.765 67.765v109.839c0 4.159 3.371 7.529 7.529 7.529h333.141c4.158 0 7.529-3.371 7.529-7.529v-59.04c0-4.159-3.371-7.529-7.529-7.529s-7.529 3.371-7.529 7.529v51.511h-45.176v-52.114c0-1.821-.66-3.58-1.857-4.952l-32.949-37.738v-60.212h27.276c29.062 0 52.706 23.644 52.706 52.706v17.98c.002 4.16 3.373 7.53 7.532 7.53zm-297.559-238.264v-20.078c0-4.152 3.377-7.529 7.529-7.529h12.546v35.137h-12.546c-4.152 0-7.529-3.378-7.529-7.53zm66.313-42.666h-48.745v-38.741c0-47.096 38.315-85.411 85.411-85.411h48.74v38.933c-.105 47.007-38.375 85.219-85.406 85.219zm195.663 22.588v20.078c0 4.152-3.377 7.529-7.529 7.529h-12.546v-35.136h12.546c4.152 0 7.529 3.377 7.529 7.529zm-194.988 180.131h20.078v85.333h-20.078zm35.137 25.597c16.362 14.273 41.363 14.273 57.725 0v29.614h-57.725zm72.785-25.597h20.078v85.333h-20.078zm-43.922-40.161c9.981 0 19.656-1.333 28.863-3.817v37.994c-.809 15.225-13.441 27.363-28.863 27.363-15.424 0-28.056-12.143-28.863-27.368v-37.942c9.29 2.481 18.97 3.77 28.863 3.77zm-159.041 92.862c0-29.062 23.644-52.706 52.706-52.706h27.276v60.212l-32.949 37.738c-1.198 1.372-1.857 3.131-1.857 4.952v52.114h-45.176zm257.847 53.021v49.289h-197.612v-49.289l19.747-22.618v9.759c0 4.159 3.371 7.529 7.529 7.529h35.137c4.158 0 7.529-3.371 7.529-7.529v-22.593h57.725v22.593c0 4.159 3.371 7.529 7.529 7.529h35.137c4.158 0 7.529-3.371 7.529-7.529v-9.759z"/></g></g></svg>