<svg id="Capa_1" enable-background="new 0 0 511.893 511.893" height="512" viewBox="0 0 511.893 511.893" width="512" xmlns="http://www.w3.org/2000/svg"><g><g><path d="m426.276 124.876c-12.82 31.08-42.85 49.86-74.5 49.86-10.25 0-20.66-1.97-30.71-6.12l-17.82-7.35-10.07-4.15 2.48-5.01c14.68-29.58 45.27-46.37 76.59-44.66 8.83.48 17.72 2.44 26.32 5.99z" fill="#57be92"/><path d="m372.246 107.446c-4.03 11.62-10.65 22.03-19.16 30.54-13.01 13.01-30.43 21.59-49.84 23.28l-10.07-4.15 2.48-5.01c14.68-29.58 45.27-46.37 76.59-44.66z" fill="#22b27f"/><path d="m286.116 151.586h-30.17l.386-5.573c2.928-42.235 38.043-74.999 80.379-74.999h29.977c0 44.499-36.073 80.572-80.572 80.572z" fill="#57be92"/><path d="m336.711 71.014c-42.336 0-77.451 32.765-80.379 74.999l-.386 5.573h26.953l.386-5.573c2.928-42.234 38.043-74.999 80.379-74.999z" fill="#22b27f"/><path d="m218.716 157.116-10.07 4.15-17.82 7.35c-10.05 4.15-20.46 6.12-30.71 6.12-31.65 0-61.68-18.78-74.5-49.86l27.71-11.44c8.6-3.55 17.49-5.51 26.32-5.99 31.32-1.71 61.91 15.08 76.59 44.66z" fill="#57be92"/><path d="m218.716 157.116-10.07 4.15c-19.41-1.69-36.83-10.27-49.84-23.28-8.51-8.51-15.13-18.92-19.16-30.54 31.32-1.71 61.91 15.08 76.59 44.66z" fill="#22b27f"/><path d="m225.778 151.586h30.17l-.386-5.573c-2.928-42.235-38.043-74.999-80.379-74.999h-29.977c-.001 44.499 36.073 80.572 80.572 80.572z" fill="#57be92"/><path d="m175.182 71.014c42.336 0 77.451 32.765 80.379 74.999l.386 5.573h-26.953l-.386-5.573c-2.928-42.234-38.043-74.999-80.379-74.999z" fill="#22b27f"/><path d="m260.593 37.776c8.109 9.96 12.645 22.43 12.645 35.66v113.74h-33.489v-113.74c0-8.34-4.272-15.97-11.427-20.42l-24.244-15.07c-7.824-4.86-10.158-15.05-5.226-22.76 4.932-7.7 15.273-10.01 23.098-5.15l5.47 3.4z" fill="#dc8758"/><path d="m318.449 146.599-62.502.016-62.502-.016c-65.588-.017-118.767 53.16-118.767 118.748v2.044c0 36.962 16.41 71.483 44.684 94.511l.159.13c26.903 21.912 47.244 50.817 58.786 83.539 9.776 34.79 41.502 58.83 77.641 58.83 36.138 0 67.864-24.04 77.641-58.83 11.542-32.722 31.883-61.627 58.786-83.539l.159-.13c28.274-23.028 44.684-57.549 44.684-94.511v-2.044c-.002-65.588-53.181-118.765-118.769-118.748z" fill="#fd8087"/><path d="m257.247 488.026c7.11 5.39 15.11 9.6 23.7 12.4-7.92 2.59-16.33 3.97-25 3.97-18.07 0-35.04-6.01-48.7-16.37-13.68-10.36-24.05-25.06-28.94-42.46-11.54-32.72-31.88-61.62-58.79-83.53l-.16-.13c-28.27-23.03-44.68-57.55-44.68-94.52v-2.04c0-65.59 53.18-118.76 118.77-118.75l48.79.02c-65.03.63-117.56 53.55-117.56 118.73v2.04c0 36.97 16.41 71.49 44.68 94.52l.16.13c26.91 21.91 47.25 50.81 58.79 83.53 4.89 17.4 15.26 32.1 28.94 42.46z" fill="#fe646f"/></g><g><path d="m407.731 176.059c-18.756-18.754-42.371-30.874-68.004-35.194 9.204-7.061 16.762-15.667 22.673-25.817 18.649-1.408 37.066 6.021 53.737 13.747-3.659 6.825-8.351 12.974-14.005 18.344-3.003 2.853-3.125 7.6-.273 10.604 3.497 3.019 7.031 3.11 10.603.273 9.011-8.559 15.992-18.75 20.749-30.29 1.578-3.828-.245-8.211-4.072-9.791-18.561-8.484-39.179-17.715-59.783-18.074 3.167-9.159 4.832-18.876 4.832-28.853 0-4.143-3.358-7.5-7.5-7.5h-29.97c-20.768 0-40.378 7.151-55.98 20.045v-10.125c0-14.705-5.087-29.052-14.324-40.396-2.615-3.212-7.34-3.696-10.551-1.08-3.212 2.615-3.696 7.339-1.081 10.551 7.167 8.803 10.956 19.496 10.956 30.925v65.675h-18.49v-65.675c0-10.949-5.597-20.965-14.97-26.789l-24.241-15.071c-4.422-3.323-5.381-7.436-2.876-12.34 2.732-4.259 8.487-5.529 12.828-2.83l5.47 3.4c3.518 2.186 8.143 1.107 10.329-2.41 2.187-3.519 1.108-8.143-2.41-10.33l-5.471-3.4c-11.266-7.001-26.236-3.649-33.377 7.48-6.74 13.161-4.211 24.218 7.589 33.169l24.242 15.071c4.939 3.069 7.888 8.322 7.888 14.05v11.111c-15.787-13.388-36.057-21.031-57.06-21.031h-29.98c-4.142 0-7.5 3.357-7.5 7.5 0 9.819 1.664 19.606 4.857 28.852-20.705.354-41.174 9.718-59.808 18.075-3.827 1.58-5.65 5.963-4.072 9.791 4.76 11.548 11.746 21.739 20.763 30.293 3.573 2.835 7.107 2.742 10.603-.28 2.851-3.005 2.725-7.752-.28-10.603-5.658-5.366-10.352-11.514-14.012-18.341 16.57-7.722 35.181-15.152 53.749-13.746 5.904 10.152 13.458 18.757 22.66 25.817-25.632 4.321-49.248 16.441-68.003 35.193-53.112 53.105-47.417 144.645 10.622 191.78 25.781 20.998 45.27 48.657 56.371 79.995 10.719 37.73 45.549 64.059 84.792 64.059 39.242 0 74.073-26.328 84.792-64.059 11.101-31.338 30.59-58.997 56.397-80.017 57.153-48.122 64.429-137.928 10.591-191.758zm-126.995-71.45c13.933-16.618 34.191-26.102 55.98-26.102h22.092c-.928 9.16-3.562 17.948-7.73 26.004-.035.067-.068.134-.101.202-3.409 6.54-7.83 12.595-13.195 17.96-7.126 7.126-15.808 12.771-25.158 16.417l-31.888.008zm-119.907-.075c-4.238-8.202-6.833-16.928-7.75-26.026h22.106c22.12 0 43.266 10.214 57.06 27.437v33.155l-32.988-.008c-9.34-3.644-18.018-9.288-25.148-16.417-5.343-5.344-9.812-11.449-13.28-18.141zm268.887 162.848c0 34.462-15.982 66.697-42.079 88.826-27.982 22.791-49.118 52.826-61.122 86.858-.054.154-.104.31-.147.466-8.829 31.418-37.787 53.36-70.42 53.36-32.634 0-61.592-21.942-70.42-53.36-.044-.156-.093-.312-.147-.466-12.005-34.032-33.141-64.067-61.096-86.837-50.247-42.621-57.284-121.801-9.515-169.563 21.011-21.008 48.938-32.576 78.646-32.576h.029 125.005.029c29.705 0 57.636 11.569 78.646 32.576 21.276 21.273 32.614 50.822 32.591 80.716z"/><g><g><path d="m131.822 279.251c-4.142 0-7.5-3.357-7.5-7.5v-15.606c0-4.143 3.358-7.5 7.5-7.5s7.5 3.357 7.5 7.5v15.606c0 4.143-3.358 7.5-7.5 7.5z"/></g><g><path d="m193.884 279.251c-4.142 0-7.5-3.357-7.5-7.5v-15.606c0-4.143 3.358-7.5 7.5-7.5s7.5 3.357 7.5 7.5v15.606c0 4.143-3.358 7.5-7.5 7.5z"/></g><g><path d="m255.947 279.251c-4.142 0-7.5-3.357-7.5-7.5v-15.606c0-4.143 3.358-7.5 7.5-7.5s7.5 3.357 7.5 7.5v15.606c0 4.143-3.358 7.5-7.5 7.5z"/></g><g><path d="m318.009 279.251c-4.142 0-7.5-3.357-7.5-7.5v-15.606c0-4.143 3.358-7.5 7.5-7.5s7.5 3.357 7.5 7.5v15.606c0 4.143-3.358 7.5-7.5 7.5z"/></g><g><path d="m380.071 279.251c-4.142 0-7.5-3.357-7.5-7.5v-15.606c0-4.143 3.358-7.5 7.5-7.5s7.5 3.357 7.5 7.5v15.606c0 4.143-3.358 7.5-7.5 7.5z"/></g></g><g><g><path d="m160.822 219.3c-4.142 0-7.5-3.357-7.5-7.5v-15.606c0-4.143 3.358-7.5 7.5-7.5s7.5 3.357 7.5 7.5v15.606c0 4.142-3.358 7.5-7.5 7.5z"/></g><g><path d="m222.884 219.3c-4.142 0-7.5-3.357-7.5-7.5v-15.606c0-4.143 3.358-7.5 7.5-7.5s7.5 3.357 7.5 7.5v15.606c0 4.142-3.358 7.5-7.5 7.5z"/></g><g><path d="m284.947 219.3c-4.142 0-7.5-3.357-7.5-7.5v-15.606c0-4.143 3.358-7.5 7.5-7.5s7.5 3.357 7.5 7.5v15.606c0 4.142-3.358 7.5-7.5 7.5z"/></g><g><path d="m347.009 219.3c-4.142 0-7.5-3.357-7.5-7.5v-15.606c0-4.143 3.358-7.5 7.5-7.5s7.5 3.357 7.5 7.5v15.606c0 4.142-3.358 7.5-7.5 7.5z"/></g></g><g><g><path d="m160.822 337.602c-4.142 0-7.5-3.357-7.5-7.5v-15.606c0-4.143 3.358-7.5 7.5-7.5s7.5 3.357 7.5 7.5v15.606c0 4.142-3.358 7.5-7.5 7.5z"/></g><g><path d="m222.884 337.602c-4.142 0-7.5-3.357-7.5-7.5v-15.606c0-4.143 3.358-7.5 7.5-7.5s7.5 3.357 7.5 7.5v15.606c0 4.142-3.358 7.5-7.5 7.5z"/></g><g><path d="m284.947 337.602c-4.142 0-7.5-3.357-7.5-7.5v-15.606c0-4.143 3.358-7.5 7.5-7.5s7.5 3.357 7.5 7.5v15.606c0 4.142-3.358 7.5-7.5 7.5z"/></g><g><path d="m347.009 337.602c-4.142 0-7.5-3.357-7.5-7.5v-15.606c0-4.143 3.358-7.5 7.5-7.5s7.5 3.357 7.5 7.5v15.606c0 4.142-3.358 7.5-7.5 7.5z"/></g></g><g><path d="m193.884 389.775c-4.142 0-7.5-3.357-7.5-7.5v-15.606c0-4.143 3.358-7.5 7.5-7.5s7.5 3.357 7.5 7.5v15.606c0 4.143-3.358 7.5-7.5 7.5z"/></g><g><path d="m255.947 389.775c-4.142 0-7.5-3.357-7.5-7.5v-15.606c0-4.143 3.358-7.5 7.5-7.5s7.5 3.357 7.5 7.5v15.606c0 4.143-3.358 7.5-7.5 7.5z"/></g><g><path d="m318.009 389.775c-4.142 0-7.5-3.357-7.5-7.5v-15.606c0-4.143 3.358-7.5 7.5-7.5s7.5 3.357 7.5 7.5v15.606c0 4.143-3.358 7.5-7.5 7.5z"/></g><g><g><path d="m224.915 445.108c-4.142 0-7.5-3.357-7.5-7.5v-15.606c0-4.143 3.358-7.5 7.5-7.5s7.5 3.357 7.5 7.5v15.606c0 4.143-3.358 7.5-7.5 7.5z"/></g><g><path d="m286.977 445.108c-4.142 0-7.5-3.357-7.5-7.5v-15.606c0-4.143 3.358-7.5 7.5-7.5s7.5 3.357 7.5 7.5v15.606c0 4.143-3.358 7.5-7.5 7.5z"/></g></g></g></g></svg>