<svg id="Capa_1" enable-background="new 0 0 512 512" height="512" viewBox="0 0 512 512" width="512" xmlns="http://www.w3.org/2000/svg"><g><path d="m369.664 186.611c0-62.459-50.633-113.092-113.093-113.092s-113.093 50.633-113.093 113.092c0 4.31.25 8.561.719 12.746l31.106 305.143h162.536l31.075-304.875c.49-4.271.75-8.612.75-13.014z" fill="#eaf6ff"/><path d="m193.48 186.61c0 4.31.25 8.56.72 12.75l10.09 98.97 17.06 167.46 3.95 38.71h-50l-3.94-38.71-27.16-266.43c-.47-4.19-.72-8.44-.72-12.75 0-62.46 50.63-113.09 113.09-113.09 8.59 0 16.96.96 25 2.78-50.43 11.37-88.09 56.44-88.09 110.31z" fill="#d8ecfe"/><path d="m234.897 7.5v286.462l43.345-12.051v-274.411z" fill="#cbc4cc"/><path d="m153.569 286.512c77.879 39.722 129.6-36.138 206.489 0l-18.273 179.281h-170.428z" fill="#fd8087"/><path d="m221.35 465.79h-49.99l-17.79-179.28c18.11 9.23 34.8 12.22 50.72 11.82z" fill="#fe646f"/><path d="m376.865 211.94h-241.73c-11.046 0-20-8.954-20-20v-3.343c0-11.046 8.954-20 20-20h241.73c11.046 0 20 8.954 20 20v3.343c0 11.045-8.954 20-20 20z" fill="#c4e2ff"/><path d="m185.14 211.94h-50c-11.05 0-20-8.95-20-20v-3.34c0-11.05 8.95-20 20-20h50c-11.05 0-20 8.95-20 20v3.34c0 11.05 8.95 20 20 20z" fill="#b3dafe"/><path d="m376.86 161.1h-2.417c-9.575-44.366-44.696-80.531-88.703-91.499v-12.681c0-4.143-3.357-7.5-7.5-7.5s-7.5 3.357-7.5 7.5v9.941c-9.447-1.122-18.894-1.122-28.34 0v-51.861h28.34v9.23c0 4.143 3.357 7.5 7.5 7.5s7.5-3.357 7.5-7.5v-16.73c0-4.143-3.357-7.5-7.5-7.5h-43.34c-4.142 0-7.5 3.357-7.5 7.5v62.101c-44.007 10.967-79.129 47.133-88.703 91.499h-3.557c-15.164 0-27.5 12.337-27.5 27.5v3.341c0 15.164 12.336 27.5 27.5 27.5h3.565l12.923 126.75c1.151 11.282 15.788 6.965 14.923-1.521l-4.715-46.248c34.65 13.442 69.21 4.874 103.392-5.109 28.197-9.044 58.52-13.765 86.809-2.124l-17.027 167.105h-156.88l-8.248-80.934c-.985-9.651-15.906-8.124-14.923 1.521l12.88 126.38c.39 3.827 3.614 6.739 7.461 6.739h162.54c3.848 0 7.071-2.912 7.461-6.739l29.124-285.82h2.436c15.163 0 27.5-12.336 27.5-27.5v-3.341c-.001-15.163-12.338-27.5-27.501-27.5zm-17.808 0h-73.312v-76.035c35.906 10.177 64.162 38.771 73.312 76.035zm-88.312-79.145v79.145h-28.34v-79.145c4.639-.614 23.701-.614 28.34 0zm-43.34 3.11v76.035h-73.312c9.15-37.264 37.405-65.858 73.312-76.035zm-67.304 196.293-6.313-61.917h73.617v68.513c-21.304 4.428-42.926 4.925-67.304-6.596zm110.644-61.918v56.707c-9.46 2.599-18.882 5.339-28.34 7.943v-64.65zm-88.666 277.56-2.416-23.707h153.823l-2.416 23.707zm207.286-305.06c0 6.893-5.607 12.5-12.5 12.5h-36.931c-4.143 0-7.5 3.357-7.5 7.5s3.357 7.5 7.5 7.5h19.418l-5.733 56.26c-24.626-9.09-46.792-7.803-67.875-3.27v-52.99h21.51c4.143 0 7.5-3.357 7.5-7.5s-3.357-7.5-7.5-7.5h-172.109c-6.893 0-12.5-5.607-12.5-12.5v-3.34c0-6.893 5.607-12.5 12.5-12.5h241.72c6.893 0 12.5 5.607 12.5 12.5z"/></g></svg>