<svg id="Capa_1" enable-background="new 0 0 512 512" height="512" viewBox="0 0 512 512" width="512" xmlns="http://www.w3.org/2000/svg"><g><g><path d="m407.884 82.636-9.827-50.83c-2.728-14.112-15.082-24.306-29.455-24.306h-225.215c-14.373 0-26.726 10.194-29.455 24.306l-9.827 50.83z" fill="#fec165"/><path d="m407.88 82.64h-303.78l9.83-50.83c2.73-14.12 15.08-24.31 29.46-24.31h21.72c-.5 1.39-.89 2.83-1.18 4.31l-2.927 15.134c-3.58 18.511 10.601 35.696 29.454 35.696h213.563z" fill="#fdb441"/><path d="m384.089 504.5h-256.19l-29.052-346.728h314.306z" fill="#eaf6ff"/><path d="m411.47 177.77h-230.002c-17.556 0-31.361 15.009-29.895 32.504l24.647 294.226h-48.32l-29.05-346.73h314.3z" fill="#d8ecfe"/><path d="m438.575 82.636h-365.15c-3.866 0-7 3.134-7 7v61.136c0 3.866 3.134 7 7 7h365.151c3.866 0 7-3.134 7-7v-61.136c-.001-3.866-3.135-7-7.001-7z" fill="#fece85"/><path d="m116.42 82.64v75.13h-43c-3.866 0-7-3.134-7-7v-61.13c0-3.866 3.134-7 7-7z" fill="#fec165"/><path d="m408.087 391.552 11.875-140.956c.344-4.083-2.877-7.588-6.975-7.588h-313.974c-4.098 0-7.319 3.504-6.975 7.587l11.865 140.957c.305 3.626 3.337 6.413 6.975 6.413h290.234c3.638-.001 6.67-2.788 6.975-6.413z" fill="#fece85"/><path d="m167.48 397.96h-56.604c-3.638 0-6.67-2.787-6.975-6.413l-11.862-140.95c-.344-4.083 2.878-7.587 6.975-7.587h55.426z" fill="#fec165"/></g><g><path d="m430.575 75.136h-16.503l-8.652-44.754c-3.403-17.605-18.888-30.382-36.817-30.382h-225.216c-17.931 0-33.415 12.777-36.818 30.382l-8.652 44.754h-16.492c-12.406 0-22.5 10.094-22.5 22.5v45.136c0 12.406 10.094 22.5 22.5 22.5h10.527l5.884 70.238h-6.436c-4.869.522-7.361 3.232-7.474 8.128l3.279 39.021c.347 4.128 3.974 7.193 8.102 6.846s7.192-3.974 6.846-8.102l-2.596-30.893h312.884l-11.786 139.95h-289.32l-6.432-76.379c-.348-4.128-3.977-7.185-8.103-6.845-4.128.348-7.192 3.976-6.845 8.103l7.011 83.25c.327 3.885 3.575 6.871 7.474 6.871h7.632l8.354 99.667c.325 3.885 3.574 6.873 7.474 6.873h256.19c3.899 0 7.148-2.988 7.474-6.874l3.192-38.08c.004-.04.006-.08.01-.12l5.152-61.467h7.633c3.898 0 7.146-2.986 7.474-6.87l13.05-154.95c-.111-4.898-2.603-7.608-7.474-8.13h-6.436l5.884-70.238h10.527c12.406 0 22.5-10.094 22.5-22.5v-45.135c-.001-12.407-10.095-22.5-22.501-22.5zm-50.176 383.604h-33.859c-4.143 0-7.5 3.357-7.5 7.5s3.357 7.5 7.5 7.5h32.602l-1.95 23.26h-242.394l-1.95-23.26h181.012c4.143 0 7.5-3.357 7.5-7.5s-3.357-7.5-7.5-7.5h-182.27l-4.466-53.28h257.74zm18.713-223.23h-286.224l-5.884-70.238h297.992zm38.963-92.739c0 4.136-3.364 7.5-7.5 7.5h-349.15c-4.136 0-7.5-3.364-7.5-7.5v-45.135c0-4.136 3.364-7.5 7.5-7.5h225.057c4.143 0 7.5-3.357 7.5-7.5s-3.357-7.5-7.5-7.5h-193.289l8.102-41.906c2.043-10.563 11.334-18.23 22.092-18.23h225.216c10.758 0 20.048 7.667 22.091 18.229l8.102 41.906h-55.588c-4.143 0-7.5 3.357-7.5 7.5s3.357 7.5 7.5 7.5h87.368c4.136 0 7.5 3.364 7.5 7.5v45.136z"/><path d="m191.572 33.078h-36.802c-4.143 0-7.5 3.357-7.5 7.5s3.357 7.5 7.5 7.5h36.803c4.143 0 7.5-3.357 7.5-7.5s-3.358-7.5-7.501-7.5z"/></g></g></svg>