<svg id="Capa_1" enable-background="new 0 0 512.102 512.102" height="512" viewBox="0 0 512.102 512.102" width="512" xmlns="http://www.w3.org/2000/svg"><g><path d="m333.14 167.467h-154.176c-13.807 0-25-11.193-25-25 0-13.807 11.193-25 25-25h154.176c13.807 0 25 11.193 25 25 0 13.807-11.193 25-25 25z" fill="#fef7ed"/><path d="m228.961 167.471h-50c-13.8 0-25-11.2-25-25 0-6.9 2.8-13.16 7.33-17.68 4.52-4.52 10.77-7.32 17.67-7.32h50c-6.9 0-13.15 2.8-17.67 7.32-4.53 4.52-7.33 10.78-7.33 17.68 0 13.8 11.2 25 25 25z" fill="#fff0dc"/><path d="m284.827 82.314h-28.014l.359-5.175c2.719-39.216 35.325-69.64 74.635-69.64h27.834c0 41.319-33.495 74.815-74.814 74.815z" fill="#57be92"/><path d="m373.693 217.467h-235.282c-13.807 0-25-11.193-25-25 0-13.807 11.193-25 25-25h235.282c13.807 0 25 11.193 25 25 0 13.807-11.193 25-25 25z" fill="#fef7ed"/><path d="m188.411 217.471h-50c-13.81 0-25-11.2-25-25 0-6.9 2.8-13.16 7.32-17.68s10.78-7.32 17.68-7.32h50c-6.9 0-13.16 2.8-17.68 7.32s-7.32 10.78-7.32 17.68c0 13.8 11.19 25 25 25z" fill="#fff0dc"/><circle cx="256.051" cy="82.317" fill="#fd8087" r="35.146"/><path d="m423.161 320.418h-334.218v-42.951c0-33.137 26.863-60 60-60h214.218c33.137 0 60 26.863 60 60z" fill="#dc8758"/><path d="m198.941 217.471c-33.13 0-60 26.86-60 60v42.95h-50v-42.95c0-33.14 26.87-60 60-60z" fill="#d77f4a"/><path d="m436.051 308.904-35.575 170.415c-3.095 14.828-14.636 25.283-27.908 25.283h-233.032c-13.272 0-24.812-10.455-27.908-25.283l-35.574-170.415 18.126-29.431c7.409-12.029 22.931-12.073 30.391-.085l3.816 6.133c7.257 11.662 22.243 12.004 29.897.681l6.406-9.477c7.477-11.06 22.027-11.041 29.481.04l7.607 11.308c7.23 10.747 21.228 11.151 28.918.833l12.532-16.814c6.964-9.344 19.33-10.046 27.062-1.537l17.183 18.908c7.398 8.141 19.126 7.901 26.267-.537l12.501-14.771c8.349-9.865 22.512-8.259 29.022 3.291l2.226 3.95c7.311 12.972 23.806 13.055 31.216.157 7.306-12.719 23.508-12.854 30.975-.26z" fill="#fd8087"/><path d="m177.799 504.602h-38.266c-13.268 0-24.806-10.453-27.905-25.28l-35.577-170.42 18.128-29.424c7.414-12.035 22.931-12.079 30.393-.088l3.817 6.133c.057.088.115.176.172.264l-6.724 10.911c-4.78 7.756-6.414 17.504-4.485 26.745l32.542 155.88c3.099 14.827 14.636 25.279 27.905 25.279z" fill="#fe646f"/><path d="m226.683 504.602h-53.916l-27.082-210.253c4.745-.616 9.337-3.319 12.599-8.145l6.409-9.475c7.471-11.068 22.022-11.046 29.474.033l7.615 11.31c3.798 5.65 9.461 8.441 15.105 8.31z" fill="#fff9e2"/><path d="m373.805 291.151-29.943 213.452h-53.916l9.844-209.198c5.051.176 10.15-1.99 13.948-6.474l12.503-14.773c8.351-9.87 22.51-8.265 29.024 3.287l2.229 3.946c3.808 6.759 10.103 10.024 16.311 9.76z" fill="#fff9e2"/><g><path d="m442.5 305.078-11.841-19.972c1.992-27.324-11.744-54.65-36.386-67.508 7.271-5.965 11.919-15.015 11.919-25.132 0-17.921-14.579-32.5-32.5-32.5h-13.188c3.244-5.056 5.135-11.059 5.135-17.5 0-17.921-14.579-32.5-32.5-32.5h-44.662c5.049-5.913 8.52-13.211 9.735-21.244 15.672-2.59 30.487-9.76 42.266-20.565 3.053-2.8 3.258-7.545.458-10.597-2.801-3.055-7.545-3.257-10.597-.458-9.279 8.512-20.423 14.118-32.552 16.463-2.625-12.54-10.777-23.067-21.779-28.921 12.423-18.463 33.131-29.644 55.801-29.644h19.92c-.759 6.892-2.572 13.576-5.418 19.953-1.688 3.783.01 8.218 3.792 9.905 3.783 1.69 8.219-.01 9.905-3.792 4.731-10.603 7.131-21.896 7.131-33.566 0-4.143-3.357-7.5-7.5-7.5h-27.83c-29.223 0-55.786 15.186-70.616 39.991-1.688-.204-3.402-.321-5.144-.321-23.515 0-42.646 19.131-42.646 42.646 0 10.544 3.854 20.199 10.217 27.65h-44.659c-17.921 0-32.5 14.579-32.5 32.5 0 6.441 1.891 12.444 5.135 17.5h-13.186c-17.921 0-32.5 14.579-32.5 32.5 0 10.116 4.647 19.166 11.917 25.131-25.211 13.154-37.803 40.614-36.388 68.259l-11.772 19.115c-1.006 1.632-1.348 3.588-.956 5.465l35.575 170.415c3.84 18.4 18.335 31.251 35.249 31.251h233.032c16.914 0 31.409-12.851 35.249-31.251l35.575-170.415c.383-1.834.066-3.746-.891-5.358zm-186.451-250.408c15.244 0 27.646 12.401 27.646 27.646s-12.401 27.646-27.646 27.646c-15.244 0-27.646-12.402-27.646-27.646s12.402-27.646 27.646-27.646zm-94.587 87.796c0-9.649 7.851-17.5 17.5-17.5h154.177c9.649 0 17.5 7.851 17.5 17.5s-7.851 17.5-17.5 17.5h-154.177c-9.649 0-17.5-7.851-17.5-17.5zm-12.523 82.504h45.2c4.143 0 7.5-3.357 7.5-7.5s-3.357-7.5-7.5-7.5l-55.729-.004c-9.649 0-17.5-7.851-17.5-17.5s7.851-17.5 17.5-17.5h235.282c9.649 0 17.5 7.851 17.5 17.5s-7.851 17.5-17.5 17.5l-146.873.004c-4.143 0-7.5 3.357-7.5 7.5s3.357 7.5 7.5 7.5h136.341c25.277 0 46.436 17.958 51.397 41.785-11.934-5.626-25.826-.307-32.355 11.061-4.518 7.863-13.726 7.796-18.18-.104l-2.227-3.95c-8.71-15.457-29.615-18.239-41.279-4.453l-12.501 14.771c-4.201 4.962-10.627 5.142-14.992.338l-17.183-18.908c-11.145-12.264-29.623-9.982-38.627 2.099l-12.532 16.815c-5.721 6.134-11.281 5.955-16.682-.538l-7.606-11.308c-10.127-15.056-31.747-15.1-41.918-.054l-6.406 9.477c-4.359 6.45-12.825 6.772-17.314-.443-6.918-13.373-22.107-23.81-37.032-15.585 5.258-23.435 26.218-41.003 51.216-41.003zm30.422 272.132-25.433-197.443c6.538-3.103 13.258-12.126 16.975-18.734 4.5-6.659 12.56-6.639 17.045.026 4.345 8.154 13.137 19.394 21.739 21.943l9.136 194.208zm45.324-194.62c9.544-3.439 19.554-17.378 24.556-25.91 4.896-5.611 10.062-5.936 15.498-.975 6.247 8.316 17.066 22.037 27.254 25.821l-9.205 195.683h-48.948zm-105.716 175.304-34.965-167.492 16.56-26.888c4.485-7.285 13.119-7.316 17.638-.056 3.941 8.467 11.368 16.35 20.845 18.188l25.191 195.563h-24.703c-9.736.001-18.193-7.942-20.566-19.315zm274.163 0c-2.374 11.373-10.83 19.315-20.565 19.315h-20.083l11.382-81.1c.576-4.102-2.282-7.894-6.385-8.469-4.101-.578-7.895 2.283-8.469 6.385l-11.674 83.184h-39.534l9.178-195.117c9.308-2.655 19.677-15.1 24.982-22.986 6.228-5.718 11.816-5.009 16.764 2.128 3.434 7.152 8.979 12.568 16.633 16.245l-11.77 83.854c-.576 4.103 2.282 7.895 6.384 8.47.354.05.705.074 1.053.074 3.68 0 6.892-2.71 7.417-6.458l12.043-85.799c6.015-1.929 11.254-6.194 14.719-12.226 4.44-7.731 13.475-7.834 18.02-.17l14.884 25.105z"/></g></g></svg>